<svg xmlns="http://www.w3.org/2000/svg" viewBox="0 0 100 100" width="100" height="100"><polygon points="94.74 50.49 70.93 10.76 50.84 8.21 50.82 8.21 50.6 48.53 94.74 50.49" fill="#fbfbfb"/><polygon points="50.6 48.53 50.33 91.79 73.06 90.14 94.84 50.73 94.74 50.49 50.6 48.53" fill="#f5f5f5"/><polygon points="50.6 48.53 50.82 8.21 29.83 10.76 5.57 50.45 50.6 48.53" fill="#f5f5f5"/><polygon points="5.57 50.45 5.45 50.73 27.7 90.14 50.31 91.79 50.33 91.79 50.6 48.53 5.57 50.45" fill="#eaeaea"/><path d="M35.07,10.11,10.72,50.24,32.86,90.52l-11.24-.79L0,51.09,23.18,11.6Zm42.79,1.78L65.76,10.1,89.42,50.3,68.17,90.57l11.26-.84L100,50.33Z" fill="#bbb"/></svg>
