<svg xmlns="http://www.w3.org/2000/svg" viewBox="0 0 300 85" width="300" height="85"><path d="M124.37,38.53c-5.89,0-11.68-3.62-11.68-13.44s5.79-13.39,11.68-13.39A10.75,10.75,0,0,1,133,15.37l-3.62,3.52c-1.65-1.81-2.94-2.48-5-2.48a5.91,5.91,0,0,0-4.86,2.32C118.38,20.18,118,22,118,25.09s.42,5,1.55,6.41a5.91,5.91,0,0,0,4.86,2.32c2.07,0,3.36-.67,5-2.48L133,34.8A10.79,10.79,0,0,1,124.37,38.53Zm33.84-13.44c0-4.39-.62-7.7-3.1-10.28a10.58,10.58,0,0,0-7.85-3.11,10.45,10.45,0,0,0-7.8,3.11c-2.49,2.58-3.11,5.89-3.11,10.28s.62,7.75,3.11,10.33a10.44,10.44,0,0,0,7.8,3.1,10.57,10.57,0,0,0,7.85-3.1C157.59,32.84,158.21,29.53,158.21,25.09Zm-5.27,0c0,2.84-.2,5.58-1.81,7.18a5.57,5.57,0,0,1-7.7,0c-1.6-1.6-1.81-4.34-1.81-7.18s.21-5.58,1.81-7.18a5.69,5.69,0,0,1,7.7,0C152.74,19.51,152.94,22.25,152.94,25.09Zm26.25,13.13h5.17V1.42h-5.27V14.65a8.12,8.12,0,0,0-6.87-3A8.94,8.94,0,0,0,165.86,14c-2.64,2.64-3,7.08-3,11.06s.31,8.47,3,11.11a9.05,9.05,0,0,0,6.41,2.33,8.08,8.08,0,0,0,6.92-3.1Zm-.1-13.13c0,4.65-.67,8.73-5.43,8.73s-5.47-4.08-5.47-8.73.72-8.68,5.47-8.68S179.09,20.44,179.09,25.09Zm15.19,1.55h17V24.31c0-7.44-4.08-12.61-11.11-12.61-6.72,0-11.11,4.91-11.11,13.39,0,10,5.22,13.43,11.78,13.43a12.3,12.3,0,0,0,9.82-4.08l-3.36-3.15A7.83,7.83,0,0,1,200.94,34c-4.28,0-6.66-2.85-6.66-7.34ZM206.06,23H194.28a8.26,8.26,0,0,1,.72-3.6,5.48,5.48,0,0,1,5.22-3.3,5.41,5.41,0,0,1,5.17,3.3A8.57,8.57,0,0,1,206.06,23Zm28.52-6.35h5.22v-4h-5.22V8.81c0-1.91.93-3.05,2.89-3.05h2.33V1.27h-3.31c-4.91,0-7.19,3.51-7.19,7.28v4h-3v4h3v21.7h5.28Zm29.2,8.57c0-4.39-.62-7.7-3.1-10.28a11.45,11.45,0,0,0-15.66,0c-2.48,2.58-3.1,5.89-3.1,10.28s.62,7.76,3.1,10.34a11.45,11.45,0,0,0,15.66,0c2.48-2.56,3.1-5.92,3.1-10.37Zm-5.27,0c0,2.85-.2,5.58-1.81,7.19a5.42,5.42,0,0,1-7.7,0c-1.6-1.61-1.81-4.34-1.81-7.19S247.4,19.61,249,18a5.25,5.25,0,0,1,3.83-1.5A5.36,5.36,0,0,1,256.7,18c1.61,1.61,1.81,4.35,1.81,7.19Zm27.9-10.9a8.12,8.12,0,0,0-6.25-2.48,8.7,8.7,0,0,0-7,3.15V12.12H268v26.2h5.27V22.4c0-3.61,2.38-5.89,5.22-5.89a4.84,4.84,0,0,1,3.93,1.76ZM140,84.35l-8.47-16.28a9.67,9.67,0,0,0,7.34-9.76c0-6.26-4.45-10.75-11.43-10.75H113.21V84.35h5.58V68.85h7l7.75,15.5Zm-6.72-26c0,3.62-2.53,5.74-6.25,5.74h-8.27V52.57H127c3.75,0,6.28,2.17,6.28,5.79Zm31.94,12.87c0-4.4-.62-7.7-3.11-10.29a11.43,11.43,0,0,0-15.65,0c-2.48,2.59-3.1,5.89-3.1,10.29s.62,7.75,3.1,10.33a10.44,10.44,0,0,0,7.8,3.1,10.57,10.57,0,0,0,7.85-3.1c2.52-2.55,3.14-5.88,3.14-10.32Zm-5.27,0c0,2.84-.21,5.58-1.81,7.18a5.4,5.4,0,0,1-3.85,1.6,5.22,5.22,0,0,1-3.82-1.55c-1.61-1.6-1.81-4.34-1.81-7.18s.2-5.58,1.81-7.19a5.2,5.2,0,0,1,3.82-1.49A5.34,5.34,0,0,1,158.17,64c1.6,1.65,1.83,4.38,1.83,7.23ZM202.5,84.35h5.27V67.61A9.69,9.69,0,0,0,205,60.22a9.49,9.49,0,0,0-6.61-2.38,10,10,0,0,0-8.22,3.83,8.33,8.33,0,0,0-7.44-3.83,9.53,9.53,0,0,0-7,2.95V58.15h-5.17v26.2h5.28v-16c0-4,2.48-5.83,5.42-5.83s5.27,1.75,5.27,5.83v16h5.27V68.13a5.19,5.19,0,0,1,4.78-5.57h0a3.53,3.53,0,0,1,.65,0c3,0,5.27,1.75,5.27,5.83v16Zm26.82,0h5.17V66.83c0-5.94-3.62-9-10.8-9-4.34,0-6.93.88-9.41,3.77l3.46,3.26c1.45-1.86,2.85-2.53,5.74-2.53,4.08,0,5.74,1.6,5.74,4.91V69.1h-6.93c-6,0-9,3.15-9,7.54a8,8,0,0,0,2.07,5.64c1.6,1.6,3.77,2.37,7,2.37s5.07-.77,7-2.68v2.37Zm-.1-11.57V74.9c0,1.86-.37,3.1-1.14,3.87-1.4,1.34-2.89,1.5-4.91,1.5-3.31,0-4.81-1.34-4.81-3.72s1.61-3.77,4.71-3.77Zm27.54,11.57H262V67.61c0-3-.62-5.43-2.64-7.39a9.07,9.07,0,0,0-6.46-2.38,9.35,9.35,0,0,0-7,2.95V58.15h-5.17v26.2H246v-16c0-4,2.48-5.83,5.43-5.83s5.27,1.75,5.27,5.83v16Zm11.41-33.07h5.58V45.69h-5.58Zm.16,33.07h5.27V58.15h-5.27Zm26.5,0H300V66.83c0-5.94-3.62-9-10.8-9-4.34,0-6.93.88-9.41,3.77l3.47,3.26c1.44-1.86,2.84-2.53,5.73-2.53,4.09,0,5.74,1.6,5.74,4.91V69.1H287.8c-6,0-9,3.15-9,7.54a8,8,0,0,0,2.07,5.64c1.6,1.6,3.77,2.37,7,2.37s5.06-.77,7-2.68v2.37Zm-.1-11.57V74.9c0,1.86-.36,3.1-1.14,3.87-1.39,1.34-2.89,1.5-4.91,1.5-3.3,0-4.8-1.34-4.8-3.72s1.6-3.77,4.7-3.77Z"/><polygon points="94.82 42.66 71 2.89 50.89 0.34 50.87 0.34 50.65 40.7 94.82 42.66" fill="#f2f2ff"/><polygon points="50.65 40.7 50.38 84 73.13 82.35 94.93 42.89 94.82 42.66 50.65 40.7" fill="#dad9fe"/><polygon points="50.65 40.7 50.87 0.34 29.86 2.89 5.58 42.62 50.65 40.7" fill="#dad9fe"/><polygon points="5.58 42.62 5.45 42.89 27.72 82.35 50.36 84 50.38 84 50.65 40.7 5.58 42.62" fill="#b5b3fe"/><path d="M35.1,2.24,10.73,42.41,32.89,82.72l-11.25-.79L0,43.26,23.2,3.73ZM77.93,4,65.82,2.23,89.5,42.47,68.23,82.78l11.28-.84L100.09,42.5Z" fill="#00f"/></svg>
