<?xml version="1.0" encoding="utf-8"?>
<!-- Generator: Adobe Illustrator 21.1.0, SVG Export Plug-In . SVG Version: 6.00 Build 0)  -->
<svg version="1.1" id="Layer_1" xmlns="http://www.w3.org/2000/svg" xmlns:xlink="http://www.w3.org/1999/xlink" x="0px" y="0px"
	 viewBox="0 0 1000 564.9" style="enable-background:new 0 0 1000 564.9;" xml:space="preserve">
<style type="text/css">
	.st0{fill:#FFFFFF;}
	.st1{fill:#33A3FF;}
	.st2{fill:#0000FF;}
</style>
<g>
	<path class="st0" d="M772.1,123.2c-0.2,2.7-0.4,5.3-0.6,8l-0.1,1.7c-1.8,21.8-4.7,43.8-8.4,65.3c-0.4,2.6-0.9,5.1-1.4,7.6l-0.3,1.4
		c-2.9,15.5-6.4,31.1-10.4,46.4c-18.8,71.6-47.6,132.9-85.8,182.1c-43.3,55.7-98.8,95.7-165.1,118.9
		c-66.4-23.2-121.9-63.2-165.1-118.9c-38.2-49.2-67-110.5-85.8-182.1c-4-15.2-7.5-30.8-10.4-46.4c-0.6-3-1.1-6-1.6-9
		c-3.8-21.5-6.6-43.6-8.4-65.4l-0.1-0.9c-0.2-2.9-0.5-5.8-0.7-8.6c-1.5-21.1-2-42.9-1.5-61.8L500,10.1l273.5,51.3
		C774.1,80.3,773.6,102,772.1,123.2"/>
	<path class="st1" d="M1000,65.4c-4,25.2-12.3,43.9-20.9,57.6c-31.7,50.6-95,77.5-171.7,78.7c3.6-20,6.7-41.8,8.7-65.3
		c1.5-16.5,2.3-32.3,2.6-47.3c46.7,0,98.6-4.5,153.7-17C981.8,70.1,991,67.8,1000,65.4"/>
	<path class="st1" d="M925.7,203.9c-1.2,26.1-8.8,42.9-16,53.6c-22.8,34-70.1,50.3-128.7,45.9c4.2-12.1,8.2-24.9,12-38.5
		c5-18,9-35.2,12.1-51.3c31.5,1.4,66.2-0.1,103.2-6.4C914.2,206.2,920,205.1,925.7,203.9"/>
	<path class="st1" d="M861.9,311.8c-7.5,13.9-22,35.6-47.2,50.1c-19.6,11.2-41.9,15.9-64.8,14.5c10.3-20.1,19.1-40.6,26.7-61.1
		c9,0.9,18.5,1.4,28.2,1.4C826,316.9,845.2,314.8,861.9,311.8"/>
	<path class="st1" d="M0,65.4c4,25.2,12.3,43.9,20.9,57.6c31.7,50.6,95,77.5,171.7,78.7c-3.6-20-6.7-41.8-8.7-65.3
		c-1.5-16.5-2.3-32.3-2.6-47.3c-46.7,0-98.6-4.5-153.7-17C18.2,70.1,9,67.8,0,65.4"/>
	<path class="st1" d="M74.3,203.9c1.2,26.1,8.8,42.9,16,53.6c22.8,34,70.1,50.3,128.7,45.9c-4.2-12.1-8.2-24.9-12-38.5
		c-5-18-9-35.2-12.1-51.3c-31.5,1.4-66.2-0.1-103.2-6.4C85.8,206.2,80,205.1,74.3,203.9"/>
	<path class="st1" d="M138.1,311.8c7.5,13.9,22,35.6,47.2,50.1c19.6,11.2,41.9,15.9,64.8,14.5c-10.3-20.1-19.1-40.6-26.7-61.1
		c-9.1,0.9-18.5,1.4-28.2,1.4C174,316.9,154.8,314.8,138.1,311.8"/>
	<path class="st2" d="M783.4,57.1c-0.1-2.3-1.8-4.3-4.1-4.7L500.9,0.1c-0.6-0.1-1.2-0.1-1.8,0L220.7,52.4c-2.3,0.4-4,2.4-4.1,4.7
		c-0.7,20.1-0.2,43.9,1.4,66.9c0.2,2.9,0.4,5.8,0.7,8.7l0.1,0.9c1.9,22.2,4.7,44.6,8.6,66.4c0.5,3,1.1,6,1.7,9.1
		c3,15.8,6.5,31.7,10.5,47.1c19.1,73,48.6,135.5,87.6,185.7c44.8,57.7,102.4,99.1,171.4,122.9c0.5,0.2,1.1,0.3,1.6,0.3
		s1.1-0.1,1.6-0.3c68.9-23.8,126.6-65.1,171.4-122.8c39-50.2,68.5-112.7,87.6-185.7c4.1-15.5,7.6-31.4,10.6-47.1l0.3-1.4
		c0.5-2.5,0.9-5.1,1.4-7.7c3.8-21.8,6.7-44,8.5-66.2l0.1-1.7c0.2-2.7,0.4-5.4,0.6-8.1C783.7,100.9,784.1,77.2,783.4,57.1
		 M772.1,123.2c-0.2,2.7-0.4,5.3-0.6,8l-0.1,1.7c-1.8,21.8-4.7,43.8-8.4,65.3c-0.4,2.6-0.9,5.1-1.4,7.6l-0.3,1.4
		c-2.9,15.5-6.4,31.1-10.4,46.4c-18.8,71.6-47.6,132.9-85.8,182.1c-43.3,55.7-98.8,95.7-165.1,118.9
		c-66.4-23.2-121.9-63.2-165.1-118.9c-38.2-49.2-67-110.5-85.8-182.1c-4-15.2-7.5-30.8-10.4-46.4c-0.6-3-1.1-6-1.6-9
		c-3.8-21.5-6.6-43.6-8.4-65.4l-0.1-0.9c-0.2-2.9-0.5-5.8-0.7-8.6c-1.5-21.1-2-42.9-1.5-61.8L500,10.1l273.5,51.3
		C774.1,80.3,773.6,102,772.1,123.2"/>
	<polygon points="395.9,95.2 376.3,95.2 376.3,83.7 429.8,83.7 429.8,95.2 410.1,95.2 410.1,145 395.9,145 395.9,95.2 	"/>
	<polygon points="484.9,133.6 484.9,145 437.4,145 437.4,83.6 483.8,83.6 483.8,95 451.5,95 451.5,108.3 480,108.3 480,119.4 
		451.5,119.4 451.5,133.6 	"/>
	<path d="M492.4,114.3c0-18.5,14.2-31.7,33.3-31.7c10.6,0,19.5,3.9,25.2,10.9l-9.1,8.4c-4.1-4.7-9.3-7.2-15.4-7.2
		c-11.5,0-19.6,8.1-19.6,19.6c0,11.6,8.2,19.6,19.6,19.6c6.1,0,11.3-2.5,15.4-7.3l9.1,8.4c-5.8,7.1-14.6,11-25.3,11
		C506.6,146.1,492.4,132.8,492.4,114.3"/>
	<polygon points="616.7,83.7 616.7,145 602.5,145 602.5,119.9 574.7,119.9 574.7,145 560.5,145 560.5,83.7 574.7,83.7 574.7,107.8 
		602.5,107.8 602.5,83.7 	"/>
	<polygon points="424.3,180.2 424.3,196.4 452.6,196.4 452.6,207.8 424.3,207.8 424.3,230.2 410.1,230.2 410.1,168.8 456.4,168.8 
		456.4,180.2 	"/>
	<path d="M462.2,199.5c0-18.2,14.2-31.7,33.6-31.7c19.3,0,33.6,13.4,33.6,31.7c0,18.3-14.3,31.7-33.6,31.7
		C476.4,231.2,462.2,217.7,462.2,199.5 M515,199.5c0-11.6-8.2-19.6-19.2-19.6c-10.9,0-19.2,8-19.2,19.6c0,11.6,8.2,19.6,19.2,19.6
		C506.7,219.1,515,211.1,515,199.5"/>
	<path d="M579.1,230.1l-11.8-17.1h-0.7h-12.4v17.1H540v-61.4h26.6c16.4,0,26.7,8.5,26.7,22.3c0,9.2-4.7,15.9-12.6,19.4l13.8,19.7
		H579.1z M565.8,180.4h-11.6v21.4h11.6c8.7,0,13.1-4,13.1-10.7C578.9,184.3,574.5,180.4,565.8,180.4"/>
	<path d="M331,309.2l4.8-10.7c5.2,3.8,12.9,6.4,20.2,6.4c8.4,0,11.8-2.8,11.8-6.6c0-11.5-35.7-3.6-35.7-26.4
		c0-10.4,8.4-19.1,25.9-19.1c7.7,0,15.6,1.8,21.3,5.4l-4.4,10.8c-5.7-3.2-11.6-4.8-17-4.8c-8.4,0-11.6,3.2-11.6,7
		c0,11.3,35.7,3.5,35.7,26c0,10.3-8.5,19-26,19C346.2,316.3,336.4,313.5,331,309.2"/>
	<path d="M387.9,284.6c0-18.2,14.2-31.7,33.6-31.7c19.3,0,33.6,13.4,33.6,31.7c0,18.3-14.3,31.7-33.6,31.7
		C402,316.3,387.9,302.9,387.9,284.6 M440.6,284.6c0-11.6-8.2-19.6-19.2-19.6c-10.9,0-19.2,8-19.2,19.6c0,11.6,8.2,19.6,19.2,19.6
		C432.4,304.2,440.6,296.3,440.6,284.6"/>
	<path d="M461.8,284.6c0-18.5,14.2-31.7,33.3-31.7c10.6,0,19.5,3.9,25.2,10.9l-9.1,8.4c-4.1-4.7-9.3-7.2-15.4-7.2
		c-11.5,0-19.6,8.1-19.6,19.6c0,11.6,8.2,19.6,19.6,19.6c6.1,0,11.3-2.5,15.4-7.3l9.1,8.4c-5.8,7.1-14.6,11-25.3,11
		C476,316.3,461.8,303.1,461.8,284.6"/>
	<rect x="529.9" y="253.9" width="14.2" height="61.4"/>
	<path d="M599.1,302.2h-28.5l-5.4,13.1h-14.5l27.4-61.4h14l27.4,61.4h-14.9L599.1,302.2z M594.6,291.4l-9.7-23.5l-9.7,23.5H594.6z"
		/>
	<polygon points="625.8,253.9 640,253.9 640,303.7 670.8,303.7 670.8,315.3 625.8,315.3 625.8,253.9 	"/>
	<path d="M427,369.8c0-18.2,14.2-31.7,33.6-31.7c19.3,0,33.6,13.4,33.6,31.7s-14.3,31.7-33.6,31.7C441.2,401.5,427,388,427,369.8
		 M479.8,369.8c0-11.6-8.2-19.6-19.2-19.6c-10.9,0-19.2,8-19.2,19.6c0,11.6,8.2,19.6,19.2,19.6S479.8,381.4,479.8,369.8"/>
	<path d="M501,369.8c0-18.2,14.2-31.7,33.6-31.7c19.3,0,33.6,13.4,33.6,31.7s-14.3,31.7-33.6,31.7C515.2,401.5,501,388,501,369.8
		 M553.8,369.8c0-11.6-8.2-19.6-19.2-19.6c-10.9,0-19.2,8-19.2,19.6c0,11.6,8.2,19.6,19.2,19.6S553.8,381.4,553.8,369.8"/>
	<path d="M578.8,339.1h27.9c20.1,0,33.8,12.1,33.8,30.7c0,18.6-13.8,30.7-33.8,30.7h-27.9V339.1z M606,388.8
		c12.2,0,20.2-7.3,20.2-19c0-11.7-8-19-20.2-19h-13v38H606z"/>
	<path d="M417.7,368.8v31.6H407v-3.7c-4.4,3.2-10,4.7-16.5,4.7c-16.7,0-31.1-11-31.1-31.2c0-19,14.2-32.2,33.7-32.2
		c10.8,0,19.7,3.7,25.7,10.6l-9.1,8.4c-4.5-4.7-9.6-6.9-15.9-6.9c-11.9,0-20.1,8-20.1,20.1c0,13,8.7,19.5,18.4,19.5
		c4.7,0,9-1.3,12.5-4.2v-5.9h-12v-10.8H417.7z"/>
</g>
</svg>
