<svg xmlns="http://www.w3.org/2000/svg" viewBox="0 0 300 169.5"><path d="M231.6,37c0,.8-.1,1.5-.1,2.4v.5c-.5,6.5-1.4,13.1-2.5,19.6-.1.7-.3,1.5-.4,2.2v.5c-.9,4.6-1.9,9.3-3.1,13.9-5.7,21.5-14.3,39.8-25.8,54.6A106.5,106.5,0,0,1,150,166.4a106,106,0,0,1-49.5-35.7C89,115.9,80.4,97.6,74.7,76.1c-1.2-4.6-2.2-9.3-3.1-13.9-.2-.9-.3-1.8-.5-2.7-1.1-6.5-2-13.1-2.5-19.7v-.2a24.6,24.6,0,0,1-.2-2.6c-.5-6.3-.6-12.9-.5-18.6L150,3l82.1,15.4c.1,5.7,0,12.2-.5,18.6" fill="#fff"/><path d="M300,19.6a44.9,44.9,0,0,1-6.3,17.3c-9.5,15.2-28.5,23.2-51.5,23.6,1.1-6,2-12.5,2.6-19.6.5-4.9.7-9.7.8-14.2a205,205,0,0,0,46.1-5.1l8.3-2M277.7,61.2c-.3,7.8-2.6,12.8-4.8,16-6.8,10.2-21,15.1-38.6,13.8,1.3-3.6,2.5-7.5,3.6-11.5s2.7-10.6,3.6-15.4a153.4,153.4,0,0,0,31-1.9l5.2-1M258.6,93.5a38.5,38.5,0,0,1-14.2,15.1,35.3,35.3,0,0,1-19.4,4.3,172.1,172.1,0,0,0,8-18.3,76.3,76.3,0,0,0,8.4.4,88.8,88.8,0,0,0,17.2-1.5M0,19.6A44.9,44.9,0,0,0,6.3,36.9c9.5,15.2,28.5,23.2,51.5,23.6-1.1-6-2-12.5-2.6-19.6-.5-4.9-.7-9.7-.8-14.2A205,205,0,0,1,8.3,21.6L0,19.6M22.3,61.2c.4,7.8,2.6,12.8,4.8,16,6.8,10.2,21,15.1,38.6,13.8-1.3-3.6-2.5-7.5-3.6-11.5s-2.7-10.6-3.6-15.4a153.4,153.4,0,0,1-31-1.9l-5.2-1M41.4,93.5a38.5,38.5,0,0,0,14.2,15.1A35.3,35.3,0,0,0,75,112.9a172.1,172.1,0,0,1-8-18.3,76.3,76.3,0,0,1-8.4.4,88.8,88.8,0,0,1-17.2-1.5" fill="#33a3ff"/><path d="M235,17.1a1.4,1.4,0,0,0-1.2-1.4L150.3,0h-.6L66.2,15.7A1.4,1.4,0,0,0,65,17.1a200.2,200.2,0,0,0,.6,23c4.4,55,29.6,111.3,84,129.3a.7.7,0,0,0,.9,0c46.4-15.4,72.2-58.9,80.9-106.6a194.7,194.7,0,0,0,3.1-22.6,201.7,201.7,0,0,0,.5-23.1M231.6,37c0,.9-.1,1.9-.2,2.9-.5,6.5-1.4,13.1-2.5,19.6a25.6,25.6,0,0,1-.5,2.7c-8.5,46.5-33.4,88.9-78.4,104.2C97.3,148.8,72.7,93.2,68.6,39.8v-.2a191.6,191.6,0,0,1-.7-21.2L150,3l82.1,15.4c.1,5.7,0,12.2-.5,18.6" fill="blue"/><path d="M118.8,28.6h-5.9V25.1h16v3.5H123V43.5h-4.2Zm26.7,11.5v3.4H131.2V25.1h13.9v3.4h-9.6v4H144v3.3h-8.5v4.3Zm2.2-5.8c0-5.6,4.3-9.5,10-9.5a9.5,9.5,0,0,1,7.6,3.2l-2.8,2.6a5.8,5.8,0,0,0-4.6-2.2,5.7,5.7,0,0,0-5.9,5.9,5.7,5.7,0,0,0,5.9,5.9,5.8,5.8,0,0,0,4.6-2.2l2.8,2.5a9.7,9.7,0,0,1-7.6,3.3c-5.7,0-10-4-10-9.5M185,25.1V43.5h-4.2V36h-8.4v7.5h-4.2V25.1h4.2v7.2h8.4V25.1Zm-57.7,29v4.8h8.5v3.4h-8.5v6.8H123V50.6h13.9v3.5Zm11.4,5.7c0-5.4,4.2-9.5,10-9.5s10.1,4.1,10.1,9.5-4.3,9.6-10.1,9.6-10-4.1-10-9.6m15.8,0a5.8,5.8,0,1,0-5.8,5.9,5.6,5.6,0,0,0,5.8-5.9M173.7,69l-3.5-5.1h-3.9V69H162V50.6h8c4.9,0,8,2.6,8,6.7a5.9,5.9,0,0,1-3.8,5.8l4.2,5.9Zm-4-14.9h-3.4v6.4h3.4c2.7,0,4-1.2,4-3.2s-1.3-3.2-4-3.2M99.3,92.8l1.4-3.3a10.6,10.6,0,0,0,6.1,2c2.5,0,3.5-.9,3.5-2,0-3.5-10.7-1.1-10.7-7.9,0-3.2,2.5-5.8,7.8-5.8a12.2,12.2,0,0,1,6.4,1.7l-1.3,3.2a10.1,10.1,0,0,0-5.1-1.4c-2.6,0-3.5.9-3.5,2.1,0,3.3,10.7,1,10.7,7.8,0,3-2.6,5.7-7.8,5.7a13.6,13.6,0,0,1-7.5-2.1m17.1-7.4c0-5.5,4.2-9.5,10.1-9.5s10,4,10,9.5-4.3,9.5-10,9.5-10.1-4-10.1-9.5m15.8,0a5.8,5.8,0,1,0-11.5,0,5.6,5.6,0,0,0,5.7,5.9,5.6,5.6,0,0,0,5.8-5.9m6.3,0c0-5.6,4.3-9.5,10-9.5a9.5,9.5,0,0,1,7.6,3.2l-2.7,2.6a5.9,5.9,0,0,0-4.7-2.2,5.9,5.9,0,0,0,0,11.8,6.2,6.2,0,0,0,4.7-2.2l2.7,2.5a9.5,9.5,0,0,1-7.6,3.3c-5.7,0-10-4-10-9.5M159,76.2h4.2V94.6H159Zm20.7,14.5h-8.5l-1.6,3.9h-4.4l8.2-18.4h4.2l8.3,18.4h-4.5Zm-1.3-3.3-2.9-7-2.9,7Zm9.3-11.2H192V91.1h9.2v3.5H187.7Zm-59.6,34.7c0-5.4,4.3-9.5,10.1-9.5s10.1,4,10.1,9.5-4.3,9.5-10.1,9.5-10.1-4-10.1-9.5m15.8,0a5.5,5.5,0,0,0-5.7-5.8,5.9,5.9,0,1,0,5.7,5.8m6.4,0c0-5.4,4.3-9.5,10.1-9.5s10.1,4,10.1,9.5-4.3,9.5-10.1,9.5-10.1-4-10.1-9.5m15.8,0a5.5,5.5,0,0,0-5.7-5.8,5.9,5.9,0,1,0,5.7,5.8m7.5-9.2H182c6,0,10.2,3.7,10.2,9.2s-4.2,9.2-10.2,9.2h-8.4Zm8.2,14.9c3.7,0,6.1-2.2,6.1-5.7s-2.4-5.7-6.1-5.7h-3.9v11.4Zm-56.5-6v9.5h-3.2V119a7.9,7.9,0,0,1-4.9,1.4c-5.1,0-9.4-3.3-9.4-9.3s4.3-9.7,10.1-9.7a9.7,9.7,0,0,1,7.7,3.2l-2.7,2.5a6.3,6.3,0,0,0-4.8-2.1,5.7,5.7,0,0,0-6,6.1c0,3.9,2.6,5.8,5.5,5.8a5.8,5.8,0,0,0,3.8-1.3v-1.7h-3.6v-3.3Z"/></svg>