<svg xmlns="http://www.w3.org/2000/svg" width="1100" height="665" viewBox="0 0 1100 665"><path d="M833.39,107.13a5.0085,5.0085,0,0,0-4.07-4.73L550.92,50.13a4.7472,4.7472,0,0,0-1.84,0L270.68,102.4a5.048,5.048,0,0,0-4.09,4.73,659.04,659.04,0,0,0,1.36,66.86c.2,2.87.42,5.77.66,8.67l.06.92c1.86,22.21,4.73,44.55,8.55,66.39.52,3,1.1,6.01,1.68,9.07,2.95,15.84,6.51,31.69,10.53,47.09,19.1,72.97,48.55,135.46,87.55,185.71,44.77,57.74,102.43,99.06,171.38,122.86a5.3023,5.3023,0,0,0,3.28,0c68.91-23.76,126.57-65.08,171.38-122.84,39-50.25,68.45-112.74,87.55-185.71,4.06-15.52,7.62-31.39,10.57-47.13l.26-1.44c.46-2.54.94-5.07,1.4-7.67,3.82-21.76,6.67-44.04,8.53-66.23l.12-1.66c.22-2.74.44-5.42.62-8.13A645.34,645.34,0,0,0,833.39,107.13Zm-31.26,64.68c-.11,1.72-.24,3.37-.37,5.01l-.21,2.8-.14,1.64c-1.76,21.17-4.51,42.53-8.18,63.46-.31,1.79-.62,3.49-.94,5.19l-.66,3.64c-2.83,15.06-6.23,30.2-10.1,45.01-18.07,69.03-45.74,127.88-82.22,174.91-39.4,50.75-89.6,87.71-149.31,109.92-59.73-22.23-109.93-59.19-149.31-109.94-36.49-47.04-64.15-105.89-82.21-174.92-3.84-14.69-7.24-29.84-10.1-45.04-.51-2.68-1.03-5.51-1.59-8.72-3.66-20.86-6.41-42.2-8.19-63.44l-.07-1.07c-.23-2.84-.45-5.62-.64-8.38-1.02-14.56-1.57-29.62-1.61-43.74L550,80.51l253.73,47.63C803.7,142.19,803.15,157.23,802.13,171.81Z" fill="blue"/><path d="M1050,115.3947c-4.0359,25.2143-12.3474,43.8952-20.9386,57.6212-31.7477,50.6084-95.0232,77.481-171.7049,78.72,3.614-20.04,6.6761-41.8478,8.7311-65.2535,1.45-16.5158,2.2644-32.2976,2.5973-47.2517a691.88,691.88,0,0,0,153.69-16.9692Q1036.5254,119.0563,1050,115.3947Z" fill="#33a3ff"/><path d="M975.6758,253.9333c-1.1987,26.0934-8.811,42.8964-15.9837,53.6254-22.7568,34.0452-70.0686,50.2687-128.7287,45.9131,4.1676-12.0737,8.2076-24.9025,11.9878-38.4607,5.0206-18.0072,8.9947-35.19,12.1476-51.3477a483.4134,483.4134,0,0,0,103.1557-6.4075Q967.1414,255.7319,975.6758,253.9333Z" fill="#33a3ff"/><path d="M911.9009,361.8433c-7.4724,13.9259-21.9576,35.6037-47.152,50.0889-19.6,11.2486-41.8972,15.9437-64.7739,14.5451A567.5967,567.5967,0,0,0,826.7077,365.36c9.0509.8591,18.4612,1.3586,28.2112,1.4186A314.3178,314.3178,0,0,0,911.9009,361.8433Z" fill="#33a3ff"/><path d="M50,115.3947c4.0359,25.2143,12.3474,43.8952,20.9386,57.6212,31.7477,50.6084,95.0232,77.481,171.7049,78.72-3.614-20.04-6.6761-41.8478-8.7311-65.2535-1.45-16.5158-2.2644-32.2976-2.5973-47.2517a691.88,691.88,0,0,1-153.69-16.9692Q63.4747,119.0563,50,115.3947Z" fill="#33a3ff"/><path d="M124.3242,253.9333c1.1987,26.0934,8.811,42.8964,15.9837,53.6254,22.7568,34.0452,70.0686,50.2687,128.7287,45.9131-4.1676-12.0737-8.2076-24.9025-11.9878-38.4607-5.0206-18.0072-8.9947-35.19-12.1476-51.3477a483.4134,483.4134,0,0,1-103.1557-6.4075Q132.8586,255.7319,124.3242,253.9333Z" fill="#33a3ff"/><path d="M188.0991,361.8433c7.4724,13.9259,21.9576,35.6037,47.152,50.0889,19.6,11.2486,41.8972,15.9437,64.7739,14.5451A567.5967,567.5967,0,0,1,273.2923,365.36c-9.0509.8591-18.4612,1.3586-28.2112,1.4186A314.3178,314.3178,0,0,1,188.0991,361.8433Z" fill="#33a3ff"/><path d="M445.9461,145.266h-19.64V133.6978h53.4654V145.266h-19.64v49.7893H445.9262V145.266Z"/><path d="M534.9153,183.6469v11.3884H487.4038V133.6779h46.3726v11.3884H501.5293v13.3264H530.02v11.0487h-28.491v14.2055Z"/><path d="M542.3678,164.3665c0-18.5011,14.2055-31.7276,33.306-31.7276,10.6091,0,19.46,3.856,25.2342,10.8689l-9.1107,8.4114a19.7315,19.7315,0,0,0-15.4242-7.1927c-11.4883,0-19.64,8.0718-19.64,19.64s8.1517,19.64,19.64,19.64a19.56,19.56,0,0,0,15.4242-7.2726l9.1107,8.4114c-5.7941,7.0928-14.6451,10.9489-25.3341,10.9489C556.5733,196.0942,542.3678,182.8677,542.3678,164.3665Z"/><path d="M666.7409,133.6978v61.3574H652.5354V169.9009H624.6638v25.1543H610.4584V133.6978h14.2054v24.1953h27.8716V133.6978Z"/><path d="M474.2572,230.2394v16.2234h28.391v11.3884h-28.391v22.3572H460.0517V218.851h46.3727v11.3884Z"/><path d="M512.2185,249.52c0-18.2214,14.2054-31.7277,33.5657-31.7277,19.28,0,33.5657,13.4063,33.5657,31.7277s-14.2854,31.7276-33.5657,31.7276C526.4239,281.2473,512.2185,267.7411,512.2185,249.52Zm52.7662,0c0-11.6481-8.2316-19.64-19.2-19.64-10.9488,0-19.2,7.9719-19.2,19.64,0,11.6481,8.2316,19.64,19.2,19.64C556.7331,269.14,564.9847,261.1678,564.9847,249.52Z"/><path d="M629.1393,280.1884l-11.8279-17.0825H604.2447v17.0825H590.0392V218.831h26.5529c16.3833,0,26.6529,8.4913,26.6529,22.2573,0,9.2106-4.6553,15.9438-12.6272,19.38l13.766,19.72H629.1393Zm-13.3265-49.7892H604.2446v21.3782h11.5682c8.6712,0,13.0666-4.0359,13.0666-10.6891C628.88,234.3552,624.484,230.3992,615.8128,230.3992Z"/><path d="M380.9524,359.2877l4.8151-10.6891a36.0386,36.0386,0,0,0,20.2394,6.3935c8.4114,0,11.8279-2.7971,11.8279-6.5733,0-11.4883-35.6636-3.5963-35.6636-26.3731,0-10.4294,8.4114-19.1005,25.8536-19.1005,7.7121,0,15.6041,1.8381,21.2983,5.4344l-4.3755,10.789a34.6965,34.6965,0,0,0-17.0027-4.8151c-8.4114,0-11.6481,3.1568-11.6481,7.0129,0,11.3085,35.6636,3.4964,35.6636,26.0334,0,10.25-8.5113,19.0206-26.0334,19.0206C396.2168,366.3805,386.3868,363.5035,380.9524,359.2877Z"/><path d="M437.8543,334.6529c0-18.2214,14.2055-31.7277,33.5658-31.7277,19.28,0,33.5657,13.4063,33.5657,31.7277S490.7,366.3805,471.42,366.3805C452.04,366.3805,437.8543,352.8943,437.8543,334.6529Zm52.7462,0c0-11.6481-8.2316-19.64-19.2-19.64-10.9488,0-19.2,7.9719-19.2,19.64,0,11.6481,8.2316,19.64,19.2,19.64S490.6005,346.321,490.6005,334.6529Z"/><path d="M511.8189,334.6529c0-18.5012,14.2056-31.7277,33.3061-31.7277,10.6091,0,19.46,3.8561,25.2342,10.8689l-9.1107,8.4115a19.7312,19.7312,0,0,0-15.4242-7.1927c-11.4883,0-19.64,8.0718-19.64,19.64s8.1517,19.64,19.64,19.64a19.56,19.56,0,0,0,15.4242-7.2727l9.1107,8.4115c-5.7941,7.0927-14.6451,10.9488-25.3341,10.9488C526.0245,366.3805,511.8189,353.154,511.8189,334.6529Z"/><path d="M579.9294,303.9841h14.2055v61.3574H579.9294Z"/><path d="M649.0789,352.195h-28.491l-5.4344,13.1465H600.6083L627.96,303.9841h14.0257l27.432,61.3574H654.5133Zm-4.4754-10.789-9.73-23.4961-9.73,23.4961Z"/><path d="M675.8116,303.9841h14.2055v49.7893h30.7687v11.5682H675.8316V303.9841Z"/><path d="M477.0144,419.806c0-18.2214,14.2055-31.7276,33.5657-31.7276,19.28,0,33.5658,13.4063,33.5658,31.7276S529.86,451.5337,510.58,451.5337C491.22,451.5337,477.0144,438.0274,477.0144,419.806Zm52.7661,0c0-11.6481-8.2316-19.64-19.2-19.64-10.9488,0-19.2,7.9719-19.2,19.64,0,11.6482,8.2316,19.64,19.2,19.64S529.7805,431.4542,529.7805,419.806Z"/><path d="M550.999,419.806c0-18.2214,14.2055-31.7276,33.5657-31.7276,19.28,0,33.5658,13.4063,33.5658,31.7276s-14.2855,31.7277-33.5658,31.7277C565.2045,451.5337,550.999,438.0274,550.999,419.806Zm52.7661,0c0-11.6481-8.2316-19.64-19.2-19.64-10.9488,0-19.2,7.9719-19.2,19.64,0,11.6482,8.2316,19.64,19.2,19.64S603.7651,431.4542,603.7651,419.806Z"/><path d="M628.84,389.1373h27.8716c20.08,0,33.8255,12.0877,33.8255,30.6687s-13.766,30.6687-33.8255,30.6687H628.84Zm27.1724,49.6894c12.1875,0,20.1595-7.2727,20.1595-19.0207s-7.9719-19.0206-20.1595-19.0206H643.0451v38.0411h12.9668Z"/><path d="M467.7139,418.8452v31.6477H457.0247v-3.6762c-4.3754,3.2367-9.99,4.7351-16.4832,4.7351-16.7428,0-31.1081-11.0487-31.1081-31.2081,0-19.0206,14.2055-32.2471,33.7455-32.2471,10.789,0,19.72,3.6761,25.6739,10.6091l-9.1107,8.4115a20.7836,20.7836,0,0,0-15.8639-6.933c-11.9279,0-20.0795,7.9718-20.0795,20.0795,0,12.9667,8.6711,19.46,18.4012,19.46a19.2752,19.2752,0,0,0,12.5272-4.2156v-5.8741H442.7594V418.8452Z"/></svg>