<svg xmlns="http://www.w3.org/2000/svg" viewBox="0 0 118.38 108" width="118.38" height="108"><polygon points="91.55 4.82 26.84 4.82 0.1 54.16 24.91 104.76 93.47 104.76 118.28 54.16 91.55 4.82" fill="#5e6d69"/><line x1="67.26" y1="83.16" x2="63.22" y2="87.21" fill="none" stroke="#fff" stroke-linecap="round" stroke-linejoin="round" stroke-width="1.36"/><line x1="67.14" y1="87.08" x2="63.34" y2="83.29" fill="none" stroke="#fff" stroke-linecap="round" stroke-linejoin="round" stroke-width="1.36"/><line x1="36.86" y1="36.52" x2="32.81" y2="40.57" fill="none" stroke="#fff" stroke-linecap="round" stroke-linejoin="round" stroke-width="1.36"/><line x1="36.73" y1="40.44" x2="32.94" y2="36.65" fill="none" stroke="#fff" stroke-linecap="round" stroke-linejoin="round" stroke-width="1.36"/><line x1="65.86" y1="22.16" x2="61.81" y2="26.2" fill="none" stroke="#fff" stroke-linecap="round" stroke-linejoin="round" stroke-width="1.36"/><line x1="65.73" y1="26.08" x2="61.94" y2="22.28" fill="none" stroke="#fff" stroke-linecap="round" stroke-linejoin="round" stroke-width="1.36"/><path d="M59.19,12.1l24.74,3.64,21,38.74-19.13,39L59.19,95.64,32.61,93.5l-19.14-39,21-38.74L59.19,12.1m0-12.1L26.78,4.77,0,54.2l24.86,50.68,34.33,2.78,34.34-2.78L118.38,54.2,91.6,4.77,59.19,0Z" fill="#d3d5d4"/><path d="M40.56,7.19l.12.84s-.64.05-1,.11c-.77.14-1,.57-.79,1.47s.51,1.34,1.31,1.19c.32-.06.93-.24.93-.24l.18.82a8.77,8.77,0,0,1-1.24.36C38.88,12,38.24,11.33,38,9.8s.14-2.28,1.34-2.51A7.5,7.5,0,0,1,40.56,7.19Z" fill="#5e6d69"/><path d="M45.45,8.55c.2,1.29-.07,2.32-1.53,2.54s-2-.65-2.23-2,.1-2.29,1.55-2.51S45.26,7.27,45.45,8.55Zm-1,.15c-.13-.81-.4-1.33-1.09-1.23s-.81.67-.69,1.5.37,1.39,1.11,1.27S44.59,9.52,44.46,8.7Z" fill="#5e6d69"/><path d="M50.15,10.2l-1,.11,0-.19a2.57,2.57,0,0,1-1,.4c-1.18.14-1.7-.69-1.86-2.09s.37-2.3,1.51-2.42a5.71,5.71,0,0,1,.89,0l-.2-1.79,1-.11Zm-1.1-.89-.27-2.44a3.85,3.85,0,0,0-.82,0c-.55.06-.78.58-.68,1.46s.35,1.36.91,1.3A2.57,2.57,0,0,0,49.05,9.31Z" fill="#5e6d69"/><path d="M54.53,9l.07.73a7.53,7.53,0,0,1-1.63.33c-1.34.09-1.9-.64-2-2.08s.47-2.35,1.67-2.44,1.86.6,1.94,1.85l0,.7L52,8.29c0,.57.32,1,1,.92S54.53,9,54.53,9Zm-.93-1.6c-.05-.71-.3-1.07-.9-1s-.81.46-.77,1.15Z" fill="#5e6d69"/><path d="M57.76,8.78l-2.49.07,0-.81,1.42-4,1.11,0L56.41,7.88l1.32,0,0-1.61,1,0,0,1.61.58,0,0,1h-.58l0,1-1,0Z" fill="#5e6d69"/><path d="M62.6,3.75c1,0,1.81.48,1.79,1.54a1.37,1.37,0,0,1-.72,1.4,1.28,1.28,0,0,1,.8,1.4c0,1.19-.83,1.68-1.93,1.66L60.32,9.7l.11-6ZM61.37,7.14l0,1.67,1.17,0A.8.8,0,0,0,63.42,8a.83.83,0,0,0-.89-.83Zm.05-2.51,0,1.63,1.13,0a.77.77,0,0,0,.82-.85.73.73,0,0,0-.81-.78Z" fill="#5e6d69"/><path d="M68.73,8.87c0,.31.12.39.37.47l-.12.83a1.78,1.78,0,0,1-1.14-.38,3.2,3.2,0,0,1-1.29.21,1.3,1.3,0,0,1-1.23-1.47c.06-.89.65-1.22,1.51-1.22l1,0,0-.28c0-.36-.14-.55-.47-.57-.78-.06-1.68,0-1.68,0l0-.82a15.73,15.73,0,0,1,1.77-.06c.93.06,1.41.5,1.34,1.56ZM66.89,8a.53.53,0,0,0-.57.55c0,.35.14.59.43.61a3.54,3.54,0,0,0,1-.11l.07-1Z" fill="#5e6d69"/><path d="M73.21,6.21,73.08,7s-.62-.14-1-.17c-.78-.09-1.09.26-1.19,1.18s.1,1.43.9,1.52c.33,0,1,0,1,0l-.07.84a8.17,8.17,0,0,1-1.3,0c-1.24-.14-1.67-.94-1.5-2.49s.81-2.14,2-2A7.64,7.64,0,0,1,73.21,6.21Z" fill="#5e6d69"/><path d="M77,9.92a.43.43,0,0,0,.33.5l-.19.81A1.74,1.74,0,0,1,76,10.75a3.18,3.18,0,0,1-1.3.11,1.31,1.31,0,0,1-1.09-1.58c.13-.88.75-1.15,1.6-1.08l1,.07,0-.27a.47.47,0,0,0-.41-.62c-.77-.12-1.68-.17-1.68-.17l.09-.81a14.46,14.46,0,0,1,1.78.09,1.27,1.27,0,0,1,1.2,1.67Zm-1.75-1a.53.53,0,0,0-.62.5.51.51,0,0,0,.37.65,3.4,3.4,0,0,0,1,0l.17-1Z" fill="#5e6d69"/><path d="M82.41,7.79,81.54,12l-1-.2,0-.21a3,3,0,0,1-1.13.08c-1.09-.22-1.3-.94-1-2.41l.46-2.21,1,.2-.46,2.21c-.18.88-.14,1.29.4,1.41a3,3,0,0,0,.92,0l.67-3.26Z" fill="#5e6d69"/><polygon points="51.02 70.38 48.16 59.84 35.49 59.84 32.53 70.38 51.02 70.38" fill="none" stroke="#fff" stroke-linecap="round" stroke-linejoin="round" stroke-width="1.32"/><line x1="56.2" y1="66.94" x2="50.99" y2="70.32" fill="none" stroke="#fff" stroke-linecap="round" stroke-linejoin="round" stroke-width="1.32"/><line x1="46.63" y1="52.51" x2="35.49" y2="59.84" fill="none" stroke="#fff" stroke-linecap="round" stroke-linejoin="round" stroke-width="1.32"/><polygon points="73.73 70.38 70.86 59.84 58.19 59.84 55.23 70.38 73.73 70.38" fill="none" stroke="#fff" stroke-linecap="round" stroke-linejoin="round" stroke-width="1.32"/><polyline points="90.75 59.19 87.88 48.65 80.3 48.65" fill="none" stroke="#fff" stroke-linecap="round" stroke-linejoin="round" stroke-width="1.32"/><line x1="70.86" y1="59.84" x2="87.88" y2="48.65" fill="none" stroke="#fff" stroke-linecap="round" stroke-linejoin="round" stroke-width="1.32"/><line x1="90.78" y1="59.24" x2="73.69" y2="70.32" fill="none" stroke="#fff" stroke-linecap="round" stroke-linejoin="round" stroke-width="1.32"/><polyline points="83.67 55.13 86.45 53.19 87.19 56.33" fill="none" stroke="#fff" stroke-linecap="round" stroke-linejoin="round" stroke-width="1.32"/><polygon points="63.28 59.84 60.41 49.29 47.74 49.29 44.78 59.84 63.28 59.84" fill="none" stroke="#fff" stroke-linecap="round" stroke-linejoin="round" stroke-width="1.32"/><polyline points="80.3 48.65 77.43 38.1 64.76 38.1" fill="none" stroke="#fff" stroke-linecap="round" stroke-linejoin="round" stroke-width="1.32"/><line x1="60.41" y1="49.29" x2="77.43" y2="38.1" fill="none" stroke="#fff" stroke-linecap="round" stroke-linejoin="round" stroke-width="1.32"/><line x1="80.33" y1="48.7" x2="63.24" y2="59.78" fill="none" stroke="#fff" stroke-linecap="round" stroke-linejoin="round" stroke-width="1.32"/><line x1="64.76" y1="38.1" x2="47.74" y2="49.29" fill="none" stroke="#fff" stroke-linecap="round" stroke-linejoin="round" stroke-width="1.32"/><polyline points="73.22 44.59 76 42.65 76.74 45.79" fill="none" stroke="#fff" stroke-linecap="round" stroke-linejoin="round" stroke-width="1.32"/></svg>
