<svg xmlns="http://www.w3.org/2000/svg" viewBox="0 0 118.38 108" width="118.38" height="108"><polygon points="91.6 4.94 59.19 0.17 26.78 4.94 0 54.38 24.86 105.06 59.19 107.83 93.53 105.06 118.38 54.38 91.6 4.94" fill="#646666"/><path d="M59.19,12.45l24.62,3.63,20.9,38.57-19,38.85L59.19,95.64,32.72,93.5l-19-38.85,20.9-38.57,24.62-3.63m0-12.28L26.78,4.94,0,54.38l24.86,50.68,34.33,2.77,34.34-2.77,24.85-50.68L91.6,4.94,59.19.17Z" fill="#c0bfbf"/><path d="M79.07,57.4l-1.74,5.38a7.44,7.44,0,0,1-7.12,5h-22a7.44,7.44,0,0,1-7.12-5L39.32,57.4a21.38,21.38,0,0,1-1-6.95V39.61C38.36,29,51,20.52,59.19,20.52,67.62,20.52,80,29,80,39.61V50.45A21.37,21.37,0,0,1,79.07,57.4ZM43.75,77.27V73.8h3.47V70.33h3.47V73.8h17V70.33h3.47V73.8h3.47v3.47ZM57.46,33a1.74,1.74,0,0,0-1.74-1.73H49.13c-2.43,0-6.69,7.89-6.69,10.59a2,2,0,0,0,2,1.73H55.72a1.74,1.74,0,0,0,1.74-1.73ZM48.17,53.32a4.08,4.08,0,1,0,4.08,4.08A4.07,4.07,0,0,0,48.17,53.32Zm21.09-22h-6.6A1.74,1.74,0,0,0,60.93,33v8.86a1.74,1.74,0,0,0,1.73,1.73H74a2,2,0,0,0,2-1.73C75.94,39.17,71.69,31.28,69.26,31.28Zm.95,22a4.08,4.08,0,1,0,4.08,4.08A4.08,4.08,0,0,0,70.21,53.32Z" fill="none" stroke="#fff" stroke-linecap="round" stroke-linejoin="round" stroke-width="1.39"/><line x1="43.75" y1="77.27" x2="28.34" y2="83.46" fill="none" stroke="#fff" stroke-linecap="round" stroke-linejoin="round" stroke-width="1.39"/><line x1="89.79" y1="83.46" x2="74.64" y2="77.27" fill="none" stroke="#fff" stroke-linecap="round" stroke-linejoin="round" stroke-width="1.39"/><line x1="45.41" y1="83.46" x2="72.77" y2="83.46" fill="none" stroke="#fff" stroke-linecap="round" stroke-linejoin="round" stroke-width="1.39"/><line x1="34.83" y1="89.77" x2="84.49" y2="89.77" fill="none" stroke="#fff" stroke-linecap="round" stroke-linejoin="round" stroke-width="1.39"/><line x1="97.48" y1="55.85" x2="93.43" y2="59.9" fill="none" stroke="#fff" stroke-linecap="round" stroke-linejoin="round" stroke-width="0.9"/><line x1="97.35" y1="59.78" x2="93.55" y2="55.98" fill="none" stroke="#fff" stroke-linecap="round" stroke-linejoin="round" stroke-width="0.9"/><line x1="26.57" y1="42.38" x2="22.52" y2="46.43" fill="none" stroke="#fff" stroke-linecap="round" stroke-linejoin="round" stroke-width="0.9"/><line x1="26.44" y1="46.31" x2="22.64" y2="42.5" fill="none" stroke="#fff" stroke-linecap="round" stroke-linejoin="round" stroke-width="0.9"/><line x1="87.01" y1="25.44" x2="82.96" y2="29.5" fill="none" stroke="#fff" stroke-linecap="round" stroke-linejoin="round" stroke-width="0.9"/><line x1="86.88" y1="29.37" x2="83.08" y2="25.57" fill="none" stroke="#fff" stroke-linecap="round" stroke-linejoin="round" stroke-width="0.9"/><line x1="68.3" y1="35.47" x2="69.95" y2="37.12" fill="none" stroke="#fff" stroke-linecap="round" stroke-linejoin="round" stroke-width="0.9"/><path d="M34.27,8.37l.17.81s-.63.09-.94.16c-.75.18-.92.61-.71,1.49s.57,1.3,1.35,1.11c.31-.07.9-.28.9-.28l.23.8a8.68,8.68,0,0,1-1.22.42c-1.19.29-1.86-.32-2.22-1.81s0-2.26,1.2-2.54A7.06,7.06,0,0,1,34.27,8.37Z" fill="#646666"/><path d="M39.16,9.48c.26,1.26,0,2.28-1.38,2.57s-2-.54-2.3-1.82,0-2.26,1.4-2.55S38.91,8.23,39.16,9.48Zm-1,.19c-.16-.79-.46-1.29-1.13-1.15s-.77.7-.6,1.51.42,1.34,1.15,1.19S38.35,10.48,38.19,9.67Z" fill="#646666"/><path d="M43.86,10.88l-1,.15,0-.19a2.66,2.66,0,0,1-1,.45c-1.16.19-1.71-.6-1.93-2S40.21,7,41.33,6.86a5.9,5.9,0,0,1,.87,0l-.28-1.75,1-.16Zm-1.13-.82-.39-2.4a5.2,5.2,0,0,0-.81,0c-.53.09-.73.61-.59,1.48s.41,1.32,1,1.23A2.91,2.91,0,0,0,42.73,10.06Z" fill="#646666"/><path d="M48.14,9.48l.11.72a7.71,7.71,0,0,1-1.59.4c-1.32.17-1.9-.53-2.07-1.94s.34-2.34,1.52-2.48,1.85.49,2,1.72l0,.69-2.52.31c.07.56.36.93,1,.85S48.14,9.48,48.14,9.48ZM47.15,8c-.09-.7-.36-1-.94-1s-.78.49-.7,1.17Z" fill="#646666"/><path d="M51.28,9.08l-2.45.2-.06-.8,1.19-4,1.09-.09L49.9,8.26l1.31-.11-.14-1.59,1-.08.13,1.59L52.78,8l.08.93L52.29,9l.08,1-1,.08Z" fill="#646666"/><path d="M55.79,3.86c1,0,1.81.39,1.85,1.43A1.34,1.34,0,0,1,57,6.7,1.28,1.28,0,0,1,57.87,8c0,1.17-.73,1.7-1.81,1.74l-2.19.07-.21-5.91Zm-1.11.94.06,1.61,1.12,0a.76.76,0,0,0,.75-.87.73.73,0,0,0-.84-.74Zm.09,2.47.06,1.65,1.15,0A.8.8,0,0,0,56.83,8a.81.81,0,0,0-.93-.77Z" fill="#646666"/><path d="M62.47,5.48l-.06,4.27-1,0V9.52a3.12,3.12,0,0,1-1.08.29c-1.1,0-1.44-.66-1.42-2.14l0-2.24h1l0,2.23c0,.89.11,1.28.65,1.29a2.79,2.79,0,0,0,.89-.21l0-3.29Z" fill="#646666"/><path d="M66.67,5.71l-.08.83s-.62-.1-1-.12c-.77,0-1,.32-1.1,1.23s.17,1.4,1,1.45c.32,0,.95,0,.95,0l0,.83a9.11,9.11,0,0,1-1.28.05c-1.23-.07-1.69-.84-1.61-2.38s.67-2.15,1.88-2.08A7.18,7.18,0,0,1,66.67,5.71Z" fill="#646666"/><path d="M71.22,6.1l-.42,4.25-1-.1,0-.21a3.1,3.1,0,0,1-1.11.2c-1.09-.1-1.37-.79-1.23-2.26l.22-2.22,1,.09-.22,2.22c-.08.88,0,1.29.54,1.34a2.79,2.79,0,0,0,.9-.13L70.25,6Z" fill="#646666"/><path d="M72.63,6.29l1,.13-.07.45a3.49,3.49,0,0,1,1.31-.38l-.15,1a4.5,4.5,0,0,0-1.28.23L73,10.65l-1-.14Z" fill="#646666"/><path d="M78.3,10.68l-.11.72a7.37,7.37,0,0,1-1.64-.09c-1.3-.23-1.66-1.07-1.4-2.47s1-2.14,2.19-1.92,1.62,1,1.4,2.23l-.19.67-2.5-.45c-.09.56.07,1,.73,1.12S78.3,10.68,78.3,10.68Zm-.5-1.75c.13-.7,0-1.1-.61-1.2s-.88.23-1,.91Z" fill="#646666"/><path d="M82.86,9.1s-1-.37-1.43-.47-.68,0-.75.31.09.37.72.63c1,.43,1.32.79,1.13,1.61-.22,1-1,1.18-1.92,1a10.94,10.94,0,0,1-1.5-.55l.22-.77s1,.36,1.38.46.79,0,.87-.3,0-.36-.65-.63c-.89-.41-1.4-.75-1.21-1.61a1.39,1.39,0,0,1,1.84-1,9.93,9.93,0,0,1,1.5.55Z" fill="#646666"/><path d="M85.18,9.69l-.47,1.72c-.15.56-.1.83.21.92l.63.14-.17.78a4.67,4.67,0,0,1-.82-.1c-.89-.24-1.12-.78-.82-1.89l.5-1.83-.49-.13L84,8.47l.49.14.33-1.21.94.26-.33,1.2,1.07.29-.23.83Z" fill="#646666"/><path d="M87.36,9.42l.93.28-1.24,4.08-.93-.28Zm.48-1.59.93.28-.29,1-.93-.29Z" fill="#646666"/></svg>
