<svg xmlns="http://www.w3.org/2000/svg" viewBox="0 0 118.38 108" width="118.38" height="108"><polygon points="91.6 4.94 59.19 0.17 26.78 4.94 0 54.38 24.86 105.06 59.19 107.83 93.53 105.06 118.38 54.38 91.6 4.94" fill="#ab203c"/><path d="M59.19,12.45l24.62,3.63,20.9,38.57-19,38.85L59.19,95.64,32.72,93.5l-19-38.85,20.9-38.57,24.62-3.63m0-12.28L26.78,4.94,0,54.38l24.86,50.68,34.33,2.77,34.34-2.77,24.85-50.68L91.6,4.94,59.19.17Z" fill="#e4556f"/><circle cx="54.33" cy="71.58" r="5.1" fill="none" stroke="#fff" stroke-linecap="round" stroke-linejoin="round" stroke-width="1.11"/><circle cx="64.05" cy="64.93" r="5.1" fill="none" stroke="#fff" stroke-linecap="round" stroke-linejoin="round" stroke-width="1.11"/><circle cx="73.77" cy="58.29" r="5.1" fill="none" stroke="#fff" stroke-linecap="round" stroke-linejoin="round" stroke-width="1.11"/><circle cx="65.17" cy="77" r="5.1" fill="none" stroke="#fff" stroke-linecap="round" stroke-linejoin="round" stroke-width="1.11"/><circle cx="74.89" cy="70.36" r="5.1" fill="none" stroke="#fff" stroke-linecap="round" stroke-linejoin="round" stroke-width="1.11"/><circle cx="76.01" cy="82.43" r="5.1" fill="none" stroke="#fff" stroke-linecap="round" stroke-linejoin="round" stroke-width="1.11"/><circle cx="52.99" cy="59.19" r="5.1" fill="none" stroke="#fff" stroke-linecap="round" stroke-linejoin="round" stroke-width="1.11"/><circle cx="62.71" cy="52.54" r="5.1" fill="none" stroke="#fff" stroke-linecap="round" stroke-linejoin="round" stroke-width="1.11"/><path d="M71.57,34.48a5.85,5.85,0,0,0-9.63,6.59c2.32,3.4,7.57,4.38,11.54,1.67s5-8,2.62-11.36c-3.48-5.1-10.25-5.87-15.35-2.39S53.92,39.07,57.4,44.17" fill="none" stroke="#fff" stroke-linecap="round" stroke-linejoin="round" stroke-width="1.11"/><path d="M52.28,45.25c-2.68-8.43-6.63-10.93-10.85-9.46-1.49.49-2,1.47-4.46,1.71-3,0-5.71,2.45-8.69,3.43,1.47,3,4.92,7.2,8.38,8.21,1.73.5,2.22,2.49,3.45,3.73C42.33,55.36,49.53,51.18,52,46c-6.91-3.74-15.09-3.29-15.09-3.29C39.17,42.22,46.1,42.75,52.28,45.25Z" fill="none" stroke="#fff" stroke-linecap="round" stroke-linejoin="round" stroke-width="1.11"/><line x1="36.13" y1="76.54" x2="32.08" y2="80.59" fill="none" stroke="#fff" stroke-linecap="round" stroke-linejoin="round" stroke-width="0.9"/><line x1="36.01" y1="80.47" x2="32.21" y2="76.67" fill="none" stroke="#fff" stroke-linecap="round" stroke-linejoin="round" stroke-width="0.9"/><line x1="97.25" y1="53.65" x2="93.2" y2="57.71" fill="none" stroke="#fff" stroke-linecap="round" stroke-linejoin="round" stroke-width="0.9"/><line x1="97.13" y1="57.58" x2="93.32" y2="53.78" fill="none" stroke="#fff" stroke-linecap="round" stroke-linejoin="round" stroke-width="0.9"/><line x1="49.7" y1="20.17" x2="45.65" y2="24.22" fill="none" stroke="#fff" stroke-linecap="round" stroke-linejoin="round" stroke-width="0.9"/><line x1="49.58" y1="24.1" x2="45.78" y2="20.3" fill="none" stroke="#fff" stroke-linecap="round" stroke-linejoin="round" stroke-width="0.9"/><path d="M35.86,8.35l.15.82s-.62.07-.94.14c-.75.17-.93.59-.73,1.48s.55,1.31,1.32,1.13c.32-.07.91-.26.91-.26l.21.8a7.75,7.75,0,0,1-1.22.39c-1.2.27-1.85-.34-2.19-1.85s.07-2.24,1.25-2.51A7.09,7.09,0,0,1,35.86,8.35Z" fill="#9d1e3d"/><path d="M40.72,9.54c.24,1.27,0,2.29-1.42,2.55s-2-.58-2.27-1.86,0-2.26,1.44-2.53S40.49,8.28,40.72,9.54Zm-1,.18c-.15-.8-.44-1.3-1.12-1.18s-.78.69-.62,1.5.4,1.36,1.13,1.22S39.9,10.53,39.75,9.72Z" fill="#9d1e3d"/><path d="M45.4,11l-1,.14,0-.2a2.54,2.54,0,0,1-1,.44c-1.16.17-1.7-.63-1.91-2s.3-2.27,1.41-2.43a5.59,5.59,0,0,1,.88,0l-.25-1.76,1-.14Zm-1.11-.84-.36-2.41a4.75,4.75,0,0,0-.81,0c-.53.08-.74.6-.61,1.47s.39,1.33.94,1.25A2.83,2.83,0,0,0,44.29,10.18Z" fill="#9d1e3d"/><path d="M49.7,9.71l.1.72a7.27,7.27,0,0,1-1.6.37c-1.32.14-1.89-.57-2-2s.39-2.34,1.57-2.46,1.84.53,2,1.75v.7l-2.52.26c.06.56.34.94,1,.87S49.7,9.71,49.7,9.71Zm-1-1.55c-.07-.7-.33-1-.92-1s-.78.48-.72,1.16Z" fill="#9d1e3d"/><path d="M52.89,9.36l-2.46.16,0-.81,1.27-4,1.1-.07L51.52,8.51l1.31-.08-.1-1.59,1-.06.1,1.59.57,0,.06.93-.58,0,.07,1-1,.07Z" fill="#9d1e3d"/><path d="M58.94,10a14.32,14.32,0,0,1-1.63.21c-1.72,0-2.18-1-2.22-3s.49-3.07,2.1-3.11a10.46,10.46,0,0,1,1.65.17l0,.88s-1-.1-1.47-.09c-1,0-1.25.56-1.22,2.13s.27,2.09,1.33,2.06c.4,0,1.44-.13,1.44-.13Z" fill="#9d1e3d"/><path d="M59.87,10.12l.15-6,1,0L61,6a4,4,0,0,1,1.1-.21c1.12,0,1.43.82,1.4,2.16l-.06,2.24-1,0L62.46,8c0-.72-.06-1.24-.62-1.26a3.71,3.71,0,0,0-.91.15l-.09,3.31Z" fill="#9d1e3d"/><path d="M64.83,6l1,.06-.26,4.26-1-.06Zm.1-1.66,1,.06-.06,1-1-.06Z" fill="#9d1e3d"/><path d="M70,7.33s-1-.23-1.48-.27-.67.09-.7.4.13.35.8.53c1,.3,1.41.61,1.33,1.45-.09,1-.81,1.3-1.78,1.21a11.33,11.33,0,0,1-1.56-.34l.11-.79s1,.23,1.44.27.79-.07.82-.42-.1-.35-.73-.54c-.94-.28-1.49-.56-1.41-1.43a1.38,1.38,0,0,1,1.69-1.2,10.29,10.29,0,0,1,1.56.34Z" fill="#9d1e3d"/><path d="M71.43,6.61l1,.12L71.86,11l-1-.13ZM71.64,5l1,.13-.13,1-1-.13Z" fill="#9d1e3d"/><path d="M73.09,11.12l.7-4.21,1,.16,0,.21a3,3,0,0,1,1.14-.13c1.1.18,1.3,1,1.08,2.35l-.37,2.2-1-.16L76,9.35c.11-.72.1-1.26-.46-1.35a3.18,3.18,0,0,0-.93.06l-.53,3.22Z" fill="#9d1e3d"/><path d="M81.06,11.46c0,.29.06.39.29.51l-.24.79a1.74,1.74,0,0,1-1.06-.54,3.34,3.34,0,0,1-1.29,0,1.29,1.29,0,0,1-1-1.62c.18-.86.8-1.09,1.64-1l1,.13.06-.27a.47.47,0,0,0-.37-.63c-.76-.17-1.64-.27-1.64-.27l.13-.8a16.34,16.34,0,0,1,1.75.2,1.24,1.24,0,0,1,1.08,1.71Zm-1.68-1.1a.53.53,0,0,0-.64.45c-.07.34.06.6.33.66a3.48,3.48,0,0,0,1,0l.21-1Z" fill="#9d1e3d"/><path d="M86.54,9.7l-1.13,4.12-.94-.26,0-.21a3.13,3.13,0,0,1-1.12,0c-1.05-.28-1.22-1-.83-2.43l.59-2.16L84.1,9l-.59,2.15c-.23.85-.22,1.27.31,1.41a2.76,2.76,0,0,0,.91,0l.87-3.17Z" fill="#9d1e3d"/></svg>
