<svg xmlns="http://www.w3.org/2000/svg" viewBox="0 0 118.38 108" width="118.38" height="108"><polygon points="91.6 4.94 59.19 0.17 26.78 4.94 0 54.38 24.86 105.06 59.19 107.83 93.53 105.06 118.38 54.38 91.6 4.94" fill="#f68c22"/><path d="M59.19,12.45l24.62,3.63,20.9,38.57-19,38.85L59.19,95.64,32.72,93.5l-19-38.85,20.9-38.57,24.62-3.63m0-12.28L26.78,4.94,0,54.38l24.86,50.68,34.33,2.77,34.34-2.77,24.85-50.68L91.6,4.94,59.19.17Z" fill="#f9ce49"/><circle cx="67.35" cy="58" r="19.77" fill="none" stroke="#fff" stroke-linecap="round" stroke-linejoin="round" stroke-width="1.19"/><path d="M67,77.89l5,1.78,13.23,4.76s0-8.76-5.35-10.68" fill="none" stroke="#fff" stroke-linecap="round" stroke-linejoin="round" stroke-width="1.19"/><path d="M48.27,52.86c1.88-8.1-3.25-12.18-5.42-13.51a9.09,9.09,0,0,0-1.48-.7L39,37.79,34.78,49.46c-2.62,7.31-.26,12.41,2.51,15.57a17.21,17.21,0,0,0,7.19,4.78l5.21,1.87,5.68,2" fill="none" stroke="#fff" stroke-linecap="round" stroke-linejoin="round" stroke-width="1.19"/><line x1="41.71" y1="44.3" x2="63.04" y2="25.04" fill="none" stroke="#fff" stroke-linecap="round" stroke-linejoin="round" stroke-width="1.19"/><path d="M64.46,26.78a2.24,2.24,0,1,0-3.17-.16A2.25,2.25,0,0,0,64.46,26.78Z" fill="#fff"/><line x1="43.3" y1="39.35" x2="49.01" y2="27.37" fill="none" stroke="#fff" stroke-linecap="round" stroke-linejoin="round" stroke-width="1.19"/><path d="M51,28.43a2.24,2.24,0,1,0-3,1.06A2.25,2.25,0,0,0,51,28.43Z" fill="#fff"/><path d="M37.17,51.67a8.42,8.42,0,0,0,1.43,8.92" fill="none" stroke="#fff" stroke-linecap="round" stroke-linejoin="round" stroke-width="1.19"/><path d="M81,43.86,76.8,55.45l-6.16,2.91-5.7-2" fill="none" stroke="#fff" stroke-linecap="round" stroke-linejoin="round" stroke-width="1.19"/><circle cx="65" cy="56.33" r="1.35" fill="#fff"/><polyline points="86.73 55.83 83.75 54.76 80.65 63.41" fill="none" stroke="#fff" stroke-linecap="round" stroke-linejoin="round" stroke-width="1.19"/><path d="M79.4,62.89a1.35,1.35,0,1,0,1.73-.81A1.35,1.35,0,0,0,79.4,62.89Z" fill="#fff"/><polyline points="66.73 38.74 65.89 41.07 71.18 42.97" fill="none" stroke="#fff" stroke-linecap="round" stroke-linejoin="round" stroke-width="1.19"/><circle cx="71.11" cy="42.94" r="1.35" fill="#fff"/><polyline points="74.11 56.72 76.04 60.82 73.67 67.41 75.26 70.79" fill="none" stroke="#fff" stroke-linecap="round" stroke-linejoin="round" stroke-width="1.19"/><path d="M74,71.3a1.34,1.34,0,1,0,.64-1.79A1.35,1.35,0,0,0,74,71.3Z" fill="#fff"/><polyline points="48.45 52.66 55.91 55.34 54.52 59.23 59.7 61.09 62.99 51.95 59.06 43.62" fill="none" stroke="#fff" stroke-linecap="round" stroke-linejoin="round" stroke-width="1.19"/><path d="M60.31,43.11a1.35,1.35,0,1,0-.65,1.79A1.35,1.35,0,0,0,60.31,43.11Z" fill="#fff"/><line x1="60.86" y1="47.44" x2="56.62" y2="49.44" fill="none" stroke="#fff" stroke-linecap="round" stroke-linejoin="round" stroke-width="1.19"/><circle cx="56.68" cy="49.41" r="1.35" transform="translate(-5.39 6.97) rotate(-6.72)" fill="#fff"/><line x1="75.38" y1="61.23" x2="65.77" y2="65.76" fill="none" stroke="#fff" stroke-linecap="round" stroke-linejoin="round" stroke-width="1.19"/><path d="M65.26,64.51a1.34,1.34,0,1,0,1.79.64A1.34,1.34,0,0,0,65.26,64.51Z" fill="#fff"/><polyline points="79.32 48.44 75.21 46.96 73.67 51.24" fill="none" stroke="#fff" stroke-linecap="round" stroke-linejoin="round" stroke-width="1.19"/><path d="M72.42,50.73a1.34,1.34,0,0,0,.81,1.72,1.35,1.35,0,1,0-.81-1.72Z" fill="#fff"/><polyline points="68.43 77.74 64.75 69.92 60.52 68.41 61.24 66.38 57.57 65.06" fill="none" stroke="#fff" stroke-linecap="round" stroke-linejoin="round" stroke-width="1.19"/><path d="M58.08,63.82a1.34,1.34,0,1,0,.82,1.72A1.35,1.35,0,0,0,58.08,63.82Z" fill="#fff"/><line x1="33.12" y1="65.75" x2="18.74" y2="60.59" fill="none" stroke="#fff" stroke-linecap="round" stroke-linejoin="round" stroke-width="1.19"/><line x1="45.24" y1="83.87" x2="36.79" y2="80.84" fill="none" stroke="#fff" stroke-linecap="round" stroke-linejoin="round" stroke-width="1.19"/><line x1="58.16" y1="81.31" x2="33.95" y2="72.62" fill="none" stroke="#fff" stroke-linecap="round" stroke-linejoin="round" stroke-width="1.19"/><line x1="81.35" y1="23.42" x2="77.3" y2="27.47" fill="none" stroke="#fff" stroke-linecap="round" stroke-linejoin="round" stroke-width="0.9"/><line x1="81.22" y1="27.35" x2="77.42" y2="23.54" fill="none" stroke="#fff" stroke-linecap="round" stroke-linejoin="round" stroke-width="0.9"/><line x1="24.54" y1="45.41" x2="20.49" y2="49.46" fill="none" stroke="#fff" stroke-linecap="round" stroke-linejoin="round" stroke-width="0.9"/><line x1="24.42" y1="49.34" x2="20.61" y2="45.54" fill="none" stroke="#fff" stroke-linecap="round" stroke-linejoin="round" stroke-width="0.9"/><line x1="70.46" y1="88.65" x2="66.41" y2="92.7" fill="none" stroke="#fff" stroke-linecap="round" stroke-linejoin="round" stroke-width="0.9"/><line x1="70.33" y1="92.58" x2="66.53" y2="88.78" fill="none" stroke="#fff" stroke-linecap="round" stroke-linejoin="round" stroke-width="0.9"/><path d="M42.49,6.91l.11.82s-.63,0-1,.09c-.76.13-1,.55-.8,1.44s.47,1.34,1.26,1.2c.32-.05.93-.22.93-.22l.16.82a8.77,8.77,0,0,1-1.24.33c-1.21.21-1.83-.44-2.09-2S40.05,7.18,41.24,7A6.84,6.84,0,0,1,42.49,6.91Z" fill="#f68c22"/><path d="M47.3,8.35c.17,1.29-.12,2.29-1.56,2.48s-2-.69-2.16-2,.14-2.25,1.58-2.44S47.14,7.09,47.3,8.35Zm-1,.13c-.11-.8-.36-1.32-1-1.23s-.81.64-.71,1.46.33,1.38,1.07,1.28S46.43,9.3,46.32,8.48Z" fill="#f68c22"/><path d="M51.88,10.09l-1,.09V10a2.52,2.52,0,0,1-1,.38c-1.17.11-1.66-.72-1.79-2.11S48.52,6,49.64,5.9a4.53,4.53,0,0,1,.88,0l-.16-1.78,1-.08Zm-1.07-.9L50.6,6.77a5.35,5.35,0,0,0-.81,0c-.54,0-.78.55-.7,1.42s.32,1.35.87,1.3A2.49,2.49,0,0,0,50.81,9.19Z" fill="#f68c22"/><path d="M56.26,9l.05.73A7.6,7.6,0,0,1,54.7,10c-1.33.06-1.86-.67-1.93-2.09s.51-2.31,1.7-2.37,1.81.63,1.87,1.86l0,.7-2.54.12c0,.56.29.95,1,.92S56.26,9,56.26,9Zm-.88-1.59c0-.71-.28-1.07-.87-1s-.81.43-.78,1.12Z" fill="#f68c22"/><path d="M59.43,8.85H57v-.8l1.49-3.9h1.1L58.12,7.92h1.31V6.32h1V7.91H61v.93h-.57v1h-1Z" fill="#f68c22"/><path d="M65.45,9.88a13.69,13.69,0,0,1-1.64.11c-1.71-.07-2.11-1.13-2-3.13s.67-3,2.27-3a9.63,9.63,0,0,1,1.64.26L65.62,5s-1-.16-1.47-.18c-1,0-1.27.49-1.34,2.05S63,9,64,9c.4,0,1.44-.06,1.44-.06Z" fill="#f68c22"/><path d="M66.78,4l1,.07-.44,6-1-.07Z" fill="#f68c22"/><path d="M72.45,6.33,72,10.57l-1-.11,0-.21a3.1,3.1,0,0,1-1.1.19c-1.09-.12-1.37-.81-1.21-2.28L69,6l1,.1L69.7,8.26c-.1.89,0,1.29.52,1.35a2.79,2.79,0,0,0,.9-.13l.36-3.26Z" fill="#f68c22"/><path d="M73.89,6.53l1,.14-.62,4.18c-.16,1.14-.46,1.47-1.76,1.88l-.32-.87c.88-.33,1-.46,1.12-1.16Zm.24-1.64,1,.15-.15,1L74,5.9Z" fill="#f68c22"/></svg>
