<svg xmlns="http://www.w3.org/2000/svg" viewBox="0 0 118.38 108" width="118.38" height="108"><polygon points="91.55 4.5 26.84 4.5 0.1 53.85 24.91 104.45 93.47 104.45 118.28 53.85 91.55 4.5" fill="#75c9f1"/><path d="M59.19,12.12,84,15.77l21.06,38.88L85.88,93.82,59.19,96,32.51,93.82,13.29,54.65,34.36,15.77l24.83-3.65m0-11.95L26.78,4.94,0,54.38l24.86,50.68,34.33,2.77,34.34-2.77,24.85-50.68L91.6,4.94,59.19.17Z" fill="#f8e00f"/><line x1="90.52" y1="55.52" x2="86.47" y2="59.56" fill="none" stroke="#fff" stroke-linecap="round" stroke-linejoin="round" stroke-width="1.36"/><line x1="90.39" y1="59.44" x2="86.6" y2="55.65" fill="none" stroke="#fff" stroke-linecap="round" stroke-linejoin="round" stroke-width="1.36"/><polyline points="31.77 71.45 31.77 27 40.27 27 40.27 37.89 49.56 37.89 49.56 44.72 68.09 44.72 68.09 57.66" fill="none" stroke="#fff" stroke-linecap="round" stroke-linejoin="round" stroke-width="1.36"/><circle cx="82.32" cy="39.5" r="4.79" fill="none" stroke="#fff" stroke-linecap="round" stroke-linejoin="round" stroke-width="1.36"/><path d="M65.18,34.11s-3.64-1.45-4.94,1.31c0,0-1-4.5-2.76-4.21" fill="none" stroke="#fff" stroke-linecap="round" stroke-linejoin="round" stroke-width="1.36"/><path d="M55.81,26.13s-3.63,1-2.62,4.65c0,0-2.32-3.49-5.08-2" fill="none" stroke="#fff" stroke-linecap="round" stroke-linejoin="round" stroke-width="1.36"/><line x1="89.51" y1="76.97" x2="30.39" y2="76.97" fill="none" stroke="#fff" stroke-linecap="round" stroke-linejoin="round" stroke-width="1.36"/><line x1="85.36" y1="81.47" x2="76.14" y2="81.47" fill="none" stroke="#fff" stroke-linecap="round" stroke-linejoin="round" stroke-width="1.36"/><line x1="71.79" y1="81.77" x2="66.12" y2="81.77" fill="none" stroke="#fff" stroke-linecap="round" stroke-linejoin="round" stroke-width="1.36"/><line x1="61.47" y1="81.77" x2="57.12" y2="81.77" fill="none" stroke="#fff" stroke-linecap="round" stroke-linejoin="round" stroke-width="1.36"/><path d="M53.77,81.77c-1,.29-19.24,0-19.24,0" fill="none" stroke="#fff" stroke-linecap="round" stroke-linejoin="round" stroke-width="1.36"/><line x1="38.68" y1="86.47" x2="43.75" y2="86.47" fill="none" stroke="#fff" stroke-linecap="round" stroke-linejoin="round" stroke-width="1.36"/><line x1="48.11" y1="86.18" x2="53.77" y2="86.18" fill="none" stroke="#fff" stroke-linecap="round" stroke-linejoin="round" stroke-width="1.36"/><line x1="58.42" y1="86.18" x2="62.78" y2="86.18" fill="none" stroke="#fff" stroke-linecap="round" stroke-linejoin="round" stroke-width="1.36"/><path d="M66.12,86.18c1-.3,16.48,0,16.48,0" fill="none" stroke="#fff" stroke-linecap="round" stroke-linejoin="round" stroke-width="1.36"/><line x1="51.96" y1="76.97" x2="63.98" y2="64.95" fill="none" stroke="#fff" stroke-linecap="round" stroke-linejoin="round" stroke-width="1.36"/><line x1="76.24" y1="76.97" x2="51.26" y2="51.99" fill="none" stroke="#fff" stroke-linecap="round" stroke-linejoin="round" stroke-width="1.36"/><path d="M78,70S55.9,76.29,55.27,56" fill="none" stroke="#fff" stroke-linecap="round" stroke-linejoin="round" stroke-width="1.36"/><line x1="82.32" y1="32.09" x2="82.32" y2="34.27" fill="none" stroke="#fff" stroke-linecap="round" stroke-linejoin="round" stroke-width="1.36"/><line x1="82.32" y1="44.3" x2="82.32" y2="46.47" fill="none" stroke="#fff" stroke-linecap="round" stroke-linejoin="round" stroke-width="1.36"/><line x1="87.41" y1="34.2" x2="85.86" y2="35.74" fill="none" stroke="#fff" stroke-linecap="round" stroke-linejoin="round" stroke-width="1.36"/><line x1="78.78" y1="42.83" x2="77.24" y2="44.37" fill="none" stroke="#fff" stroke-linecap="round" stroke-linejoin="round" stroke-width="1.36"/><line x1="89.51" y1="39.28" x2="87.33" y2="39.28" fill="none" stroke="#fff" stroke-linecap="round" stroke-linejoin="round" stroke-width="1.36"/><line x1="77.31" y1="39.28" x2="75.13" y2="39.28" fill="none" stroke="#fff" stroke-linecap="round" stroke-linejoin="round" stroke-width="1.36"/><line x1="87.41" y1="44.37" x2="85.86" y2="42.83" fill="none" stroke="#fff" stroke-linecap="round" stroke-linejoin="round" stroke-width="1.36"/><line x1="78.78" y1="35.74" x2="77.24" y2="34.2" fill="none" stroke="#fff" stroke-linecap="round" stroke-linejoin="round" stroke-width="1.36"/><circle cx="78.03" cy="70" r="2.07" fill="#fff"/><circle cx="34.53" cy="81.47" r="2.07" fill="#fff"/><circle cx="68.09" cy="57.54" r="2.07" fill="#fff"/><circle cx="31.91" cy="70.96" r="2.07" fill="#fff"/><circle cx="82.6" cy="86.18" r="2.07" fill="#fff"/><circle cx="48.43" cy="86.18" r="2.07" fill="#fff"/><path d="M32.33,8.53l.17.82s-.64.08-1,.16c-.75.19-.92.62-.71,1.51s.58,1.32,1.36,1.13c.32-.08.92-.29.92-.29l.23.81a9.06,9.06,0,0,1-1.23.42c-1.21.3-1.89-.31-2.25-1.83s0-2.28,1.21-2.57A7.29,7.29,0,0,1,32.33,8.53Z" fill="#78bde8"/><path d="M37.29,9.64c.26,1.28,0,2.32-1.4,2.62s-2.06-.56-2.33-1.86,0-2.29,1.42-2.58S37,8.37,37.29,9.64Zm-1,.2c-.17-.8-.47-1.31-1.16-1.17s-.77.71-.6,1.53.43,1.37,1.16,1.22S36.47,10.66,36.31,9.84Z" fill="#78bde8"/><path d="M42.05,11.07l-1,.16,0-.2a2.59,2.59,0,0,1-1,.46c-1.17.19-1.73-.61-2-2s.26-2.31,1.39-2.5a6.21,6.21,0,0,1,.89,0l-.29-1.78,1-.16Zm-1.15-.84L40.51,7.8a4.61,4.61,0,0,0-.82,0c-.54.09-.74.61-.6,1.49s.42,1.34,1,1.25A2.53,2.53,0,0,0,40.9,10.23Z" fill="#78bde8"/><path d="M46.39,9.65l.11.73a7.56,7.56,0,0,1-1.61.41c-1.34.16-1.93-.54-2.11-2s.35-2.37,1.55-2.52,1.88.5,2,1.74v.71l-2.55.31c.08.57.37.94,1,.86S46.39,9.65,46.39,9.65Zm-1-1.54c-.09-.72-.36-1.06-1-1s-.79.5-.71,1.19Z" fill="#78bde8"/><path d="M49.59,9.25l-2.48.2-.06-.81,1.21-4.05,1.1-.09L48.19,8.41l1.32-.1L49.38,6.7l1-.08.13,1.6.58,0,.08.94-.58,0,.08,1-1,.08Z" fill="#78bde8"/><path d="M55.74,9.82a14.37,14.37,0,0,1-1.65.24c-1.74.07-2.22-1-2.3-3s.44-3.13,2.06-3.19A10.34,10.34,0,0,1,55.53,4v.9s-1.05-.08-1.5-.07c-1,0-1.25.6-1.19,2.19s.32,2.1,1.39,2.06c.4,0,1.45-.17,1.45-.17Z" fill="#78bde8"/><path d="M60.21,7.71C60.2,9,59.78,10,58.3,10S56.4,9,56.4,7.7s.45-2.24,1.92-2.24S60.21,6.42,60.21,7.71Zm-1,0c0-.82-.18-1.38-.89-1.38s-.9.53-.9,1.37.14,1.43.89,1.43S59.2,8.54,59.2,7.71Z" fill="#78bde8"/><path d="M61.24,9.93l.22-4.32,1,0v.22a2.94,2.94,0,0,1,1.12-.26c1.13.06,1.43.87,1.36,2.24l-.11,2.25-1,0,.11-2.25c0-.73,0-1.27-.61-1.3a3,3,0,0,0-.92.17L62.23,10Z" fill="#78bde8"/><path d="M69.33,7.09s-1-.24-1.49-.28-.69.09-.72.41.14.35.81.54c1,.3,1.43.61,1.34,1.47s-.82,1.31-1.8,1.21a10.63,10.63,0,0,1-1.58-.35l.11-.8s1,.24,1.46.28.79-.07.83-.41-.1-.36-.74-.55c-1-.29-1.5-.58-1.42-1.46a1.4,1.4,0,0,1,1.72-1.21,10.3,10.3,0,0,1,1.58.35Z" fill="#78bde8"/><path d="M71.71,7.37l-.25,1.79c-.08.59,0,.85.34.9l.65.06-.07.8a5,5,0,0,1-.84,0c-.92-.12-1.23-.63-1.07-1.79l.26-1.9-.51-.07.12-.86.5.07L71,5.12l1,.14-.17,1.25,1.11.15-.12.86Z" fill="#78bde8"/><path d="M76.55,10.46a.44.44,0,0,0,.32.51l-.21.8a1.79,1.79,0,0,1-1.1-.5,3.23,3.23,0,0,1-1.29.08,1.3,1.3,0,0,1-1.07-1.6c.16-.88.78-1.13,1.63-1.05l1,.1,0-.28a.46.46,0,0,0-.4-.62c-.76-.14-1.67-.21-1.67-.21l.11-.81A15.34,15.34,0,0,1,75.7,7,1.26,1.26,0,0,1,76.86,8.7Zm-1.73-1a.53.53,0,0,0-.63.48c-.06.34.08.61.36.65a3.16,3.16,0,0,0,1,0l.19-1Z" fill="#78bde8"/><path d="M77.65,11.88l1-4.22,1,.22,0,.21A3,3,0,0,1,80.69,8c1.11.25,1.26,1.11,1,2.44l-.5,2.21-1-.22.51-2.2c.16-.72.18-1.27-.38-1.39a3,3,0,0,0-.94,0l-.74,3.23Z" fill="#78bde8"/><path d="M84.22,9.94l-.49,1.75c-.15.57-.1.84.22.93s.63.15.63.15l-.17.79a4.41,4.41,0,0,1-.84-.11c-.89-.24-1.13-.79-.82-1.91l.51-1.86-.49-.13L83,8.71l.49.14.34-1.23,1,.27-.33,1.22,1.08.29-.23.84Z" fill="#78bde8"/><path d="M88.6,13.66c-.07.3,0,.41.25.55l-.32.77a1.76,1.76,0,0,1-1-.65,3.17,3.17,0,0,1-1.3-.09,1.31,1.31,0,0,1-.83-1.73c.27-.85.92-1,1.75-.82l1,.23.08-.27A.47.47,0,0,0,87.9,11c-.74-.24-1.63-.43-1.63-.43l.22-.79a14.25,14.25,0,0,1,1.74.37A1.26,1.26,0,0,1,89.15,12ZM87,12.39a.54.54,0,0,0-.7.4c-.1.33,0,.61.27.7a3.57,3.57,0,0,0,1,.13l.32-1Z" fill="#78bde8"/></svg>
