<svg xmlns="http://www.w3.org/2000/svg" viewBox="0 0 118.38 108" width="118.38" height="108"><polygon points="91.6 4.94 59.19 0.17 26.78 4.94 0 54.38 24.86 105.06 59.19 107.83 93.53 105.06 118.38 54.38 91.6 4.94" fill="#48b649"/><line x1="89.78" y1="58.34" x2="85.65" y2="62.48" fill="none" stroke="#fff" stroke-linecap="round" stroke-linejoin="round" stroke-width="1.41"/><line x1="89.65" y1="62.35" x2="85.78" y2="58.47" fill="none" stroke="#fff" stroke-linecap="round" stroke-linejoin="round" stroke-width="1.41"/><line x1="40.27" y1="70.93" x2="36.13" y2="75.06" fill="none" stroke="#fff" stroke-linecap="round" stroke-linejoin="round" stroke-width="1.41"/><line x1="40.14" y1="74.93" x2="36.26" y2="71.06" fill="none" stroke="#fff" stroke-linecap="round" stroke-linejoin="round" stroke-width="1.41"/><line x1="77.5" y1="26.99" x2="73.37" y2="31.12" fill="none" stroke="#fff" stroke-linecap="round" stroke-linejoin="round" stroke-width="1.41"/><line x1="77.37" y1="30.99" x2="73.5" y2="27.12" fill="none" stroke="#fff" stroke-linecap="round" stroke-linejoin="round" stroke-width="1.41"/><path d="M55.5,63.38,27,43.33l6-8.47,30.9,21.4L76.22,72.72s3.2,2.48,5.77,4.75a6.87,6.87,0,0,1-1,11.4c-3.93,2-7.3,1.63-10.52-2.1s-1-5.71-4.8-10.26S55.5,63.38,55.5,63.38Z" fill="none" stroke="#fff" stroke-linecap="round" stroke-linejoin="round" stroke-width="1.41"/><polyline points="50.77 47.14 44.04 26.81 53.09 24.21" fill="none" stroke="#fff" stroke-linecap="round" stroke-linejoin="round" stroke-width="1.41"/><line x1="63.94" y1="56.26" x2="58.66" y2="38.37" fill="none" stroke="#fff" stroke-linecap="round" stroke-linejoin="round" stroke-width="1.41"/><polyline points="47.66 25.57 45.7 21.52 36.71 25.92 45.38 43.41" fill="none" stroke="#fff" stroke-linecap="round" stroke-linejoin="round" stroke-width="1.41"/><polyline points="39.97 32.49 34.52 27.63 27.89 34.67 31.16 37.51" fill="none" stroke="#fff" stroke-linecap="round" stroke-linejoin="round" stroke-width="1.41"/><line x1="50.12" y1="32.19" x2="54.94" y2="49.7" fill="none" stroke="#fff" stroke-linecap="round" stroke-linejoin="round" stroke-width="1.41"/><polyline points="53.48 56.12 45.19 47.01 33.82 42.86" fill="none" stroke="#fff" stroke-linecap="round" stroke-linejoin="round" stroke-width="1.41"/><line x1="60.32" y1="69.76" x2="69.08" y2="63.84" fill="none" stroke="#fff" stroke-linecap="round" stroke-linejoin="round" stroke-width="1.41"/><line x1="65.35" y1="70.54" x2="69.64" y2="76.29" fill="none" stroke="#fff" stroke-linecap="round" stroke-linejoin="round" stroke-width="1.41"/><line x1="78.59" y1="91.27" x2="78.41" y2="89.86" fill="none" stroke="#fff" stroke-linecap="round" stroke-linejoin="round" stroke-width="1.41"/><line x1="80.18" y1="89.24" x2="80.98" y2="90.81" fill="none" stroke="#fff" stroke-linecap="round" stroke-linejoin="round" stroke-width="1.41"/><line x1="82.14" y1="88.07" x2="83.22" y2="89.13" fill="none" stroke="#fff" stroke-linecap="round" stroke-linejoin="round" stroke-width="1.41"/><line x1="83.38" y1="86.69" x2="84.69" y2="87.2" fill="none" stroke="#fff" stroke-linecap="round" stroke-linejoin="round" stroke-width="1.41"/><circle cx="54.32" cy="57.14" r="2.11" fill="#fff"/><circle cx="49.95" cy="31.45" r="2.11" fill="#fff"/><circle cx="53.68" cy="24.31" r="2.11" fill="#fff"/><circle cx="58.55" cy="38.14" r="2.11" fill="#fff"/><circle cx="32.37" cy="42.44" r="2.11" fill="#fff"/><path d="M59.19,12.73l24.45,3.6,20.77,38.33L85.49,93.24l-26.3,2.13L32.9,93.24,14,54.66,34.74,16.33l24.45-3.6m0-12.56L26.78,4.94,0,54.38l24.86,50.68,34.33,2.77,34.34-2.77,24.85-50.68L91.6,4.94,59.19.17Z" fill="#dce160"/><path d="M36.36,8.23l.15.82s-.62.07-.94.14c-.75.17-.93.6-.73,1.49s.56,1.3,1.33,1.13c.32-.07.92-.27.92-.27l.21.8a8.48,8.48,0,0,1-1.22.4c-1.2.28-1.86-.34-2.21-1.84s.06-2.26,1.24-2.53A7.16,7.16,0,0,1,36.36,8.23Z" fill="#48b649"/><path d="M41.23,9.41c.24,1.27,0,2.29-1.42,2.56s-2-.57-2.28-1.86,0-2.26,1.44-2.54S41,8.15,41.23,9.41Zm-1,.18c-.15-.8-.44-1.3-1.12-1.17s-.78.69-.62,1.5.4,1.36,1.14,1.22S40.41,10.4,40.25,9.59Z" fill="#48b649"/><path d="M45.93,10.87,45,11l0-.19a2.7,2.7,0,0,1-1,.44c-1.16.17-1.7-.62-1.91-2S42.33,7,43.45,6.81a5.59,5.59,0,0,1,.88,0L44.06,5l1-.14ZM44.81,10l-.36-2.41a5.24,5.24,0,0,0-.81,0c-.53.08-.74.59-.61,1.47s.4,1.32.95,1.24A2.72,2.72,0,0,0,44.81,10Z" fill="#48b649"/><path d="M50.23,9.53l.1.72a7.64,7.64,0,0,1-1.6.38c-1.32.14-1.9-.56-2-2s.37-2.35,1.56-2.47,1.84.52,2,1.74v.7l-2.53.28c.07.56.35.93,1,.86S50.23,9.53,50.23,9.53ZM49.25,8c-.08-.71-.34-1-.93-1s-.78.49-.71,1.17Z" fill="#48b649"/><path d="M53.39,9.16l-2.45.17-.06-.8,1.24-4,1.1-.07L52,8.32l1.31-.09-.11-1.59,1-.07.11,1.59.58,0,.06.93-.57,0,.07,1-1,.07Z" fill="#48b649"/><path d="M59.46,9.8a13.49,13.49,0,0,1-1.63.22c-1.72,0-2.19-1-2.24-3S56.06,4,57.67,3.91a10.34,10.34,0,0,1,1.65.15l0,.88s-1-.09-1.47-.08c-1,0-1.24.57-1.2,2.14S56.91,9.08,58,9.05c.39,0,1.43-.15,1.43-.15Z" fill="#48b649"/><path d="M60.42,5.61h1v.45a3.19,3.19,0,0,1,1.25-.54v1a4.67,4.67,0,0,0-1.25.4l0,2.93h-1Z" fill="#48b649"/><path d="M66.64,8.91c0,.3.13.38.38.45l-.1.82a1.76,1.76,0,0,1-1.14-.35,3.24,3.24,0,0,1-1.27.24,1.29,1.29,0,0,1-1.24-1.43c0-.88.61-1.22,1.46-1.24l1,0V7.09c0-.36-.15-.55-.47-.56-.77,0-1.67,0-1.67,0V5.73a14.44,14.44,0,0,1,1.75-.1c.92,0,1.4.46,1.36,1.51ZM64.81,8.1a.53.53,0,0,0-.56.56c0,.34.16.58.44.59a3.77,3.77,0,0,0,1-.12l0-1Z" fill="#48b649"/><path d="M68.18,5.9l1,.08-.35,4.27-1-.08Zm.14-1.65,1,.07-.08,1-1-.08Z" fill="#48b649"/><path d="M73.75,8.6c-.15,1.28-.68,2.19-2.12,2S69.86,9.47,70,8.17s.69-2.16,2.13-2S73.89,7.33,73.75,8.6Zm-1-.12c.09-.81,0-1.37-.72-1.45s-1,.42-1,1.25,0,1.41.72,1.5S72.67,9.3,72.76,8.48Z" fill="#48b649"/><path d="M75.66,6.75l.25,3.55.18,0L77.45,7l1,.16-1.75,4L75,11l-.39-4.39Z" fill="#48b649"/><path d="M81.81,11.06a.42.42,0,0,0,.3.51l-.23.79a1.72,1.72,0,0,1-1.07-.53,3.24,3.24,0,0,1-1.29,0,1.28,1.28,0,0,1-1-1.61c.18-.87.8-1.1,1.64-1l1,.12.06-.27a.47.47,0,0,0-.38-.63c-.75-.15-1.64-.25-1.64-.25l.13-.8a14.54,14.54,0,0,1,1.75.18,1.24,1.24,0,0,1,1.09,1.71ZM80.13,10a.54.54,0,0,0-.64.47.49.49,0,0,0,.34.65,3.23,3.23,0,0,0,1,0l.21-1Z" fill="#48b649"/></svg>
