<svg xmlns="http://www.w3.org/2000/svg" viewBox="0 0 118.38 108" width="118.38" height="108"><polygon points="91.6 4.94 59.19 0.17 26.78 4.94 0 54.38 24.86 105.06 59.19 107.83 93.53 105.06 118.38 54.38 91.6 4.94" fill="#1b75bc"/><circle cx="61.54" cy="53.35" r="0.69" fill="#fff"/><path d="M60.16,54.62a.68.68,0,0,0-1,0L46.93,67.09a.68.68,0,0,0,0,1h0a.68.68,0,0,0,1,0L60.17,55.59A.69.69,0,0,0,60.16,54.62Z" fill="#fff"/><path d="M79.79,75.83a80.26,80.26,0,0,0-1.56-8.65l2.61-2.61a2.64,2.64,0,0,0-3.73-3.73l-.48.48c-.16-.5-.32-1-.49-1.49L78,58a2.64,2.64,0,0,0-3.73-3.73l-.24.24c-.3-.66-.61-1.31-.92-1.93L83.48,42.18A6,6,0,0,0,75,33.73L64.67,44.09c-.62-.31-1.26-.62-1.93-.92l.24-.24a2.64,2.64,0,0,0-3.73-3.73l-1.87,1.87-1.49-.49.48-.48a2.64,2.64,0,0,0-3.73-3.73L50,39a80.26,80.26,0,0,0-8.65-1.56l-.29,0-4.53,4.53L57,51.83l-12.11,13a7.18,7.18,0,0,0-.84,1l-7-2.36-4.9,4.9L44.38,72.8l4.48,12.28,4.9-4.9-2.35-7a6.68,6.68,0,0,0,1-.83l13-12.13,9.91,20.41,4.53-4.53Zm-4.14,2.71L65.76,58.18,51.55,71.48a6.32,6.32,0,0,1-1.2.93l-.43.26,2.42,7.17-3,3-4-11-11-4,3-3,7.21,2.43.26-.43a6.12,6.12,0,0,1,.94-1.2L59,51.45,38.67,41.57l2.87-2.88a81.18,81.18,0,0,1,8.54,1.58l.34.08,3.1-3.1a1.39,1.39,0,0,1,2,2l-1.94,2,1,.29c1,.29,1.89.59,2.79.91l.37.13,2.42-2.42a1.39,1.39,0,0,1,2,2l-1.53,1.53.84.36c1.09.47,2.13,1,3.1,1.46l.4.21,11-11a4.73,4.73,0,0,1,6.7,6.69l-11,11,.21.4c.5,1,1,2,1.46,3.1l.36.84,1.53-1.53a1.39,1.39,0,0,1,2,2L74.71,59.5l.13.37c.31.9.62,1.84.9,2.79l.3,1L78,61.71a1.4,1.4,0,0,1,2,2l-3.1,3.1.08.34a80.71,80.71,0,0,1,1.58,8.54l-2.88,2.87Z" fill="#fff"/><rect x="45.7" y="28.6" width="18.53" height="1.24" transform="translate(-4.56 47.43) rotate(-45)" fill="#fff"/><rect x="52.93" y="27.6" width="16.18" height="1.24" transform="translate(-2.08 51.41) rotate(-45)" fill="#fff"/><rect x="37.82" y="48.02" width="5.54" height="1.24" transform="translate(-22.51 42.95) rotate(-45)" fill="#fff"/><rect x="59.85" y="72.14" width="9.78" height="1.24" transform="translate(-32.49 67.09) rotate(-45)" fill="#fff"/><path d="M59.19,12.45l24.62,3.63,20.9,38.57-19,38.85L59.19,95.64,32.72,93.5l-19-38.85,20.9-38.57,24.62-3.63m0-12.28L26.78,4.94,0,54.38l24.86,50.68,34.33,2.77,34.34-2.77,24.85-50.68L91.6,4.94,59.19.17Z" fill="#75c9f1"/><line x1="96.75" y1="52.41" x2="92.7" y2="56.46" fill="none" stroke="#fff" stroke-linecap="round" stroke-linejoin="round" stroke-width="0.9"/><line x1="96.62" y1="56.33" x2="92.82" y2="52.53" fill="none" stroke="#fff" stroke-linecap="round" stroke-linejoin="round" stroke-width="0.9"/><line x1="27.29" y1="56.56" x2="23.24" y2="60.61" fill="none" stroke="#fff" stroke-linecap="round" stroke-linejoin="round" stroke-width="0.9"/><line x1="27.17" y1="60.48" x2="23.37" y2="56.68" fill="none" stroke="#fff" stroke-linecap="round" stroke-linejoin="round" stroke-width="0.9"/><line x1="40.39" y1="21.92" x2="36.34" y2="25.97" fill="none" stroke="#fff" stroke-linecap="round" stroke-linejoin="round" stroke-width="0.9"/><line x1="40.27" y1="25.84" x2="36.47" y2="22.04" fill="none" stroke="#fff" stroke-linecap="round" stroke-linejoin="round" stroke-width="0.9"/><line x1="40.59" y1="73.98" x2="31.52" y2="83.05" fill="none" stroke="#75c9f1" stroke-linecap="round" stroke-linejoin="round" stroke-width="1.22"/><line x1="41" y1="78.51" x2="31.93" y2="87.58" fill="none" stroke="#75c9f1" stroke-linecap="round" stroke-linejoin="round" stroke-width="1.22"/><path d="M35.44,8.72l.17.82s-.63.08-.94.15c-.75.18-.92.61-.71,1.49s.57,1.3,1.35,1.11c.31-.07.91-.28.91-.28l.22.8a8.85,8.85,0,0,1-1.21.42c-1.2.29-1.87-.32-2.23-1.81s0-2.25,1.2-2.54A7.06,7.06,0,0,1,35.44,8.72Z" fill="#1b75bc"/><path d="M40.33,9.83c.26,1.26,0,2.29-1.38,2.58s-2-.55-2.3-1.83,0-2.26,1.41-2.55S40.08,8.58,40.33,9.83Zm-1,.2c-.16-.8-.46-1.3-1.13-1.16s-.77.7-.6,1.51.42,1.35,1.15,1.2S39.52,10.83,39.36,10Z" fill="#1b75bc"/><path d="M45,11.23l-1,.16,0-.2a2.41,2.41,0,0,1-1,.45c-1.16.19-1.71-.59-1.93-2s.25-2.27,1.36-2.46a6.06,6.06,0,0,1,.88,0l-.28-1.75,1-.16Zm-1.13-.82L43.51,8a4.49,4.49,0,0,0-.81,0c-.53.08-.73.6-.59,1.47s.41,1.32,1,1.23A2.63,2.63,0,0,0,43.9,10.41Z" fill="#1b75bc"/><path d="M49.31,9.84l.11.72a7.71,7.71,0,0,1-1.59.4c-1.32.16-1.9-.54-2.07-2s.34-2.34,1.52-2.48,1.85.5,2,1.72l0,.69-2.52.31c.07.56.36.93,1,.85S49.31,9.84,49.31,9.84Zm-1-1.53c-.09-.7-.36-1-.94-1s-.78.49-.7,1.17Z" fill="#1b75bc"/><path d="M52.45,9.43,50,9.63l-.06-.8,1.19-4,1.09-.09L51.07,8.61l1.31-.11-.14-1.58,1-.09.13,1.59L54,8.37,54,9.3l-.57,0,.08,1-1,.09Z" fill="#1b75bc"/><path d="M55,10.2l-.21-5.91,1.93-.07c1.86-.06,2.38.93,2.45,2.77s-.33,3.08-2.23,3.14Zm1.76-5.06-1,0L56,9.25l.94,0c1.11,0,1.28-1,1.23-2.18S57.88,5.11,56.78,5.14Z" fill="#1b75bc"/><path d="M60.31,5.8h1v4.27h-1Zm0-1.66h1v1h-1Z" fill="#1b75bc"/><path d="M65.65,9c0,.3.13.38.38.44l-.09.82a1.73,1.73,0,0,1-1.14-.34,3.2,3.2,0,0,1-1.26.26,1.28,1.28,0,0,1-1.26-1.41c0-.88.6-1.22,1.45-1.25l1,0V7.21c0-.36-.15-.54-.48-.55-.77,0-1.66,0-1.66,0V5.88a15.11,15.11,0,0,1,1.75-.12c.92,0,1.41.44,1.37,1.49Zm-1.84-.79a.53.53,0,0,0-.55.57c0,.34.16.58.45.59a3.72,3.72,0,0,0,1-.14l0-1Z" fill="#1b75bc"/><path d="M70.13,7.12s-1-.22-1.48-.26-.68.1-.71.42.15.34.81.52c1,.28,1.42.58,1.36,1.43s-.79,1.31-1.77,1.23a10.89,10.89,0,0,1-1.56-.32l.1-.79s1,.22,1.44.25.79-.08.81-.43-.1-.35-.74-.53c-.94-.27-1.49-.53-1.42-1.41A1.38,1.38,0,0,1,68.64,6a10.2,10.2,0,0,1,1.57.32Z" fill="#1b75bc"/><path d="M71.64,6.37l1,.12,0,.22a2.38,2.38,0,0,1,1-.19c1,.13,1.51.89,1.32,2.37-.21,1.7-.92,2.18-2.15,2a3.61,3.61,0,0,1-.73-.16l-.23,1.79-1-.12Zm.84,1.13-.3,2.4a3.31,3.31,0,0,0,.66.16c.73.09,1-.39,1.13-1.29s-.09-1.33-.63-1.4A2.2,2.2,0,0,0,72.48,7.5Z" fill="#1b75bc"/><path d="M79.41,9.68c-.22,1.27-.8,2.14-2.23,1.89S75.49,10.32,75.71,9,76.52,6.92,78,7.17,79.63,8.42,79.41,9.68Zm-1-.17c.14-.8,0-1.37-.63-1.49s-1,.36-1.11,1.18-.1,1.41.63,1.54S78.29,10.32,78.43,9.51Z" fill="#1b75bc"/><path d="M80.9,7.83l1,.21-.1.44a3.56,3.56,0,0,1,1.33-.28l-.22,1a4.83,4.83,0,0,0-1.3.14L81,12.21,80,12Z" fill="#1b75bc"/><path d="M86.28,12.33a.43.43,0,0,0,.27.53l-.27.77a1.73,1.73,0,0,1-1-.58A3.18,3.18,0,0,1,84,13,1.29,1.29,0,0,1,83,11.37c.23-.85.85-1.06,1.69-.9l1,.17.07-.27a.46.46,0,0,0-.35-.64c-.74-.2-1.62-.34-1.62-.34L84,8.61a14,14,0,0,1,1.73.26,1.25,1.25,0,0,1,1,1.76Zm-1.62-1.16a.52.52,0,0,0-.66.43c-.09.33,0,.6.3.67a3.58,3.58,0,0,0,1,.07l.26-1Z" fill="#1b75bc"/></svg>
