<svg xmlns="http://www.w3.org/2000/svg" viewBox="0 0 118.38 108" width="118.38" height="108"><polygon points="91.6 4.94 59.19 0.17 26.78 4.94 0 54.38 24.86 105.06 59.19 107.83 93.53 105.06 118.38 54.38 91.6 4.94" fill="#ef4323"/><path d="M59.19,12.45l24.62,3.63,20.9,38.57-19,38.85L59.19,95.64,32.72,93.5l-19-38.85,20.9-38.57,24.62-3.63m0-12.28L26.78,4.94,0,54.38l24.86,50.68,34.33,2.77,34.34-2.77,24.85-50.68L91.6,4.94,59.19.17Z" fill="#faa41e"/><line x1="35.46" y1="74.23" x2="31.41" y2="78.28" fill="none" stroke="#fff" stroke-linecap="round" stroke-linejoin="round" stroke-width="0.9"/><line x1="35.34" y1="78.16" x2="31.54" y2="74.36" fill="none" stroke="#fff" stroke-linecap="round" stroke-linejoin="round" stroke-width="0.9"/><line x1="89" y1="64.75" x2="84.95" y2="68.81" fill="none" stroke="#fff" stroke-linecap="round" stroke-linejoin="round" stroke-width="0.9"/><line x1="88.87" y1="68.68" x2="85.07" y2="64.88" fill="none" stroke="#fff" stroke-linecap="round" stroke-linejoin="round" stroke-width="0.9"/><line x1="55.28" y1="22.24" x2="51.23" y2="26.29" fill="none" stroke="#fff" stroke-linecap="round" stroke-linejoin="round" stroke-width="0.9"/><line x1="55.16" y1="26.16" x2="51.36" y2="22.36" fill="none" stroke="#fff" stroke-linecap="round" stroke-linejoin="round" stroke-width="0.9"/><path d="M59.19,36.07h-6c-1.6,0-5.38.6-6.6,3.48S39.47,59,39.47,59L46,67.29v6.58" fill="none" stroke="#fff" stroke-linecap="round" stroke-linejoin="round" stroke-width="1.31"/><path d="M55.23,74.41s-3.79-4.7-8.18-1.51S43,84.11,46.44,87.14s9.89,0,12.75,0" fill="none" stroke="#fff" stroke-linecap="round" stroke-linejoin="round" stroke-width="1.31"/><path d="M51.42,36.26s-17.1,0-21.35-9.14c0,0-2.88,17.64,13.72,19.89" fill="none" stroke="#fff" stroke-linecap="round" stroke-linejoin="round" stroke-width="1.31"/><circle cx="50.69" cy="80.33" r="1.73" fill="none" stroke="#fff" stroke-linecap="round" stroke-linejoin="round" stroke-width="1.31"/><ellipse cx="50.69" cy="58.33" rx="1.54" ry="2.93" transform="translate(-22.38 33.16) rotate(-30)" stroke-width="1.31" stroke="#fff" stroke-linecap="round" stroke-linejoin="round" fill="none"/><path d="M59.19,36.07h6c1.59,0,5.38.6,6.59,3.48S78.92,59,78.92,59L72.4,67.29v6.58" fill="none" stroke="#fff" stroke-linecap="round" stroke-linejoin="round" stroke-width="1.31"/><path d="M63.15,74.41s3.79-4.7,8.19-1.51,4.09,11.21.6,14.24-9.88,0-12.75,0" fill="none" stroke="#fff" stroke-linecap="round" stroke-linejoin="round" stroke-width="1.31"/><path d="M67,36.26s17.1,0,21.34-9.14c0,0,2.88,17.64-13.71,19.89" fill="none" stroke="#fff" stroke-linecap="round" stroke-linejoin="round" stroke-width="1.31"/><path d="M76.72,52.86S84.45,52.65,88.5,55c0,0,0-8.65-5.41-11.44" fill="none" stroke="#fff" stroke-linecap="round" stroke-linejoin="round" stroke-width="1.31"/><circle cx="67.69" cy="80.33" r="1.73" fill="none" stroke="#fff" stroke-linecap="round" stroke-linejoin="round" stroke-width="1.31"/><ellipse cx="67.69" cy="58.33" rx="2.93" ry="1.54" transform="matrix(0.5, -0.87, 0.87, 0.5, -16.67, 87.79)" stroke-width="1.31" stroke="#fff" stroke-linecap="round" stroke-linejoin="round" fill="none"/><path d="M41.66,52.86S33.93,52.65,29.88,55c0,0,0-8.65,5.42-11.44" fill="none" stroke="#fff" stroke-linecap="round" stroke-linejoin="round" stroke-width="1.31"/><line x1="57.41" y1="53.23" x2="61.67" y2="53.23" fill="none" stroke="#fff" stroke-linecap="round" stroke-linejoin="round" stroke-width="1.31"/><line x1="54.84" y1="45.25" x2="64.25" y2="45.25" fill="none" stroke="#fff" stroke-linecap="round" stroke-linejoin="round" stroke-width="1.31"/><path d="M43.53,7.17l.1.82s-.63,0-1,.09c-.76.13-1,.55-.8,1.44s.48,1.34,1.26,1.2c.32-.05.93-.21.93-.21l.16.81a8.77,8.77,0,0,1-1.24.33c-1.21.21-1.83-.44-2.09-2s.18-2.24,1.37-2.45A6.94,6.94,0,0,1,43.53,7.17Z" fill="#ef4323"/><path d="M48.34,8.62c.16,1.28-.13,2.28-1.57,2.47s-2-.69-2.16-2,.15-2.25,1.58-2.44S48.17,7.35,48.34,8.62Zm-1,.12c-.1-.8-.36-1.32-1.05-1.23s-.81.64-.7,1.47.32,1.37,1.06,1.27S47.46,9.56,47.35,8.74Z" fill="#ef4323"/><path d="M52.91,10.35l-1,.09v-.2a2.52,2.52,0,0,1-1,.38c-1.16.11-1.66-.72-1.78-2.1s.41-2.25,1.54-2.36a4.65,4.65,0,0,1,.88,0L51.4,4.43l1-.09Zm-1.06-.9L51.63,7a5.28,5.28,0,0,0-.81,0c-.54,0-.77.55-.69,1.43s.31,1.34.87,1.29A2.59,2.59,0,0,0,51.85,9.45Z" fill="#ef4323"/><path d="M57.29,9.27l.05.73a7.6,7.6,0,0,1-1.61.28c-1.33.07-1.86-.67-1.93-2.09s.52-2.31,1.7-2.37,1.82.63,1.87,1.86l0,.7L54.8,8.5c0,.57.3,1,1,.92S57.29,9.27,57.29,9.27Zm-.88-1.59c0-.71-.28-1.07-.87-1s-.81.43-.78,1.12Z" fill="#ef4323"/><path d="M60.46,9.11H58v-.8l1.5-3.9h1.09L59.15,8.18h1.31V6.59h1V8.17H62V9.1h-.58v1h-1Z" fill="#ef4323"/><path d="M63.08,4.18l1,0-.16,5.91-1,0Z" fill="#ef4323"/><path d="M68.39,9.19c0,.3.12.38.37.46l-.11.81a1.75,1.75,0,0,1-1.14-.37,3.11,3.11,0,0,1-1.26.23A1.29,1.29,0,0,1,65,8.87c0-.88.63-1.21,1.48-1.21l1,0V7.36c0-.36-.14-.55-.46-.57-.77,0-1.66,0-1.66,0V6a16.25,16.25,0,0,1,1.76-.08c.91.06,1.39.48,1.33,1.53Zm-1.82-.84A.52.52,0,0,0,66,8.9c0,.34.14.59.42.6a3.51,3.51,0,0,0,1-.11l.06-1Z" fill="#ef4323"/><path d="M72.89,7.41s-1-.24-1.47-.29-.68.08-.71.4.13.35.79.54c1,.3,1.4.62,1.32,1.46-.11,1-.83,1.29-1.8,1.18a10.07,10.07,0,0,1-1.55-.36l.12-.79s1,.25,1.43.29.79-.06.82-.4-.09-.35-.72-.55c-.93-.29-1.48-.58-1.38-1.45a1.38,1.38,0,0,1,1.7-1.18A10.73,10.73,0,0,1,73,6.62Z" fill="#ef4323"/><path d="M74.3,6.71l1,.13-.6,4.23-1-.14Zm.23-1.64,1,.13-.14,1-1-.14Z" fill="#ef4323"/></svg>
