<svg xmlns="http://www.w3.org/2000/svg" viewBox="0 0 118.38 108" width="118.38" height="108"><polygon points="91.6 4.94 59.19 0.17 26.78 4.94 0 54.38 24.86 105.06 59.19 107.83 93.53 105.06 118.38 54.38 91.6 4.94" fill="#8575b6"/><path d="M59.19,12.45l24.62,3.63,20.9,38.57-19,38.85L59.19,95.64,32.72,93.5l-19-38.85,20.9-38.57,24.62-3.63m0-12.28L26.78,4.94,0,54.38l24.86,50.68,34.33,2.77,34.34-2.77,24.85-50.68L91.6,4.94,59.19.17Z" fill="#aaabd6"/><line x1="71.85" y1="18.07" x2="67.8" y2="22.12" fill="none" stroke="#fff" stroke-linecap="round" stroke-linejoin="round" stroke-width="0.9"/><line x1="71.72" y1="21.99" x2="67.92" y2="18.19" fill="none" stroke="#fff" stroke-linecap="round" stroke-linejoin="round" stroke-width="0.9"/><line x1="84.06" y1="84.3" x2="80.01" y2="88.35" fill="none" stroke="#fff" stroke-linecap="round" stroke-linejoin="round" stroke-width="0.9"/><line x1="83.94" y1="88.22" x2="80.14" y2="84.42" fill="none" stroke="#fff" stroke-linecap="round" stroke-linejoin="round" stroke-width="0.9"/><line x1="33.26" y1="69.9" x2="29.2" y2="73.95" fill="none" stroke="#fff" stroke-linecap="round" stroke-linejoin="round" stroke-width="0.9"/><line x1="33.13" y1="73.83" x2="29.33" y2="70.03" fill="none" stroke="#fff" stroke-linecap="round" stroke-linejoin="round" stroke-width="0.9"/><path d="M46.76,78.56a3.6,3.6,0,0,1-3-4.5c-1.18-.94-1.15-1.81-1.15-3.14,2.47-1,1.49-4.64.76-6.61-1.22-3.3-3.66-5.59-7.17-5.83a7.34,7.34,0,0,1-5,2.16,6.88,6.88,0,0,1-2.18-13.4C25.89,42,30.67,35.3,36.72,37a6.82,6.82,0,0,1,10.89-5.48,6.8,6.8,0,0,1,11.74-1.68,6.79,6.79,0,0,1,11.73,1.68A6.82,6.82,0,0,1,82,37c6-1.72,10.86,4.95,7.66,10.21a6.88,6.88,0,1,1-7.18,11.24c-3.51.25-5.94,2.54-7.16,5.83-.73,2-1.71,5.63.76,6.61,0,1.33,0,2.2-1.15,3.14a3.6,3.6,0,0,1-3,4.5,4.19,4.19,0,0,1-5.56,3.78,4.44,4.44,0,0,1-7,1.37,4.43,4.43,0,0,1-7-1.37,4.19,4.19,0,0,1-5.56-3.78Zm6.64,1.12a3.72,3.72,0,0,0,.44-.56c0,1.39-.44,3.63,2.5,3.75,2.06,0,2.59-1,3-2.75h.06c.41,1.74.94,2.75,3,2.75,2.93-.12,2.5-2.36,2.49-3.75.81,1.22,2.64,2.57,4.43.8,1.22-1.21.76-2.29.36-3.59.75.31,2,1,2.9-.22s-.18-2.36-1.16-3.07c.91.1,2.15.19,2.55-.87-1.82-1.9-1.48-5-1-7,1.08-4.57,4.31-8.31,9.22-8.73a3.44,3.44,0,0,1,3.64-4.63A2.34,2.34,0,0,1,88,54.42c-.08.79-.87,1.36-1.27,1.22a1.6,1.6,0,0,0,.36-1.11,1.57,1.57,0,0,0-1.47-1.48A2.08,2.08,0,0,0,83.24,55c-.3,2.22,2.29,3.66,4.3,3.64a4.87,4.87,0,0,0,4.8-4.51A4.92,4.92,0,0,0,88.23,49c-4.54-.69-10.72,3.44-13.1,6.53-3.94,5.12-4,8.07-4.95,13.45-.28-5.91,1.29-10.67,4-14.18A18.37,18.37,0,0,1,85,48.06c1.57-.34,2.15-.39,3.06-2a4.93,4.93,0,0,0-.77-5.86c-2.74-2.78-5.92-1.1-8.28,1.18a49.67,49.67,0,0,0-8.61,12.34,42.63,42.63,0,0,0-3.44,16.15,33.55,33.55,0,0,1,2.32-16.61A48.67,48.67,0,0,1,78.64,39.5c1.82-1.84,2-3.85,0-5.87a4.76,4.76,0,0,0-6.14-.54c-3.29,2.35-7,17.47-7.5,19.94a89.18,89.18,0,0,0-1.72,17.79,59.68,59.68,0,0,1,.53-18,67.67,67.67,0,0,1,5.69-17.58,4.84,4.84,0,0,0-4.66-6c-5.48,0-4.86,9.07-4.93,13.19L59.37,71,58.88,42.4c-.07-4.12.55-13.19-4.93-13.19a4.83,4.83,0,0,0-4.65,6A68,68,0,0,1,55,52.82a59.34,59.34,0,0,1,.52,18A88.43,88.43,0,0,0,53.79,53c-.47-2.47-4.21-17.59-7.5-19.94a4.76,4.76,0,0,0-6.14.54c-2,2-1.86,4,0,5.87A48.87,48.87,0,0,1,49.5,53.27a33.43,33.43,0,0,1,2.31,16.61,42.62,42.62,0,0,0-3.43-16.15,49.94,49.94,0,0,0-8.61-12.34c-2.36-2.28-5.54-4-8.29-1.18a4.92,4.92,0,0,0-.76,5.86c.91,1.6,1.49,1.64,3.05,2a18.37,18.37,0,0,1,10.8,6.72c2.7,3.51,4.27,8.27,4,14.18-.94-5.38-1-8.33-5-13.45-2.37-3.09-8.56-7.22-13.1-6.53A4.92,4.92,0,0,0,26.4,54.1a4.87,4.87,0,0,0,4.81,4.51c2,0,4.6-1.42,4.3-3.64a2.09,2.09,0,0,0-2.43-1.92A1.58,1.58,0,0,0,32,55.64c-.41.14-1.2-.43-1.28-1.22a2.34,2.34,0,0,1,2.22-2.57,3.44,3.44,0,0,1,3.64,4.63c4.92.42,8.14,4.16,9.23,8.73.45,1.91.79,5.06-1,7,.4,1.06,1.64,1,2.55.87-1,.71-2,1.8-1.16,3.07s2.15.53,2.9.22c-.4,1.3-.85,2.38.36,3.59,1.5,1.48,3,.78,4-.2l0,0Z" fill="#fff"/><path d="M38.24,7.62l.13.81s-.62.06-.94.13c-.76.15-.94.58-.76,1.46s.53,1.32,1.3,1.16c.32-.07.92-.25.92-.25l.2.81a9.3,9.3,0,0,1-1.23.37c-1.21.25-1.85-.38-2.16-1.89S35.8,8,37,7.73A6.71,6.71,0,0,1,38.24,7.62Z" fill="#8575b6"/><path d="M43.1,8.89c.21,1.27,0,2.28-1.48,2.53s-2-.62-2.23-1.91.06-2.26,1.49-2.5S42.88,7.63,43.1,8.89Zm-1,.16c-.14-.8-.41-1.31-1.1-1.19s-.79.67-.65,1.48.38,1.36,1.11,1.24S42.25,9.86,42.12,9.05Z" fill="#8575b6"/><path d="M47.73,10.45l-1,.12,0-.19a2.74,2.74,0,0,1-1,.42c-1.16.14-1.69-.66-1.86-2s.33-2.27,1.45-2.41a4.88,4.88,0,0,1,.88,0L46,4.58l1-.12Zm-1.1-.86-.31-2.41a4.34,4.34,0,0,0-.81,0c-.53.07-.75.58-.64,1.45s.37,1.33.92,1.26A2.74,2.74,0,0,0,46.63,9.59Z" fill="#8575b6"/><path d="M52.06,9.22l.08.72a7.55,7.55,0,0,1-1.6.34c-1.32.12-1.88-.6-2-2S49,5.93,50.15,5.83,52,6.4,52.09,7.62v.7l-2.53.22c.05.56.33.94,1,.88S52.06,9.22,52.06,9.22Zm-.94-1.56c-.06-.71-.31-1.06-.9-1s-.8.47-.75,1.15Z" fill="#8575b6"/><path d="M55.23,8.93,52.78,9l0-.8,1.34-3.95,1.1,0-1.3,3.82L55.19,8l-.07-1.59,1,0L56.2,8l.57,0,0,.93-.57,0,0,1-1,.05Z" fill="#8575b6"/><path d="M57.49,6.88c0-2,.63-3.1,2.36-3.09s2.34,1.1,2.33,3.11-.62,3-2.35,3S57.48,8.88,57.49,6.88Zm3.66,0c0-1.46-.32-2.17-1.31-2.18s-1.31.71-1.31,2.17S58.84,9,59.83,9,61.14,8.37,61.15,6.89Z" fill="#8575b6"/><path d="M63.35,5.61l1,0,0,.46a3.3,3.3,0,0,1,1.26-.5l0,1A4.75,4.75,0,0,0,64.26,7l-.14,2.92-1-.05Z" fill="#8575b6"/><path d="M69.42,9.13c0,.3.12.39.36.47l-.13.82a1.8,1.8,0,0,1-1.13-.4,3.09,3.09,0,0,1-1.27.19,1.27,1.27,0,0,1-1.18-1.48c.07-.87.66-1.19,1.51-1.17h1l0-.28c0-.35-.12-.55-.44-.58-.77-.06-1.67,0-1.67,0l0-.81a15.59,15.59,0,0,1,1.75,0,1.25,1.25,0,0,1,1.3,1.57Zm-1.79-.87a.52.52,0,0,0-.58.53c0,.34.13.59.41.61a3.45,3.45,0,0,0,1-.09l.09-1Z" fill="#8575b6"/><path d="M73.9,10.87l-1-.13,0-.2a2.47,2.47,0,0,1-1,.15c-1.17-.15-1.47-1.06-1.28-2.45s.9-2.1,2-1.95a5.54,5.54,0,0,1,.85.22l.23-1.76,1,.13Zm-.84-1.12.32-2.41a5.09,5.09,0,0,0-.79-.2c-.53-.07-.87.37-1,1.24s0,1.39.57,1.46A2.71,2.71,0,0,0,73.06,9.75Z" fill="#8575b6"/><path d="M78.4,10.81l-.11.72a7.37,7.37,0,0,1-1.64-.09C75.34,11.2,75,10.36,75.25,9s1-2.14,2.19-1.92a1.67,1.67,0,0,1,1.4,2.24l-.19.67-2.5-.46c-.09.56.07,1,.73,1.12S78.4,10.81,78.4,10.81Zm-.5-1.75c.13-.7,0-1.11-.6-1.21s-.89.24-1,.91Z" fill="#8575b6"/><path d="M82.67,11.44A.4.4,0,0,0,83,12l-.24.79a1.76,1.76,0,0,1-1.06-.55,3.33,3.33,0,0,1-1.29,0,1.29,1.29,0,0,1-1-1.63c.2-.86.82-1.09,1.66-1l1,.14.07-.27c.08-.35-.05-.56-.36-.63-.75-.18-1.64-.3-1.64-.3l.15-.79A15.56,15.56,0,0,1,82,8a1.25,1.25,0,0,1,1.06,1.73ZM81,10.32a.53.53,0,0,0-.65.44c-.07.34,0,.6.32.67a3.69,3.69,0,0,0,1,.05l.23-1Z" fill="#8575b6"/></svg>
