<svg xmlns="http://www.w3.org/2000/svg" viewBox="0 0 118.38 108" width="118.38" height="108"><polygon points="91.55 4.99 26.84 4.99 0.1 54.34 24.91 104.93 93.47 104.93 118.28 54.34 91.55 4.99" fill="#2c2e72"/><line x1="94.35" y1="43.48" x2="90.3" y2="47.53" fill="none" stroke="#fff" stroke-linecap="round" stroke-linejoin="round" stroke-width="1.36"/><line x1="94.22" y1="47.4" x2="90.43" y2="43.61" fill="none" stroke="#fff" stroke-linecap="round" stroke-linejoin="round" stroke-width="1.36"/><line x1="41.29" y1="20.7" x2="37.24" y2="24.74" fill="none" stroke="#fff" stroke-linecap="round" stroke-linejoin="round" stroke-width="1.36"/><line x1="41.16" y1="24.62" x2="37.37" y2="20.82" fill="none" stroke="#fff" stroke-linecap="round" stroke-linejoin="round" stroke-width="1.36"/><line x1="51.88" y1="83.89" x2="47.84" y2="87.93" fill="none" stroke="#fff" stroke-linecap="round" stroke-linejoin="round" stroke-width="1.36"/><line x1="51.76" y1="87.81" x2="47.96" y2="84.01" fill="none" stroke="#fff" stroke-linecap="round" stroke-linejoin="round" stroke-width="1.36"/><rect x="44.67" y="53.51" width="29.49" height="15.81" stroke-width="1.24" stroke="#fff" stroke-linecap="round" stroke-linejoin="round" fill="none"/><path d="M81.35,73.17s.31,5-2.73,5h-39s-2.33-.11-2.33-5.07Z" fill="none" stroke="#fff" stroke-linecap="round" stroke-linejoin="round" stroke-width="1.24"/><polyline points="77.81 73.07 77.81 49.96 40.92 49.96 40.92 73.07" fill="none" stroke="#fff" stroke-linecap="round" stroke-linejoin="round" stroke-width="1.24"/><polyline points="69.19 49.96 69.19 38.71 85.81 38.71" fill="none" stroke="#fff" stroke-linecap="round" stroke-linejoin="round" stroke-width="1.24"/><rect x="86.01" y="36.89" width="3.04" height="3.04" stroke-width="1.24" stroke="#fff" stroke-linecap="round" stroke-linejoin="round" fill="none"/><rect x="67.9" y="21.43" width="3.04" height="3.04" stroke-width="1.24" stroke="#fff" stroke-linecap="round" stroke-linejoin="round" fill="none"/><rect x="57.84" y="29.59" width="3.04" height="3.04" stroke-width="1.24" stroke="#fff" stroke-linecap="round" stroke-linejoin="round" fill="none"/><rect x="83.73" y="50.58" width="3.04" height="3.04" stroke-width="1.24" stroke="#fff" stroke-linecap="round" stroke-linejoin="round" fill="none"/><rect x="66.38" y="84.89" width="3.04" height="3.04" stroke-width="1.24" stroke="#fff" stroke-linecap="round" stroke-linejoin="round" fill="none"/><rect x="93.5" y="58.04" width="3.04" height="3.04" stroke-width="1.24" stroke="#fff" stroke-linecap="round" stroke-linejoin="round" fill="none"/><rect x="86.27" y="75.29" width="3.04" height="3.04" stroke-width="1.24" stroke="#fff" stroke-linecap="round" stroke-linejoin="round" fill="none"/><line x1="77.8" y1="59.39" x2="93.5" y2="59.39" fill="none" stroke="#fff" stroke-linecap="round" stroke-linejoin="round" stroke-width="1.24"/><polyline points="77.81 69.32 87.53 69.32 87.53 75.29" fill="none" stroke="#fff" stroke-linecap="round" stroke-linejoin="round" stroke-width="1.24"/><line x1="59.36" y1="49.96" x2="59.36" y2="32.63" fill="none" stroke="#fff" stroke-linecap="round" stroke-linejoin="round" stroke-width="1.24"/><rect x="54.41" y="59.18" width="9.92" height="7.7" rx="2.04" stroke-width="1.24" stroke="#fff" stroke-linecap="round" stroke-linejoin="round" fill="none"/><path d="M61.85,59.18s0-3.64-2.49-3.64-2.47,3.64-2.47,3.64" fill="none" stroke="#fff" stroke-linecap="round" stroke-linejoin="round" stroke-width="1.24"/><circle cx="59.41" cy="63.44" r="1.17" fill="none" stroke="#fff" stroke-linecap="round" stroke-linejoin="round" stroke-width="1.24"/><polyline points="49.19 49.96 49.19 38.71 32.57 38.71" fill="none" stroke="#fff" stroke-linecap="round" stroke-linejoin="round" stroke-width="1.24"/><rect x="29.33" y="36.89" width="3.04" height="3.04" transform="translate(61.7 76.82) rotate(-180)" stroke-width="1.24" stroke="#fff" stroke-linecap="round" stroke-linejoin="round" fill="none"/><rect x="41.29" y="31.73" width="3.04" height="3.04" transform="translate(85.62 66.51) rotate(-180)" stroke-width="1.24" stroke="#fff" stroke-linecap="round" stroke-linejoin="round" fill="none"/><rect x="31.61" y="50.58" width="3.04" height="3.04" transform="translate(66.27 104.2) rotate(-180)" stroke-width="1.24" stroke="#fff" stroke-linecap="round" stroke-linejoin="round" fill="none"/><rect x="21.85" y="58.04" width="3.04" height="3.04" transform="translate(46.73 119.13) rotate(-180)" stroke-width="1.24" stroke="#fff" stroke-linecap="round" stroke-linejoin="round" fill="none"/><rect x="29.08" y="75.29" width="3.04" height="3.04" transform="translate(61.19 153.62) rotate(-180)" stroke-width="1.24" stroke="#fff" stroke-linecap="round" stroke-linejoin="round" fill="none"/><line x1="40.58" y1="59.39" x2="24.89" y2="59.39" fill="none" stroke="#fff" stroke-linecap="round" stroke-linejoin="round" stroke-width="1.24"/><polyline points="40.58 69.32 30.85 69.32 30.85 75.29" fill="none" stroke="#fff" stroke-linecap="round" stroke-linejoin="round" stroke-width="1.24"/><path d="M59.19,12.27l24.74,3.64,21,38.74-19.13,39L59.19,95.82,32.61,93.67l-19.14-39,21-38.74,24.73-3.64m0-12.1L26.78,4.94,0,54.38l24.86,50.68,34.33,2.77,34.34-2.77,24.85-50.68L91.6,4.94,59.19.17Z" fill="#b0ddf6"/><path d="M32.33,8.53l.17.82s-.64.08-1,.16c-.75.18-.92.62-.71,1.51s.58,1.32,1.36,1.13c.32-.08.92-.29.92-.29l.23.81a9.06,9.06,0,0,1-1.23.42c-1.21.3-1.89-.32-2.26-1.83s0-2.28,1.22-2.57A7.29,7.29,0,0,1,32.33,8.53Z" fill="#2c2e72"/><path d="M37.29,9.64c.26,1.28,0,2.32-1.4,2.62s-2.06-.56-2.33-1.86,0-2.29,1.42-2.58S37,8.37,37.29,9.64Zm-1,.2c-.16-.8-.46-1.31-1.15-1.17s-.77.71-.6,1.53.43,1.37,1.16,1.22S36.47,10.66,36.3,9.84Z" fill="#2c2e72"/><path d="M42.05,11.07l-1,.16,0-.2a2.59,2.59,0,0,1-1,.46c-1.17.19-1.73-.61-2-2s.26-2.31,1.39-2.5a6.19,6.19,0,0,1,.89,0l-.29-1.78,1-.16Zm-1.15-.84L40.51,7.8a4.61,4.61,0,0,0-.82,0c-.54.09-.75.61-.6,1.49s.42,1.34,1,1.25A2.53,2.53,0,0,0,40.9,10.23Z" fill="#2c2e72"/><path d="M46.39,9.65l.11.73a7.56,7.56,0,0,1-1.61.41c-1.34.16-1.93-.54-2.11-2s.35-2.38,1.55-2.52,1.88.5,2,1.74v.71l-2.55.31c.08.57.37.94,1,.86S46.39,9.65,46.39,9.65Zm-1-1.54c-.09-.72-.36-1.06-1-1s-.79.5-.71,1.19Z" fill="#2c2e72"/><path d="M49.59,9.25l-2.48.2-.06-.81,1.21-4.05,1.1-.09L48.19,8.41l1.32-.1L49.38,6.7l1-.08.13,1.6.58,0,.08.94-.58,0,.08,1-1,.08Z" fill="#2c2e72"/><path d="M54.17,7.88l-1.06,0L53.19,10l-1,0L52,4,54.13,4c1.31,0,2,.51,2.09,1.86a1.76,1.76,0,0,1-.87,1.77l1,2.29-1.12,0-.89-2.06Zm0-3L53,4.93,53.08,7l1.17,0a.94.94,0,0,0,.93-1.09A.92.92,0,0,0,54.16,4.89Z" fill="#2c2e72"/><path d="M57.44,9.85l.1-4.33,1,0v.23a3.06,3.06,0,0,1,1.06-.31,1.49,1.49,0,0,1,1.05.41,6.07,6.07,0,0,1,1.51-.35c1.11,0,1.46.78,1.42,2.21L63.5,10l-1,0,0-2.22c0-.8,0-1.31-.64-1.32a2.75,2.75,0,0,0-.94.22,6,6,0,0,1,0,1L61,9.94l-1,0,0-2.23c0-.83-.12-1.3-.69-1.31a2.53,2.53,0,0,0-.85.2l-.08,3.3Z" fill="#2c2e72"/><path d="M69.54,4.51l-2,5.85-1.9-.17-.89-6.1,1.06.09.69,5.16.35,0,1.59-5Z" fill="#2c2e72"/><path d="M73.17,9.86c0,.31.09.4.33.5l-.17.81a1.73,1.73,0,0,1-1.12-.46,3.2,3.2,0,0,1-1.3.13,1.31,1.31,0,0,1-1.12-1.56c.12-.88.73-1.17,1.59-1.11l1,.05,0-.27c0-.36-.09-.57-.42-.61-.77-.11-1.68-.15-1.68-.15l.08-.81a16.79,16.79,0,0,1,1.78.06,1.26,1.26,0,0,1,1.22,1.65Zm-1.78-1a.54.54,0,0,0-.61.51c0,.35.1.6.38.64a3.28,3.28,0,0,0,1,0l.14-1Z" fill="#2c2e72"/><path d="M75.36,5.23l1,.18-1.06,6-1-.17Z" fill="#2c2e72"/><path d="M80.09,8l-.21.82s-.6-.2-.93-.27c-.76-.16-1.1.16-1.29,1.06s0,1.44.74,1.6c.33.07,1,.14,1,.14l-.15.83a8.12,8.12,0,0,1-1.29-.15c-1.22-.25-1.57-1.1-1.24-2.63s1-2,2.2-1.79A7.08,7.08,0,0,1,80.09,8Z" fill="#2c2e72"/><path d="M83.42,12.41l-.17.71a7.74,7.74,0,0,1-1.64-.2c-1.3-.34-1.6-1.21-1.24-2.6s1.18-2.08,2.35-1.79A1.71,1.71,0,0,1,84,10.9l-.25.66-2.49-.64a.86.86,0,0,0,.66,1.18C82.49,12.25,83.42,12.41,83.42,12.41ZM83,10.6c.18-.69,0-1.11-.53-1.26s-.91.18-1.09.85Z" fill="#2c2e72"/><path d="M87.68,13.36a.42.42,0,0,0,.25.54l-.31.78a1.76,1.76,0,0,1-1-.64A3.17,3.17,0,0,1,85.3,14a1.29,1.29,0,0,1-.85-1.71c.26-.86.91-1,1.75-.84l1,.22.08-.26c.11-.35,0-.58-.32-.67-.74-.24-1.63-.42-1.63-.42l.21-.79a14.78,14.78,0,0,1,1.74.35,1.26,1.26,0,0,1,.94,1.83Zm-1.59-1.25a.51.51,0,0,0-.68.4c-.11.33,0,.61.27.69a3.37,3.37,0,0,0,1,.12l.31-1Z" fill="#2c2e72"/></svg>
