<svg xmlns="http://www.w3.org/2000/svg" viewBox="0 0 118.38 108" width="118.38" height="108"><polygon points="91.6 4.94 59.19 0.17 26.78 4.94 0 54.38 24.86 105.06 59.19 107.83 93.53 105.06 118.38 54.38 91.6 4.94" fill="#8b4e21"/><path d="M59.19,12.45l24.62,3.63,20.9,38.57-19,38.85L59.19,95.64,32.72,93.5l-19-38.85,20.9-38.57,24.62-3.63m0-12.28L26.78,4.94,0,54.38l24.86,50.68,34.33,2.77,34.34-2.77,24.85-50.68L91.6,4.94,59.19.17Z" fill="#d06828"/><line x1="25.47" y1="53.2" x2="21.42" y2="57.26" fill="none" stroke="#fff" stroke-linecap="round" stroke-linejoin="round" stroke-width="0.9"/><line x1="25.34" y1="57.13" x2="21.54" y2="53.33" fill="none" stroke="#fff" stroke-linecap="round" stroke-linejoin="round" stroke-width="0.9"/><line x1="92.56" y1="35.19" x2="88.51" y2="39.24" fill="none" stroke="#fff" stroke-linecap="round" stroke-linejoin="round" stroke-width="0.9"/><line x1="92.43" y1="39.11" x2="88.63" y2="35.31" fill="none" stroke="#fff" stroke-linecap="round" stroke-linejoin="round" stroke-width="0.9"/><line x1="90.66" y1="72.96" x2="86.61" y2="77.01" fill="none" stroke="#fff" stroke-linecap="round" stroke-linejoin="round" stroke-width="0.9"/><line x1="90.53" y1="76.88" x2="86.73" y2="73.08" fill="none" stroke="#fff" stroke-linecap="round" stroke-linejoin="round" stroke-width="0.9"/><rect x="38.07" y="60.32" width="41.77" height="26.01" stroke-width="1.19" stroke="#fff" stroke-linecap="round" stroke-linejoin="round" fill="none"/><polyline points="71.94 27.16 76.41 27.16 81.56 60.31 36.35 60.31 41.5 27.16 66.17 27.16" fill="none" stroke="#fff" stroke-linecap="round" stroke-linejoin="round" stroke-width="1.19"/><line x1="67.51" y1="60.32" x2="67.51" y2="86.32" fill="none" stroke="#fff" stroke-linecap="round" stroke-linejoin="round" stroke-width="1.19"/><line x1="67.51" y1="77.75" x2="38.07" y2="77.75" fill="none" stroke="#fff" stroke-linecap="round" stroke-linejoin="round" stroke-width="1.19"/><line x1="79.84" y1="82.71" x2="67.51" y2="82.71" fill="none" stroke="#fff" stroke-linecap="round" stroke-linejoin="round" stroke-width="1.19"/><line x1="42.21" y1="69.6" x2="46.86" y2="74.25" fill="none" stroke="#fff" stroke-linecap="round" stroke-linejoin="round" stroke-width="1.19"/><line x1="42.21" y1="64.46" x2="52.35" y2="74.6" fill="none" stroke="#fff" stroke-linecap="round" stroke-linejoin="round" stroke-width="1.19"/><path d="M76.53,53.75H62.1S69,46.18,76.53,53.75Z" fill="none" stroke="#fff" stroke-linecap="round" stroke-linejoin="round" stroke-width="1.19"/><path d="M55.81,53.75H41.38S48.24,46.18,55.81,53.75Z" fill="none" stroke="#fff" stroke-linecap="round" stroke-linejoin="round" stroke-width="1.19"/><path d="M66.17,44.51H51.74S58.6,36.94,66.17,44.51Z" fill="none" stroke="#fff" stroke-linecap="round" stroke-linejoin="round" stroke-width="1.19"/><rect x="66.17" y="22.12" width="5.76" height="12.48" stroke-width="1.19" stroke="#fff" stroke-linecap="round" stroke-linejoin="round" fill="none"/><circle cx="58.96" cy="42.83" r="1.68" fill="#fff"/><circle cx="69.32" cy="52.07" r="1.68" fill="#fff"/><circle cx="48.96" cy="52.07" r="1.68" fill="#fff"/><line x1="79.84" y1="86.32" x2="88.63" y2="86.32" fill="none" stroke="#fff" stroke-linecap="round" stroke-linejoin="round" stroke-width="1.19"/><line x1="38.07" y1="86.32" x2="29.44" y2="86.32" fill="none" stroke="#fff" stroke-linecap="round" stroke-linejoin="round" stroke-width="1.19"/><line x1="86.61" y1="90.75" x2="32.59" y2="90.75" fill="none" stroke="#fff" stroke-linecap="round" stroke-linejoin="round" stroke-width="1.19"/><circle cx="70.85" cy="19.11" r="0.66" fill="#fff"/><circle cx="67.34" cy="17.34" r="0.66" fill="#fff"/><path d="M42.65,7.14l.1.83s-.63,0-1,.09c-.76.13-.95.54-.8,1.44s.48,1.33,1.26,1.2c.32-.06.93-.22.93-.22l.16.82a8.88,8.88,0,0,1-1.23.33c-1.22.2-1.84-.45-2.1-2s.18-2.24,1.37-2.44A7.46,7.46,0,0,1,42.65,7.14Z" fill="#694f23"/><path d="M47.46,8.59c.16,1.28-.13,2.29-1.57,2.48s-2-.69-2.16-2,.15-2.26,1.58-2.44S47.29,7.33,47.46,8.59Zm-1,.13c-.1-.81-.36-1.32-1-1.24s-.81.65-.7,1.47.32,1.37,1.06,1.28S46.58,9.53,46.47,8.72Z" fill="#694f23"/><path d="M52,10.32l-1,.09,0-.19a2.69,2.69,0,0,1-1,.38c-1.16.1-1.66-.72-1.78-2.11s.41-2.25,1.54-2.35a6.18,6.18,0,0,1,.88,0L50.52,4.4l1-.09ZM51,9.42,50.75,7a3.87,3.87,0,0,0-.81,0c-.53,0-.77.55-.69,1.43s.31,1.35.87,1.3A2.76,2.76,0,0,0,51,9.42Z" fill="#694f23"/><path d="M56.41,9.25l.05.72a7.27,7.27,0,0,1-1.61.29c-1.33.06-1.86-.68-1.93-2.09s.51-2.32,1.7-2.37,1.81.63,1.87,1.86l0,.7-2.54.12c0,.56.29.95,1,.92S56.41,9.25,56.41,9.25Zm-.88-1.6c0-.71-.28-1.06-.87-1s-.81.43-.78,1.11Z" fill="#694f23"/><path d="M59.58,9.09H57.13V8.29l1.5-3.89h1.09L58.27,8.16h1.31V6.56h1V8.15h.57v.94h-.58v1h-1Z" fill="#694f23"/><path d="M65.7,5.23S64.54,5.06,64,5s-1,.19-1,.69.28.69,1.2,1c1.18.46,1.61.74,1.57,1.73,0,1.24-.67,1.77-2,1.72a13.46,13.46,0,0,1-1.8-.26L62,9.1s1.12.17,1.66.19,1.07-.17,1.1-.8c0-.43-.29-.61-1.15-.92C62.39,7.1,62,6.7,62,5.7s.77-1.64,2-1.59a10.75,10.75,0,0,1,1.75.26Z" fill="#694f23"/><path d="M66.8,6l1,.07-.31,4.26-1-.07Zm.12-1.65,1,.07-.08,1-1-.07Z" fill="#694f23"/><path d="M72.51,8.64c-.17,1.58-.84,2.2-2.28,2-.45,0-1.52-.27-1.52-.27l.64-6,1,.1-.2,1.88a3.06,3.06,0,0,1,1-.11C72.21,6.41,72.66,7.24,72.51,8.64Zm-1-.11c.09-.81-.11-1.32-.62-1.37a3.11,3.11,0,0,0-.87,0l-.27,2.54.55.1C71.18,9.93,71.44,9.35,71.52,8.53Z" fill="#694f23"/><path d="M73.84,6.74l1,.14-.61,4.22-1-.14Zm.24-1.64,1,.14-.15,1-1-.14Z" fill="#694f23"/><path d="M79.54,7.7l-.77,4.2-1-.18,0-.21a3.15,3.15,0,0,1-1.11.11c-1.08-.2-1.31-.9-1-2.35l.4-2.2,1,.18-.4,2.18c-.16.88-.12,1.29.42,1.39a3.05,3.05,0,0,0,.91-.06l.59-3.23Z" fill="#694f23"/></svg>
