<svg xmlns="http://www.w3.org/2000/svg" viewBox="0 0 118.38 108" width="118.38" height="108"><polygon points="91.64 4.99 26.94 4.99 0.2 54.34 25.02 104.93 93.57 104.93 118.38 54.34 91.64 4.99" fill="#ef4138"/><line x1="87.41" y1="28.6" x2="83.37" y2="32.64" fill="none" stroke="#fff" stroke-linecap="round" stroke-linejoin="round" stroke-width="1.36"/><line x1="87.29" y1="32.52" x2="83.49" y2="28.72" fill="none" stroke="#fff" stroke-linecap="round" stroke-linejoin="round" stroke-width="1.36"/><line x1="84.12" y1="84.21" x2="80.08" y2="88.25" fill="none" stroke="#fff" stroke-linecap="round" stroke-linejoin="round" stroke-width="1.36"/><line x1="84" y1="88.13" x2="80.2" y2="84.33" fill="none" stroke="#fff" stroke-linecap="round" stroke-linejoin="round" stroke-width="1.36"/><line x1="26.09" y1="53.5" x2="22.04" y2="57.55" fill="none" stroke="#fff" stroke-linecap="round" stroke-linejoin="round" stroke-width="1.36"/><line x1="25.96" y1="57.42" x2="22.17" y2="53.63" fill="none" stroke="#fff" stroke-linecap="round" stroke-linejoin="round" stroke-width="1.36"/><path d="M41.16,40.86c-8.13,17.49,1,40.9,18.15,40.9h0c17.1,0,26.3-23.42,18.14-40.9s-19.19-16.3-19.19-16.3S49.17,23.64,41.16,40.86Z" fill="none" stroke="#fff" stroke-linecap="round" stroke-linejoin="round" stroke-width="1.24"/><polyline points="42.6 37.98 48.56 34.15 53.7 37.98" fill="none" stroke="#fff" stroke-linecap="round" stroke-linejoin="round" stroke-width="1.18"/><polyline points="53.7 37.98 59.67 34.15 64.81 37.98" fill="none" stroke="#fff" stroke-linecap="round" stroke-linejoin="round" stroke-width="1.18"/><polyline points="64.81 37.98 70.78 34.15 75.91 37.98" fill="none" stroke="#fff" stroke-linecap="round" stroke-linejoin="round" stroke-width="1.18"/><polyline points="40.33 66.42 47.11 61.89 52.95 66.42" fill="none" stroke="#fff" stroke-linecap="round" stroke-linejoin="round" stroke-width="1.21"/><polyline points="52.95 66.42 59.73 61.89 65.57 66.42" fill="none" stroke="#fff" stroke-linecap="round" stroke-linejoin="round" stroke-width="1.21"/><polyline points="65.57 66.42 72.35 61.89 78.19 66.42" fill="none" stroke="#fff" stroke-linecap="round" stroke-linejoin="round" stroke-width="1.21"/><ellipse cx="65.57" cy="65.24" rx="2.41" ry="2.51" fill="#fff"/><ellipse cx="52.8" cy="65.24" rx="2.41" ry="2.51" fill="#fff"/><circle cx="59.67" cy="34.51" r="2.51" fill="#fff"/><circle cx="59.67" cy="68.93" r="1.47" fill="#fff"/><circle cx="59.67" cy="77.99" r="1.47" fill="#fff"/><circle cx="59.67" cy="28.32" r="1.47" fill="#fff"/><path d="M76.74,70.12S62,78.06,42.32,70.37" fill="none" stroke="#fff" stroke-linecap="round" stroke-linejoin="round" stroke-width="1.24"/><line x1="80.2" y1="54.56" x2="77.43" y2="54.56" fill="none" stroke="#fff" stroke-linecap="round" stroke-linejoin="round" stroke-width="1.22"/><line x1="72.24" y1="54.56" x2="43.68" y2="54.56" fill="none" stroke-dasharray="5.19 5.19" stroke-linecap="round" stroke-linejoin="round" stroke-width="1.22" stroke="#fff"/><line x1="41.08" y1="54.56" x2="38.31" y2="54.56" fill="none" stroke="#fff" stroke-linecap="round" stroke-linejoin="round" stroke-width="1.22"/><polygon points="59.67 42.56 60.74 44.52 62.69 45.59 60.74 46.65 59.67 48.61 58.6 46.65 56.65 45.59 58.6 44.52 59.67 42.56" fill="#fff"/><polygon points="67.98 42.56 69.05 44.52 71 45.59 69.05 46.65 67.98 48.61 66.91 46.65 64.95 45.59 66.91 44.52 67.98 42.56" fill="#fff"/><polygon points="75.73 42.56 76.8 44.52 78.76 45.59 76.8 46.65 75.73 48.61 74.67 46.65 72.71 45.59 74.67 44.52 75.73 42.56" fill="#fff"/><polygon points="51.36 42.56 52.43 44.52 54.38 45.59 52.43 46.65 51.36 48.61 50.29 46.65 48.34 45.59 50.29 44.52 51.36 42.56" fill="#fff"/><polygon points="43.05 42.56 44.12 44.52 46.07 45.59 44.12 46.65 43.05 48.61 41.98 46.65 40.02 45.59 41.98 44.52 43.05 42.56" fill="#fff"/><path d="M59.19,12.27l24.74,3.64,21,38.74-19.13,39L59.19,95.82,32.61,93.67l-19.14-39,21-38.74,24.73-3.64m0-12.1L26.78,4.94,0,54.38l24.86,50.68,34.33,2.77,34.34-2.77,24.85-50.68L91.6,4.94,59.19.17Z" fill="#a71f24"/><path d="M34.89,8.51l.17.82s-.63.08-1,.16c-.76.18-.93.62-.72,1.51s.58,1.32,1.36,1.13c.32-.08.92-.29.92-.29l.22.81a8.68,8.68,0,0,1-1.22.42c-1.22.3-1.89-.32-2.26-1.83s0-2.28,1.22-2.57A7.29,7.29,0,0,1,34.89,8.51Z" fill="#fff"/><path d="M39.86,9.63c.26,1.28,0,2.32-1.41,2.61s-2.06-.56-2.32-1.86,0-2.29,1.42-2.58S39.6,8.36,39.86,9.63Zm-1,.2c-.16-.81-.46-1.32-1.15-1.18s-.77.71-.61,1.53.43,1.37,1.17,1.22S39,10.64,38.87,9.83Z" fill="#fff"/><path d="M44.62,11.05l-1,.16,0-.2a2.59,2.59,0,0,1-1,.46c-1.17.19-1.73-.61-1.95-2s.25-2.31,1.38-2.5a6.21,6.21,0,0,1,.89,0l-.28-1.78,1-.16Zm-1.15-.84-.39-2.43a4.64,4.64,0,0,0-.82,0c-.54.09-.74.61-.6,1.49s.42,1.34,1,1.25A2.53,2.53,0,0,0,43.47,10.21Z" fill="#fff"/><path d="M48.94,9.64l.11.73a7.36,7.36,0,0,1-1.61.41c-1.33.16-1.93-.55-2.1-2s.35-2.38,1.54-2.52,1.88.5,2,1.74l0,.7-2.56.32c.08.56.37.94,1,.86S48.94,9.64,48.94,9.64Zm-1-1.54c-.08-.72-.35-1.06-1-1s-.78.5-.71,1.19Z" fill="#fff"/><path d="M52.15,9.24l-2.48.2-.06-.81,1.21-4.05,1.1-.09L50.75,8.4l1.32-.1-.13-1.61,1-.08.13,1.6.58,0,.08.94-.58,0,.08,1-1,.08Z" fill="#fff"/><path d="M58,4.86s-1.19-.08-1.7-.06-1,.28-1,.78.33.68,1.3,1c1.23.37,1.68.62,1.72,1.62,0,1.26-.54,1.85-1.93,1.9a12.39,12.39,0,0,1-1.84-.12l0-.88s1.15.09,1.69.07,1.08-.26,1.05-.89c0-.45-.34-.6-1.23-.85-1.29-.37-1.75-.75-1.78-1.76s.64-1.72,1.9-1.77A10.89,10.89,0,0,1,58,4Z" fill="#fff"/><path d="M62.81,5.58l0,4.33h-1V9.68a3.22,3.22,0,0,1-1.1.31c-1.11,0-1.46-.67-1.45-2.17l0-2.26h1l0,2.26c0,.9.11,1.3.67,1.3a3,3,0,0,0,.89-.22l0-3.33Z" fill="#fff"/><path d="M67,5.81,67,6.64s-.63-.1-1-.11c-.78,0-1.06.33-1.11,1.24s.18,1.43,1,1.46c.32,0,1,0,1,0l0,.84a8.47,8.47,0,0,1-1.29.06c-1.25-.06-1.72-.84-1.64-2.4s.67-2.18,1.89-2.11A7.19,7.19,0,0,1,67,5.81Z" fill="#fff"/><path d="M71,9.59l0,.74a8,8,0,0,1-1.66.06C68,10.27,67.55,9.45,67.68,8s.84-2.25,2-2.14,1.73.88,1.62,2.13l-.13.69-2.57-.23c0,.57.16,1,.84,1.06S71,9.59,71,9.59Zm-.66-1.72c.06-.72-.13-1.11-.72-1.16s-.88.32-1,1Z" fill="#fff"/><path d="M75.4,9.83a.42.42,0,0,0,.34.49l-.18.82a1.86,1.86,0,0,1-1.12-.46,3.17,3.17,0,0,1-1.29.13A1.3,1.3,0,0,1,72,9.25c.12-.88.73-1.17,1.59-1.11l1,0,0-.27c0-.36-.09-.57-.42-.61-.77-.11-1.68-.14-1.68-.14l.08-.82a16.57,16.57,0,0,1,1.77.06,1.26,1.26,0,0,1,1.23,1.65Zm-1.77-1a.54.54,0,0,0-.62.51c0,.35.11.6.39.64a3.63,3.63,0,0,0,1,0l.15-1Z" fill="#fff"/><path d="M77.82,7.05l.16,3.6.19,0,1.46-3.3,1,.18-1.87,4.06-1.65-.31-.3-4.45Z" fill="#fff"/><path d="M83.93,11.55a.42.42,0,0,0,.29.52l-.25.8a1.8,1.8,0,0,1-1.07-.56,3.18,3.18,0,0,1-1.3,0,1.3,1.3,0,0,1-1-1.65c.21-.87.84-1.1,1.69-1l1,.14.07-.27A.47.47,0,0,0,83,8.94c-.76-.18-1.66-.3-1.66-.3l.16-.8a16,16,0,0,1,1.76.22,1.27,1.27,0,0,1,1.07,1.76Zm-1.67-1.13a.53.53,0,0,0-.66.45.51.51,0,0,0,.32.67,3.76,3.76,0,0,0,1,.05l.24-1Z" fill="#fff"/></svg>
