<svg xmlns="http://www.w3.org/2000/svg" viewBox="0 0 118.38 108" width="118.38" height="108"><polygon points="91.55 4.5 26.84 4.5 0.1 53.85 24.91 104.45 93.47 104.45 118.28 53.85 91.55 4.5" fill="#a97c51"/><line x1="61.78" y1="24.17" x2="57.73" y2="28.22" fill="none" stroke="#fff" stroke-linecap="round" stroke-linejoin="round" stroke-width="1.36"/><line x1="61.65" y1="28.09" x2="57.86" y2="24.3" fill="none" stroke="#fff" stroke-linecap="round" stroke-linejoin="round" stroke-width="1.36"/><line x1="87.9" y1="34.52" x2="83.86" y2="38.57" fill="none" stroke="#fff" stroke-linecap="round" stroke-linejoin="round" stroke-width="1.36"/><line x1="87.78" y1="38.44" x2="83.98" y2="34.65" fill="none" stroke="#fff" stroke-linecap="round" stroke-linejoin="round" stroke-width="1.36"/><line x1="27.57" y1="46.36" x2="23.52" y2="50.41" fill="none" stroke="#fff" stroke-linecap="round" stroke-linejoin="round" stroke-width="1.36"/><line x1="27.44" y1="50.28" x2="23.65" y2="46.49" fill="none" stroke="#fff" stroke-linecap="round" stroke-linejoin="round" stroke-width="1.36"/><line x1="29.11" y1="74.36" x2="91.32" y2="74.01" fill="none" stroke="#fff" stroke-linecap="round" stroke-linejoin="round" stroke-width="1.36"/><polyline points="53.76 61.34 46.84 33.85 40.02 60.98" fill="none" stroke="#fff" stroke-linecap="round" stroke-linejoin="round" stroke-width="1.36"/><polygon points="58.27 65.32 54.88 51.86 51.49 65.32 58.27 65.32" fill="#fff"/><polygon points="42.2 65.32 38.81 51.86 35.42 65.32 42.2 65.32" fill="#fff"/><polyline points="49.87 73.62 46.84 33.85 43.82 73.62" fill="none" stroke="#fff" stroke-linecap="round" stroke-linejoin="round" stroke-width="1.36"/><line x1="56.85" y1="73.62" x2="56.85" y2="89.25" fill="none" stroke="#fff" stroke-linecap="round" stroke-linejoin="round" stroke-width="1.36"/><line x1="36.83" y1="73.62" x2="36.83" y2="89.25" fill="none" stroke="#fff" stroke-linecap="round" stroke-linejoin="round" stroke-width="1.36"/><rect x="36.83" y="63.68" width="3.95" height="9.94" stroke-width="1.36" stroke="#fff" stroke-linecap="round" stroke-linejoin="round" fill="none"/><rect x="52.9" y="63.68" width="3.95" height="9.94" stroke-width="1.36" stroke="#fff" stroke-linecap="round" stroke-linejoin="round" fill="none"/><circle cx="41.26" cy="78.25" r="2.31" fill="#fff"/><path d="M45.45,89a.76.76,0,0,1-.75-.75V85.9A3.42,3.42,0,0,1,46.51,83a.64.64,0,0,1,.33-.08.66.66,0,0,1,.34.08A3.42,3.42,0,0,1,49,85.9v2.38a.76.76,0,0,1-.75.75Z" fill="#fff"/><path d="M54.88,68.24a.73.73,0,0,0-.73.73v2H55.6V69A.73.73,0,0,0,54.88,68.24Z" fill="#fff"/><path d="M38.81,68.24a.73.73,0,0,0-.72.73v2h1.44V69A.73.73,0,0,0,38.81,68.24Z" fill="#fff"/><circle cx="46.84" cy="25.64" r="0.83" fill="none" stroke="#fff" stroke-linecap="round" stroke-linejoin="round" stroke-width="1.36"/><ellipse cx="46.84" cy="33.28" rx="1.3" ry="0.4" fill="none" stroke="#fff" stroke-linecap="round" stroke-linejoin="round" stroke-width="1.36"/><line x1="46.84" y1="32.88" x2="46.84" y2="21.91" fill="none" stroke="#fff" stroke-linecap="round" stroke-linejoin="round" stroke-width="1.36"/><polyline points="56.93 59.66 74.6 41.99 92.54 59.92" fill="none" stroke="#fff" stroke-linecap="round" stroke-linejoin="round" stroke-width="1.36"/><path d="M73.38,56.63a.76.76,0,0,1-.75-.75V53.5a3.43,3.43,0,0,1,1.8-2.94.81.81,0,0,1,.34-.08.77.77,0,0,1,.34.08,3.42,3.42,0,0,1,1.81,2.94v2.38a.76.76,0,0,1-.75.75Z" fill="#fff"/><path d="M73.38,89a.76.76,0,0,1-.75-.75V85.9A3.43,3.43,0,0,1,74.43,83a.68.68,0,0,1,.34-.08.66.66,0,0,1,.34.08,3.42,3.42,0,0,1,1.81,2.94v2.38a.76.76,0,0,1-.75.75Z" fill="#fff"/><path d="M65.27,68.82a.75.75,0,0,1-.75-.75V65.69a3.43,3.43,0,0,1,1.8-2.94.76.76,0,0,1,.68,0,3.44,3.44,0,0,1,1.81,2.94v2.38a.76.76,0,0,1-.76.75Z" fill="#fff"/><path d="M82.17,67.43a.75.75,0,0,1-.75-.75V64.31a3.4,3.4,0,0,1,1.81-2.94.64.64,0,0,1,.33-.08.66.66,0,0,1,.34.08,3.4,3.4,0,0,1,1.81,2.94v2.37a.75.75,0,0,1-.75.75Z" fill="#fff"/><circle cx="92.54" cy="59.92" r="2.07" fill="#fff"/><circle cx="29.43" cy="74.36" r="2.07" fill="#fff"/><circle cx="91.19" cy="73.78" r="2.07" fill="#fff"/><path d="M59.19,12.27l24.74,3.64,21,38.74-19.14,39L59.19,95.82,32.61,93.67l-19.14-39,21-38.74,24.73-3.64m0-12.1L26.78,4.94,0,54.38l24.86,50.68,34.33,2.77,34.34-2.77,24.85-50.68L91.6,4.94,59.19.17Z" fill="#d39a6b"/><path d="M34.79,8.53l.17.82s-.63.08-1,.16c-.76.19-.93.62-.72,1.51s.58,1.32,1.37,1.13c.32-.08.92-.29.92-.29l.22.81a9.06,9.06,0,0,1-1.23.42c-1.21.3-1.88-.31-2.25-1.83s0-2.28,1.21-2.57A7.29,7.29,0,0,1,34.79,8.53Z" fill="#87633f"/><path d="M39.75,9.64c.26,1.28,0,2.32-1.4,2.62S36.29,11.7,36,10.4s0-2.29,1.42-2.58S39.49,8.37,39.75,9.64Zm-1,.2c-.17-.8-.47-1.31-1.16-1.17s-.77.71-.6,1.53.43,1.37,1.17,1.22S38.93,10.66,38.77,9.84Z" fill="#87633f"/><path d="M44.51,11.07l-1,.16,0-.2a2.59,2.59,0,0,1-1,.46c-1.17.19-1.73-.61-1.95-2s.25-2.31,1.38-2.5a6.21,6.21,0,0,1,.89,0l-.28-1.78,1-.16Zm-1.14-.84L43,7.8a4.64,4.64,0,0,0-.82,0c-.54.09-.74.61-.6,1.49s.42,1.34,1,1.25A2.65,2.65,0,0,0,43.37,10.23Z" fill="#87633f"/><path d="M48.85,9.65l.11.73a7.56,7.56,0,0,1-1.61.41c-1.34.16-1.93-.54-2.1-2s.34-2.38,1.54-2.52,1.88.5,2,1.74l0,.71-2.56.31c.08.57.37.94,1,.86S48.85,9.65,48.85,9.65Zm-1-1.54c-.09-.72-.36-1.06-1-1s-.79.5-.71,1.19Z" fill="#87633f"/><path d="M52.05,9.25l-2.48.2-.06-.81,1.21-4.05,1.1-.09L50.66,8.41,52,8.31,51.85,6.7l1-.08L53,8.22l.57,0,.08.94-.58.05.09,1-1,.08Z" fill="#87633f"/><path d="M53.76,4.07l4.05-.17,0,1-1.5.07.21,5-1,0-.21-5-1.54.07Z" fill="#87633f"/><path d="M58.47,10.66a1.31,1.31,0,0,1,.64-1.06A.76.76,0,0,1,58.82,9a2.37,2.37,0,0,1,.33-.71A1.39,1.39,0,0,1,58.52,7a1.52,1.52,0,0,1,1.71-1.52,4.75,4.75,0,0,1,.82.11l1.33,0v.79h-.63A1,1,0,0,1,62,7c0,1.1-.66,1.5-1.74,1.5a2,2,0,0,1-.34,0,1.91,1.91,0,0,0-.1.39c0,.26.06.32.86.32,1.26,0,1.78.3,1.78,1.28S61.5,12,60.44,12,58.47,11.64,58.47,10.66Zm1.29-.7a.76.76,0,0,0-.31.6c0,.37.4.54,1,.54s1-.2,1-.59-.29-.5-.87-.5C60.28,10,59.76,10,59.76,10ZM61,7c0-.47-.25-.71-.75-.71a.63.63,0,0,0-.71.71.63.63,0,0,0,.7.71C60.68,7.7,61,7.48,61,7Z" fill="#87633f"/><path d="M63.68,3.9l1.66.1,1,4.7L68,4.15l1.64.1-.35,6-1-.05.28-4.8H68.4L66.83,9.85l-1-.06L64.73,5.16h-.12L64.33,10l-1-.06Z" fill="#87633f"/><path d="M74.54,6.52,74,10.82l-1-.12,0-.22a3,3,0,0,1-1.12.18c-1.1-.13-1.38-.83-1.19-2.32L71,6.09l1,.12-.27,2.24c-.11.9,0,1.31.51,1.37a2.87,2.87,0,0,0,.92-.11l.4-3.31Z" fill="#87633f"/><path d="M76,6.74l1,.16-.08.45A3.47,3.47,0,0,1,78.19,7L78,8a4.75,4.75,0,0,0-1.31.21l-.48,2.92-1-.16Z" fill="#87633f"/><path d="M81.6,11.34l-.13.72a7.56,7.56,0,0,1-1.66-.13c-1.31-.27-1.65-1.13-1.36-2.53s1.09-2.14,2.27-1.9a1.69,1.69,0,0,1,1.36,2.3l-.21.68L79.35,10c-.1.57.05,1,.71,1.15S81.6,11.34,81.6,11.34Zm-.46-1.79c.14-.7,0-1.11-.59-1.23s-.9.22-1,.89Z" fill="#87633f"/><path d="M86.29,9.86s-1-.4-1.44-.51-.69,0-.77.29.08.37.72.66c1,.46,1.31.83,1.1,1.66s-1,1.17-2,.92a10.26,10.26,0,0,1-1.51-.59l.24-.77s1,.39,1.39.5.8.05.89-.28,0-.37-.65-.66c-.89-.43-1.4-.8-1.18-1.66A1.4,1.4,0,0,1,85,8.49a10.67,10.67,0,0,1,1.5.59Z" fill="#87633f"/></svg>
