<svg xmlns="http://www.w3.org/2000/svg" viewBox="0 0 118.38 108" width="118.38" height="108"><polygon points="91.6 4.94 59.19 0.17 26.78 4.94 0 54.38 24.86 105.06 59.19 107.83 93.53 105.06 118.38 54.38 91.6 4.94" fill="#f7c31a"/><path d="M59.19,12.45l24.62,3.63,20.9,38.57-19,38.85L59.19,95.64,32.72,93.5l-19-38.85,20.9-38.57,24.62-3.63m0-12.28L26.78,4.94,0,54.38l24.86,50.68,34.33,2.77,34.34-2.77,24.85-50.68L91.6,4.94,59.19.17Z" fill="#faef54"/><path d="M46.08,62.65a18.16,18.16,0,1,1,26.24-.1" fill="none" stroke="#fff" stroke-linecap="round" stroke-linejoin="round" stroke-width="1.39"/><path d="M45.24,61.75a39,39,0,0,1,3.54,4.42A12.91,12.91,0,0,1,51,73.42v8.71A2.88,2.88,0,0,0,53.86,85l10.49.07a3,3,0,0,0,3-3V73.42a13,13,0,0,1,2.2-7.25A39,39,0,0,1,73,61.75" fill="none" stroke="#fff" stroke-linecap="round" stroke-linejoin="round" stroke-width="1.39"/><line x1="67.3" y1="73.42" x2="50.98" y2="73.42" fill="none" stroke="#fff" stroke-linecap="round" stroke-linejoin="round" stroke-width="1.39"/><line x1="59.16" y1="25" x2="59.16" y2="16.16" fill="none" stroke="#fff" stroke-linecap="round" stroke-linejoin="round" stroke-width="1.39"/><line x1="83.41" y1="50.06" x2="97.08" y2="50.06" fill="none" stroke="#fff" stroke-linecap="round" stroke-linejoin="round" stroke-width="1.39"/><line x1="21.06" y1="50.06" x2="34.97" y2="50.06" fill="none" stroke="#fff" stroke-linecap="round" stroke-linejoin="round" stroke-width="1.39"/><line x1="36.38" y1="27.25" x2="42.06" y2="32.93" fill="none" stroke="#fff" stroke-linecap="round" stroke-linejoin="round" stroke-width="1.39"/><line x1="76.32" y1="32.93" x2="82" y2="27.25" fill="none" stroke="#fff" stroke-linecap="round" stroke-linejoin="round" stroke-width="1.39"/><path d="M63.65,47.4a.37.37,0,0,1,.07.44L58.14,59.79a.45.45,0,0,1-.43.26l-.15,0a.57.57,0,0,1-.26-.2.36.36,0,0,1,0-.3l2-8.34-4.18,1s-.06,0-.13,0a.42.42,0,0,1-.31-.13.35.35,0,0,1-.13-.38L56.6,43.2a.41.41,0,0,1,.17-.24.47.47,0,0,1,.28-.09h3.38a.42.42,0,0,1,.33.13.4.4,0,0,1,.13.31.81.81,0,0,1,0,.19l-1.78,4.77,4.09-1a.3.3,0,0,1,.13,0A.47.47,0,0,1,63.65,47.4Z" fill="none" stroke="#fff" stroke-linecap="round" stroke-linejoin="round" stroke-width="0.97"/><line x1="30.97" y1="60.62" x2="26.92" y2="64.67" fill="none" stroke="#fff" stroke-linecap="round" stroke-linejoin="round" stroke-width="0.9"/><line x1="30.84" y1="64.55" x2="27.04" y2="60.75" fill="none" stroke="#fff" stroke-linecap="round" stroke-linejoin="round" stroke-width="0.9"/><line x1="83.54" y1="76.06" x2="79.49" y2="80.11" fill="none" stroke="#fff" stroke-linecap="round" stroke-linejoin="round" stroke-width="0.9"/><line x1="83.41" y1="79.99" x2="79.61" y2="76.18" fill="none" stroke="#fff" stroke-linecap="round" stroke-linejoin="round" stroke-width="0.9"/><line x1="72.81" y1="20.3" x2="68.76" y2="24.35" fill="none" stroke="#fff" stroke-linecap="round" stroke-linejoin="round" stroke-width="0.9"/><line x1="72.69" y1="24.22" x2="68.89" y2="20.42" fill="none" stroke="#fff" stroke-linecap="round" stroke-linejoin="round" stroke-width="0.9"/><path d="M33.38,9.2l.18.81s-.62.09-.94.18c-.74.19-.91.62-.68,1.5s.59,1.29,1.36,1.09c.32-.08.91-.3.91-.3l.23.8a7.91,7.91,0,0,1-1.2.43c-1.19.31-1.87-.28-2.26-1.77s0-2.25,1.16-2.56A7,7,0,0,1,33.38,9.2Z" fill="#f6a81d"/><path d="M38.3,10.22c.28,1.26.08,2.28-1.34,2.6s-2-.51-2.33-1.79S34.57,8.78,36,8.46,38,9,38.3,10.22Zm-1,.21c-.18-.79-.48-1.28-1.16-1.13s-.75.71-.57,1.52.45,1.33,1.17,1.17S37.51,11.23,37.33,10.43Z" fill="#f6a81d"/><path d="M43,11.53l-1,.18,0-.19a2.52,2.52,0,0,1-1,.46c-1.15.21-1.72-.56-2-1.94s.22-2.28,1.33-2.48a5.55,5.55,0,0,1,.88,0L41,5.76l1-.17Zm-1.15-.8-.43-2.39a4.9,4.9,0,0,0-.81.05c-.53.1-.72.62-.57,1.49s.44,1.31,1,1.21A2.61,2.61,0,0,0,41.87,10.73Z" fill="#f6a81d"/><path d="M47.27,10.07l.12.71a7.26,7.26,0,0,1-1.58.43c-1.32.19-1.91-.5-2.11-1.9S44,7,45.18,6.79s1.86.47,2,1.69l0,.69-2.52.36c.09.55.38.92,1,.83S47.27,10.07,47.27,10.07Zm-1-1.51c-.09-.7-.37-1-1-1s-.77.5-.68,1.18Z" fill="#f6a81d"/><path d="M50.42,9.61,48,9.85l-.08-.8L49,5l1.09-.11L49,8.81l1.3-.13-.16-1.59,1-.1.15,1.59.58-.06.09.93-.57.05.1,1-1,.1Z" fill="#f6a81d"/><path d="M52,4.47l4-.25.05,1-1.48.09.3,5-1,.06-.3-4.95-1.52.09Z" fill="#f6a81d"/><path d="M56.83,4.21l1,0,0,1-1,0Zm.05,1.66,1,0L58,10.1l-1,0Z" fill="#f6a81d"/><path d="M59.22,10l.07-4.27,1,0V6a3.15,3.15,0,0,1,1-.32,1.5,1.5,0,0,1,1.05.4,6.18,6.18,0,0,1,1.49-.36c1.09,0,1.44.75,1.42,2.17l0,2.23-1,0,0-2.19c0-.79,0-1.29-.64-1.3a2.5,2.5,0,0,0-.92.23,8.76,8.76,0,0,1,0,1l0,2.22-1,0,0-2.2c0-.82-.12-1.28-.69-1.29a2.37,2.37,0,0,0-.84.21l0,3.26Z" fill="#f6a81d"/><path d="M66.64,6l1,.06-.26,4.26-1-.06Zm.1-1.66,1,.06-.07,1-1-.06Z" fill="#f6a81d"/><path d="M71.83,7.3s-1-.24-1.48-.28-.68.08-.71.4.14.35.8.53c1,.3,1.41.61,1.33,1.45-.1,1-.81,1.3-1.78,1.21a10.45,10.45,0,0,1-1.56-.35l.11-.79s1,.23,1.43.28.79-.07.83-.41-.1-.36-.73-.55c-.94-.29-1.49-.56-1.4-1.44a1.37,1.37,0,0,1,1.69-1.19,9.82,9.82,0,0,1,1.56.35Z" fill="#f6a81d"/><path d="M76.46,9.15c-.18,1.28-.73,2.17-2.17,2s-1.73-1.2-1.54-2.49.74-2.14,2.17-1.93S76.64,7.89,76.46,9.15Zm-1-.13c.12-.81,0-1.38-.68-1.48s-1,.4-1.07,1.23,0,1.41.68,1.51S75.37,9.83,75.48,9Z" fill="#f6a81d"/><path d="M80.41,10.91c0,.3.07.39.3.5l-.21.8a1.75,1.75,0,0,1-1.08-.52,3.19,3.19,0,0,1-1.28.06,1.28,1.28,0,0,1-1-1.59c.17-.87.78-1.12,1.62-1l1,.1L79.79,9c.06-.35-.07-.56-.39-.62-.76-.15-1.65-.23-1.65-.23l.12-.8a14.34,14.34,0,0,1,1.75.15,1.25,1.25,0,0,1,1.12,1.69Zm-1.7-1.06a.53.53,0,0,0-.63.47c-.06.33.07.6.35.65a3.26,3.26,0,0,0,1,0l.2-1Z" fill="#f6a81d"/><path d="M82.42,8.17l1,.23-.11.44a3.41,3.41,0,0,1,1.34-.26l-.24,1a4.71,4.71,0,0,0-1.3.11l-.67,2.85-1-.23Z" fill="#f6a81d"/><path d="M87.75,12.77a.41.41,0,0,0,.26.53l-.28.78a1.81,1.81,0,0,1-1-.6,3.28,3.28,0,0,1-1.28-.05,1.3,1.3,0,0,1-.89-1.68c.24-.85.87-1,1.7-.87l1,.19.08-.26c.09-.35,0-.57-.34-.66-.74-.21-1.62-.37-1.62-.37L85.52,9a15.08,15.08,0,0,1,1.73.3,1.24,1.24,0,0,1,1,1.78Zm-1.61-1.19a.51.51,0,0,0-.66.41c-.1.33,0,.6.28.68a3.78,3.78,0,0,0,1,.1l.28-1Z" fill="#f6a81d"/></svg>
