<svg xmlns="http://www.w3.org/2000/svg" viewBox="0 0 1200 367.6"><path d="M380.5 69.5h-33.1V34.7h-34.7V0h-69.5v34.7h-34.7v34.8h-34.8V34.7H139V0H69.5v34.7H34.7v34.8H0v104.2h34.7v34.8h34.8v34.7h34.7v34.7H139v34.8h34.7v34.7h34.8v-34.7h34.7v-34.8h34.7v-34.7h34.8v-34.7h34.7v-34.8h34.8V69.5h-1.7z" fill="#00f"/><path d="M406.8 105.9h-24.6v67.8h-34.8v34.8h-34.7v34.7h-34.8v34.7h-34.7v34.8h-34.7v54.9h33v-34.8h34.8v-34.7H311v-34.7h34.8v-34.8h34.7v-34.7h26.3v-88z" fill="#f5bcd6"/><path d="M554.2 147.6a162.9 162.9 0 0 1-34.2 4.1q-15.2 0-24.3-3.8a30 30 0 0 1-14.3-12 53.2 53.2 0 0 1-7.2-19.3 163.8 163.8 0 0 1-2-27.9q0-35.2 9.9-49.1 9.9-13.9 36.6-13.9 15.4 0 35.6 4.8l-.7 19.7a203.1 203.1 0 0 0-29.4-2.7q-11.7 0-16.7 3.1-5 3.1-7.4 11.9-2.4 8.8-2.4 29.9 0 21.1 4.9 29.2 4.9 8.1 19.7 8.1a211 211 0 0 0 31.4-2.5zm23 2V27.9h24.7v121.7zM696.1 27.9H722l-28.3 121.7h-45.6L619.9 27.9h25.9l21.1 100.2h8zm43.3 121.7V27.9H764v121.7zm129.6-2a162.9 162.9 0 0 1-34.2 4.1q-15.2 0-24.3-3.8a30 30 0 0 1-14.3-12 53.2 53.2 0 0 1-7.2-19.3 163.5 163.5 0 0 1-2-27.9q0-35.2 9.9-49.1 9.9-13.9 36.6-13.9 15.4 0 35.6 4.8l-.7 19.7a203.1 203.1 0 0 0-29.4-2.6q-11.7 0-16.7 3.1-5 3.1-7.4 11.9-2.4 8.8-2.4 29.9 0 21.1 4.9 29.2 4.9 8.1 19.7 8.1a211 211 0 0 0 31.4-2.5zM466.2 254v-21.8h89.4V254h-32.2v99.8h-24.7V254zm106.3 99.9V232.2h78.7v21.5h-54v28.4h43.3v21.1h-43.3v29.2h54v21.5zm177.2-2a162.7 162.7 0 0 1-34.2 4.1q-15.2 0-24.3-3.8a30 30 0 0 1-14.3-12 53.1 53.1 0 0 1-7.2-19.3 163.6 163.6 0 0 1-2-27.9q0-35.2 9.9-49.1 9.9-13.9 36.6-13.9 15.4 0 35.6 4.8l-.7 19.7a203.1 203.1 0 0 0-29.4-2.7q-11.7 0-16.7 3.1-5 3.1-7.4 11.9-2.4 8.8-2.4 29.9 0 21.1 4.9 29.2 4.9 8.1 19.7 8.1a211 211 0 0 0 31.4-2.5zm91 2v-50.5h-45.2v50.4h-24.7V232.2h24.7V282h45.3v-49.8h24.7v121.7zm124.9-19.4q23.8 0 23.8-29l-3.8 1.3q-12.3 4.1-18.8 4.1-19.5 0-30-9.5-10.5-9.5-10.6-28.2 0-18.7 11.6-29.2 11.6-10.5 33-10.5 21.4 0 32.6 15.8 11.2 15.8 11.3 47 0 31.2-12.5 45.3-12.5 14.1-36.6 14.4a124.9 124.9 0 0 1-29.9-3.9l-5.5-1.3 2.1-19a230.2 230.2 0 0 0 33.3 2.7zm3.4-45.1a55.2 55.2 0 0 0 17.7-3.2l2.9-.9q0-30.2-20-30.2-8.6 0-13.2 4.7-4.6 4.7-4.7 13.3 0 16.4 17.3 16.4zm129.5-53.6v118h-24.7v-90.1l-25.6 16.5-11.2-18.5 39-25.9zm101.5 0v118h-24.7v-90.1l-25.6 16.5-11.3-18.4 39-25.9z"/></svg>