<svg xmlns="http://www.w3.org/2000/svg" width="663" height="205.67" viewBox="0 0 663 205.67"><path fill="#3c9ed8" d="M228.63,135.53h52.5v13.79H243.8V164h32.9v13.79H243.8v26.69H228.63Zm61.56,34.67V170c0-19.61,15.47-35.67,36.75-35.67s36.55,15.87,36.55,35.47v.2c0,19.6-15.47,35.66-36.75,35.66S290.19,189.81,290.19,170.2Zm57.44,0V170c0-11.83-8.67-21.68-20.89-21.68s-20.69,9.66-20.69,21.48v.2c0,11.82,8.67,21.67,20.89,21.67S347.63,182,347.63,170.2Zm28.25-34.67H407.4c8.77,0,15.57,2.46,20.1,7,3.84,3.84,5.91,9.26,5.91,15.76v.2c0,11.13-6,18.13-14.78,21.38l16.85,24.62H417.75L403,182.42H391.05v22.06H375.88ZM406.42,169c7.39,0,11.62-3.94,11.62-9.75v-.2c0-6.5-4.53-9.85-11.92-9.85H391.05V169Zm91.88-34h14l29.55,69.45H526L519.67,189H490.51l-6.3,15.46H468.74Zm15.95,40.59-9.16-22.36-9.16,22.36Zm38.22-40.09h15.17v55.16H602v13.79H552.47Zm61,0h15.17v55.16H663v13.79H613.45ZM225.82,55.33V55c0-30.25,22.8-55,55.48-55,20.06,0,32.07,6.69,41.95,16.41l-14.9,17.18c-8.2-7.45-16.56-12-27.2-12-17.94,0-30.86,14.9-30.86,33.14V55c0,18.24,12.62,33.44,30.86,33.44,12.16,0,19.6-4.86,28-12.46L324,91c-10.94,11.71-23.1,19-43.62,19C249.08,110,225.82,85.88,225.82,55.33Zm107.14,0V55c0-30.25,23.86-55,56.69-55S446,24.47,446,54.72V55c0,30.25-23.86,55-56.69,55S333,85.57,333,55.33Zm88.61,0V55c0-18.24-13.37-33.44-32.22-33.44s-31.92,14.9-31.92,33.14V55c0,18.24,13.37,33.44,32.22,33.44S421.57,73.56,421.57,55.33ZM464.83,1.82h41.49c33.44,0,56.54,23,56.54,52.9V55c0,29.94-23.1,53.2-56.54,53.2H464.83Zm41.49,85.27c19.15,0,32.07-12.92,32.07-31.76V55c0-18.85-12.92-32.07-32.07-32.07H488.23V87.09ZM581.65,1.82H661.9V22.65h-57V44.23h50.15V65.05H604.91V87.4h57.75v20.82h-81Z"/><path fill="#8fd6e8" stroke="#3c9fd6" stroke-miterlimit="10" stroke-width="7.06" d="M198.54,103.24A97.51,97.51,0,1,1,101,5.73,97.51,97.51,0,0,1,198.54,103.24Z"/><path fill="#fff" stroke="#3c9fd6" stroke-miterlimit="10" stroke-width="3.22" d="M184.82,103.24A83.79,83.79,0,1,1,101,19.45,83.79,83.79,0,0,1,184.82,103.24Z"/><path fill="#3c9ed8" d="M154.66,103.27v0a7.09,7.09,0,0,1,14.17,0v0a7.09,7.09,0,0,1-14.17,0Zm9.79,0v0a2.78,2.78,0,0,0-2.72-2.93A2.74,2.74,0,0,0,159,103.2v0a2.71,2.71,0,1,0,5.41,0Zm-69.77,53.5h5c5.15,0,7.73,2.54,7.73,6.37v0c0,3.84-2.63,6.56-7.88,6.56H94.68ZM99.74,166c2,0,3.27-.81,3.27-2.69v0c0-1.88-1.28-2.69-3.27-2.69H99V166ZM94.6,42v0a6.7,6.7,0,0,1,6.9-6.76,6.36,6.36,0,0,1,5.87,3.37l-3.58,2.1a2.51,2.51,0,0,0-2.35-1.58A2.59,2.59,0,0,0,99,41.93v0c0,1.69,1,2.88,2.43,2.88a2.67,2.67,0,0,0,2.45-1.63l3.57,2A6.87,6.87,0,0,1,94.6,42ZM35.67,96.75H46.74v3.56H39.93v1.31h6.34v3.14H39.93v1.41h6.9v3.56H35.67Z"/><path fill="#8fd6e8" d="M113.74,103.84,126.54,78,101,90.69,75.52,78.05l12.82,25.84L76.16,128.44l24.91-12.35,24.87,12.34Zm-12.66-.91,0,0,0,0,0,0Z"/><path fill="#3c9ed8" d="M109.4,111.58l40.27-8.35-40.29-8.37L101,54.6,92.66,94.89,52.4,103.25l40.29,8.36L101,151.87Zm-8.34-8.37v.06H101v-.06Z"/></svg>