<svg xmlns="http://www.w3.org/2000/svg" viewBox="-260 522 285 53" width="200" height="37.19"><defs aria-hidden="true"><clipPath id="a"><path d="M-260 522H25v53h-285z"/></clipPath></defs><g clip-path="url(#a)" fill="#5F95F2"><path d="M-220 541l3 4 6-12c.022-.022-.022-.022 0 0l17 35c.022.022.044 0 0 0h-15c-.022 0 .022.022 0 0l-21-43a3.764 3.764 0 0 0-3-2 3.716 3.716 0 0 0-3 2l-23 44c-.616 1.188.01 3.01 1 4a2.689 2.689 0 0 0 2 1h23c1.188 0 1.472-.944 2-2l4-8c1.539-3.079 1-8 1-8l-1-6c-.022-.022.022-.022 0 0l-8 18c0 .022.022 0 0 0h-16c-.022 0-.022.022 0 0l18-35c.022-.022-.022-.022 0 0l19 39a3.669 3.669 0 0 0 3 2h22a2.726 2.726 0 0 0 2-1 3.9 3.9 0 0 0 1-4l-22-44a3.764 3.764 0 0 0-3-2c-1.21 0-1.472.944-2 2l-7 12a4.451 4.451 0 0 0 0 4zm52 1.173a5.221 5.221 0 0 1 1.4.55 6.06 6.06 0 0 1 1.167.9 8.035 8.035 0 0 1 .984 1.217 3.968 3.968 0 0 1 .85-.967 6.966 6.966 0 0 1 1.334-.934 8.54 8.54 0 0 1 1.734-.684 7.313 7.313 0 0 1 2.034-.267 6.5 6.5 0 0 1 2.984.65 5.966 5.966 0 0 1 2.117 1.8 7.824 7.824 0 0 1 1.271 2.652 12.027 12.027 0 0 1 .417 3.234v9.82a1.311 1.311 0 0 1-.25.867.97.97 0 0 1-.784.3h-3.467a1.316 1.316 0 0 1-.884-.217 1.129 1.129 0 0 1-.233-.85v-9.9a3.488 3.488 0 0 0-.2-1.2 2.959 2.959 0 0 0-.567-.967 2.706 2.706 0 0 0-.884-.65 2.893 2.893 0 0 0-1.15-.233 2.678 2.678 0 0 0-1.084.217 2.989 2.989 0 0 0-.9.617 2.75 2.75 0 0 0-.617.967 3.253 3.253 0 0 0-.233 1.234v9.82a1.311 1.311 0 0 1-.25.867.97.97 0 0 1-.784.3h-3.418a1.316 1.316 0 0 1-.884-.217 1.129 1.129 0 0 1-.233-.85v-9.9a3.939 3.939 0 0 0-.183-1.2 3.2 3.2 0 0 0-.533-.967 2.749 2.749 0 0 0-.85-.65 2.755 2.755 0 0 0-1.135-.242 2.523 2.523 0 0 0-1.05.217 3.137 3.137 0 0 0-.934.617 3.645 3.645 0 0 0-.684.95 3 3 0 0 0-.317 1.234v9.886a1.492 1.492 0 0 1-.1.517.779.779 0 0 1-.3.383 1.4 1.4 0 0 1-.367.167 1.459 1.459 0 0 1-.4.05h-3.4a1.2 1.2 0 0 1-.934-.317 1.23 1.23 0 0 1-.283-.832V546.39a1.488 1.488 0 0 1 .867-1.317c7.833-3.833 11.133-2.9 11.133-2.9zm40.049 18.473a2.625 2.625 0 0 0 .133-.667c.017-.233.033-.483.033-.75v-.634c-.283.317-.584.617-.884.917a5.853 5.853 0 0 1-1 .8 5.576 5.576 0 0 1-1.234.567 5.237 5.237 0 0 1-1.6.217 10.208 10.208 0 0 1-3.751-.684 9.089 9.089 0 0 1-2.984-1.917 8.714 8.714 0 0 1-1.967-2.968 9.993 9.993 0 0 1-.7-3.787 10.531 10.531 0 0 1 .7-3.851 9.273 9.273 0 0 1 1.967-3.118 9 9 0 0 1 2.984-2.084 9.305 9.305 0 0 1 3.751-.75 6.089 6.089 0 0 1 1.7.217 5.272 5.272 0 0 1 1.398.586 6.623 6.623 0 0 1 1.167.867 11.452 11.452 0 0 1 .967 1.05l.417-1.334c.067-.167.117-.317.167-.467a1.2 1.2 0 0 1 .2-.35.772.772 0 0 1 .3-.217 1.3 1.3 0 0 1 .483-.067h2.217a1.81 1.81 0 0 1 .417.067 1.259 1.259 0 0 1 .383.217 1.188 1.188 0 0 1 .283.35 1.088 1.088 0 0 1 .1.483v15.256a10.617 10.617 0 0 1-.767 4.168 8.715 8.715 0 0 1-5.218 5 11.407 11.407 0 0 1-3.9.667 10.918 10.918 0 0 1-1.734-.15 12.382 12.382 0 0 1-1.851-.433 10.3 10.3 0 0 1-1.784-.734 7.147 7.147 0 0 1-1.517-1.034 1.526 1.526 0 0 1-.383-.417 1.049 1.049 0 0 1-.15-.55 1.506 1.506 0 0 1 .283-.8l1.417-1.967a1.65 1.65 0 0 1 .383-.333.793.793 0 0 1 .383-.117 1.428 1.428 0 0 1 .817.367 3.167 3.167 0 0 0 .867.584 5.483 5.483 0 0 0 1 .35 7.6 7.6 0 0 0 1.017.167c.333.017.634.033.9.033a5.987 5.987 0 0 0 1.4-.183 5.423 5.423 0 0 0 1.367-.534 4.369 4.369 0 0 0 1.117-.867 2.37 2.37 0 0 0 .706-1.166zm-8.569-8.906a5.694 5.694 0 0 0 .3 1.867 4.285 4.285 0 0 0 .884 1.484 4.042 4.042 0 0 0 1.367.984 4.429 4.429 0 0 0 1.784.367 5 5 0 0 0 1.8-.333 4.57 4.57 0 0 0 1.484-.934 5.035 5.035 0 0 0 1.017-1.4 4.667 4.667 0 0 0 .433-1.751v-.5a4.434 4.434 0 0 0-.433-1.734 4.585 4.585 0 0 0-1.017-1.434 4.524 4.524 0 0 0-1.484-.984 4.4 4.4 0 0 0-1.8-.367 4.228 4.228 0 0 0-1.784.383 4.18 4.18 0 0 0-1.367 1.034 4.719 4.719 0 0 0-.884 1.517 5.3 5.3 0 0 0-.3 1.801zm22.074-7.466a3.994 3.994 0 0 1 .784-.834 6.479 6.479 0 0 1 1.15-.734 7.064 7.064 0 0 1 1.45-.517 6.854 6.854 0 0 1 1.684-.2 6.433 6.433 0 0 1 2.968.65 5.807 5.807 0 0 1 2.067 1.8 7.749 7.749 0 0 1 1.217 2.651 12.734 12.734 0 0 1 .4 3.234v9.82a1.311 1.311 0 0 1-.25.867.97.97 0 0 1-.784.3h-3.468a1.316 1.316 0 0 1-.884-.217 1.13 1.13 0 0 1-.233-.85v-9.9a2.866 2.866 0 0 0-.25-1.2 3.234 3.234 0 0 0-.667-.967 3.369 3.369 0 0 0-.984-.65 3.122 3.122 0 0 0-1.184-.233 2.523 2.523 0 0 0-1.05.217 3.137 3.137 0 0 0-.934.617 3.645 3.645 0 0 0-.684.95 3 3 0 0 0-.317 1.234v9.886a1.492 1.492 0 0 1-.1.517.779.779 0 0 1-.3.383 1.4 1.4 0 0 1-.367.167 1.459 1.459 0 0 1-.4.05h-3.4a1.2 1.2 0 0 1-.934-.317 1.23 1.23 0 0 1-.283-.834v-22.408a1.186 1.186 0 0 1 .283-.817 1.171 1.171 0 0 1 .934-.317h3.384a1.673 1.673 0 0 1 .767.233.779.779 0 0 1 .3.383 1.322 1.322 0 0 1 .1.483v6.552zm15.287-4.968a.839.839 0 0 1 .3-.7 3.894 3.894 0 0 1 .884-.45l3.4-1.184a.462.462 0 0 1 .15-.017h.133a.759.759 0 0 1 .734.317 1.609 1.609 0 0 1 .183.85l-.017 4.118h1.667a1.129 1.129 0 0 1 .784.283 1.906 1.906 0 0 1 .517.85l1.167 2.884a.92.92 0 0 1-.133.917 1.006 1.006 0 0 1-.784.3h-3.218l.017 12.654a1.117 1.117 0 0 1-.333.867 1.293 1.293 0 0 1-.917.3h-3.384a1.017 1.017 0 0 1-1.15-1.15l-.017-12.653h-1.55c-.767 0-1.15-.4-1.15-1.217v-2.885a1 1 0 0 1 1.15-1.134h1.55zm10.687 4.401a1.125 1.125 0 0 1 0-1.034c.15-.283.5-.433 1.034-.433h3.7a.885.885 0 0 1 .617.233 1.4 1.4 0 0 1 .367.584l4.235 12.07 4.135-12.054a1.329 1.329 0 0 1 .417-.65 1.21 1.21 0 0 1 .7-.167h3.851a1.5 1.5 0 0 1 .667.117.6.6 0 0 1 .333.3.694.694 0 0 1 .067.417 2.24 2.24 0 0 1-.117.45c-.383.934-.8 1.967-1.25 3.084s-.917 2.267-1.4 3.484c-.484 1.2-.984 2.434-1.484 3.668-.5 1.25-.984 2.467-1.467 3.668-.467 1.2-.934 2.351-1.367 3.451s-.834 2.117-1.2 3.034-.684 1.734-.95 2.434-.467 1.234-.617 1.617l.05-.067a1.387 1.387 0 0 1-.367.65.947.947 0 0 1-.667.25h-3.452a1.206 1.206 0 0 1-.917-.267 1.062 1.062 0 0 1-.25-.767.7.7 0 0 1 .05-.3.629.629 0 0 1 .083-.133l2.351-6.119zm32.244 11.733a.863.863 0 0 1 .4-.183 2.709 2.709 0 0 1 .3-.033 1.119 1.119 0 0 1 .467.1 1.246 1.246 0 0 1 .433.45l1.684 2.534c.05.083.1.167.15.267a.557.557 0 0 1 .067.233.754.754 0 0 1-.217.567 3.35 3.35 0 0 1-.467.383 11.006 11.006 0 0 1-2.684 1.367 9.036 9.036 0 0 1-3.1.517 9.6 9.6 0 0 1-2.6-.35 9.352 9.352 0 0 1-2.334-.984 9.725 9.725 0 0 1-1.984-1.534 9.292 9.292 0 0 1-1.534-1.984 10.271 10.271 0 0 1-.984-2.367 10.211 10.211 0 0 1 0-5.3 10.271 10.271 0 0 1 .984-2.367 9.659 9.659 0 0 1 3.518-3.5 9.313 9.313 0 0 1 2.334-.967 9.6 9.6 0 0 1 2.6-.35 10.23 10.23 0 0 1 3.018.433 9.451 9.451 0 0 1 2.6 1.284l-.05-.05a1.734 1.734 0 0 1 .517.45 1.033 1.033 0 0 1 .017 1.2l-1.367 2.317a1.213 1.213 0 0 1-1.017.734.973.973 0 0 1-.333-.067 1.874 1.874 0 0 1-.433-.233 7.064 7.064 0 0 0-1.417-.717 4.641 4.641 0 0 0-1.617-.283 4 4 0 0 0-1.734.383 3.949 3.949 0 0 0-1.35 1.034 5.4 5.4 0 0 0-.884 5.218 4.557 4.557 0 0 0 .884 1.484 4.257 4.257 0 0 0 1.35 1 4.046 4.046 0 0 0 1.734.367 4.269 4.269 0 0 0 1.6-.3 5.99 5.99 0 0 0 1.449-.753z"/><path d="M-32.921 560.196a1.55 1.55 0 0 1-.083.483.815.815 0 0 1-.3.367.743.743 0 0 1-.383.217 1.858 1.858 0 0 1-.383.05h-2.951a1.454 1.454 0 0 1-.517-.083.751.751 0 0 1-.317-.233 1.1 1.1 0 0 1-.2-.367c-.05-.15-.117-.3-.167-.467l-.2-.667a11.264 11.264 0 0 1-.917.8 6.466 6.466 0 0 1-1.134.7 8.469 8.469 0 0 1-1.334.5 6.13 6.13 0 0 1-1.484.183 9.633 9.633 0 0 1-2.617-.35 9.352 9.352 0 0 1-2.334-.984 9.2 9.2 0 0 1-1.967-1.534 9.78 9.78 0 0 1-1.517-1.984 10.266 10.266 0 0 1-.984-2.367 9.966 9.966 0 0 1-.35-2.651 9.594 9.594 0 0 1 .767-3.868 9.835 9.835 0 0 1 2.084-3.118 9.5 9.5 0 0 1 6.9-2.851 6.417 6.417 0 0 1 1.734.217 6.706 6.706 0 0 1 1.467.567 5.26 5.26 0 0 1 1.2.867 7.26 7.26 0 0 1 .95 1.084l.433-1.367q.15-.375.25-.6a1.148 1.148 0 0 1 .217-.35.656.656 0 0 1 .283-.15 3.183 3.183 0 0 1 .467-.033h2.234a1.729 1.729 0 0 1 .383.05.684.684 0 0 1 .383.217 1.214 1.214 0 0 1 .3.367 1.091 1.091 0 0 1 .083.483zm-14.771-8.386a5.524 5.524 0 0 0 .3 1.851 4.283 4.283 0 0 0 2.251 2.484 4.166 4.166 0 0 0 1.784.367 4.665 4.665 0 0 0 1.867-.367 5.136 5.136 0 0 0 1.5-1 4.654 4.654 0 0 0 1.367-3.334 4.62 4.62 0 0 0-.367-1.834 4.7 4.7 0 0 0-1-1.534 4.55 4.55 0 0 0-1.5-1.034 4.617 4.617 0 0 0-1.867-.383 4.228 4.228 0 0 0-1.784.383 4.18 4.18 0 0 0-1.367 1.034 4.8 4.8 0 0 0-.884 1.534 6.037 6.037 0 0 0-.3 1.833zm34.527 9.236a.915.915 0 0 1-.417.217 1.891 1.891 0 0 1-.417.05h-2.267a1.015 1.015 0 0 1-.467-.1 1.026 1.026 0 0 1-.333-.267 1.632 1.632 0 0 1-.217-.367 1.905 1.905 0 0 1-.15-.433l-.317-1.467a3.673 3.673 0 0 1-.75.984 5.7 5.7 0 0 1-1.3.95 7.962 7.962 0 0 1-1.784.717 8.24 8.24 0 0 1-2.184.283 6.606 6.606 0 0 1-3.034-.667 6.3 6.3 0 0 1-2.217-1.8 7.927 7.927 0 0 1-1.367-2.667 10.872 10.872 0 0 1-.467-3.251v-9.8a1.312 1.312 0 0 1 .25-.867.97.97 0 0 1 .784-.3h3.466a1.316 1.316 0 0 1 .884.217 1.129 1.129 0 0 1 .233.85v9.77a3 3 0 0 0 .25 1.217 3.466 3.466 0 0 0 .667 1.017 2.946 2.946 0 0 0 .984.7 2.845 2.845 0 0 0 1.184.25 4.339 4.339 0 0 0 1.167-.183 3.45 3.45 0 0 0 1.167-.567 3.005 3.005 0 0 0 .9-.984 2.817 2.817 0 0 0 .367-1.434v-9.72a1.493 1.493 0 0 1 .1-.517.779.779 0 0 1 .3-.383 1.4 1.4 0 0 1 .367-.167 1.459 1.459 0 0 1 .4-.05h3.384a1.2 1.2 0 0 1 .934.317 1.23 1.23 0 0 1 .283.834v16.768a1.083 1.083 0 0 1-.133.517.83.83 0 0 1-.35.367zm5.335-5.651a4.326 4.326 0 0 0 .884.684 7.532 7.532 0 0 0 .9.45 5.051 5.051 0 0 0 .767.25 2.192 2.192 0 0 0 .45.067c.183 0 .433 0 .734-.017a4.532 4.532 0 0 0 .85-.133 1.765 1.765 0 0 0 .7-.367.9.9 0 0 0 .3-.717 1.13 1.13 0 0 0-.167-.667 1.332 1.332 0 0 0-.484-.417 3.678 3.678 0 0 0-.767-.3c-.3-.083-.65-.2-1.034-.317a12.252 12.252 0 0 1-2.968-1.15 6.6 6.6 0 0 1-1.851-1.5 5.007 5.007 0 0 1-.95-1.784 7.279 7.279 0 0 1-.267-2.017 5.03 5.03 0 0 1 1.9-4.018 6.441 6.441 0 0 1 2.184-1.117 9.466 9.466 0 0 1 2.834-.4 9.835 9.835 0 0 1 1.767.15 6.366 6.366 0 0 1 1.567.5 7.872 7.872 0 0 1 1.467.867 12.108 12.108 0 0 1 1.417 1.267 1.033 1.033 0 0 1 .267.567.8.8 0 0 1-.333.567c-.383.317-.767.634-1.117.95s-.717.65-1.1 1.034a.7.7 0 0 1-.367.183.826.826 0 0 1-.35 0 1.107 1.107 0 0 1-.317-.15 1.255 1.255 0 0 1-.267-.25 2.641 2.641 0 0 0-1.2-.784 4.422 4.422 0 0 0-1.25-.2 2.332 2.332 0 0 0-1.167.25.8.8 0 0 0-.4.784.756.756 0 0 0 .3.6 1.726 1.726 0 0 0 .65.35 5.845 5.845 0 0 0 .817.217 7.8 7.8 0 0 1 .784.183 20.049 20.049 0 0 1 2.467.95 7.246 7.246 0 0 1 1.951 1.25 5.093 5.093 0 0 1 1.284 1.784 6.293 6.293 0 0 1 .45 2.517 5.954 5.954 0 0 1-.584 2.651 5.653 5.653 0 0 1-1.634 1.967 7.341 7.341 0 0 1-2.451 1.217 10.627 10.627 0 0 1-3.051.417 10.408 10.408 0 0 1-1.884-.167 9.025 9.025 0 0 1-1.851-.533 8.521 8.521 0 0 1-1.7-.95 6.7 6.7 0 0 1-1.434-1.4 1.2 1.2 0 0 1-.25-.45 1.057 1.057 0 0 1-.067-.45 1.16 1.16 0 0 1 .083-.417.8.8 0 0 1 .267-.317l1.934-1.934a.707.707 0 0 1 .634-.217 1.57 1.57 0 0 1 .653.467zm28.959 3.634a10.131 10.131 0 0 1-2.968 1.9 9.141 9.141 0 0 1-3.484.684 10.211 10.211 0 0 1-7.086-2.818 9.835 9.835 0 0 1-2.184-3.118 9.528 9.528 0 0 1-.817-3.918 9.906 9.906 0 0 1 .317-2.551 10.026 10.026 0 0 1 .917-2.317 9.857 9.857 0 0 1 1.434-1.984 9.432 9.432 0 0 1 1.9-1.55 8.8 8.8 0 0 1 2.284-1 9.4 9.4 0 0 1 2.584-.367 9 9 0 0 1 2.417.333 9.2 9.2 0 0 1 2.2.934 9.866 9.866 0 0 1 1.884 1.434 10.262 10.262 0 0 1 1.467 1.834 8.178 8.178 0 0 1 .95 2.134 8.4 8.4 0 0 1 .333 2.334c0 .517 0 .95-.017 1.267a1.5 1.5 0 0 1-.233.784 1.039 1.039 0 0 1-.7.4 6.2 6.2 0 0 1-1.434.117H10.106a3.818 3.818 0 0 0 .6 1.6 3.863 3.863 0 0 0 1.05 1.034 4.5 4.5 0 0 0 1.267.55 5 5 0 0 0 1.267.167 5.193 5.193 0 0 0 1.117-.117 5.944 5.944 0 0 0 1.1-.3 6.492 6.492 0 0 0 .967-.433 3.18 3.18 0 0 0 .717-.517 3.491 3.491 0 0 1 .417-.3.714.714 0 0 1 .367-.1.763.763 0 0 1 .4.133 2.765 2.765 0 0 1 .45.383l1.584 1.8a.927.927 0 0 1 .267.667.8.8 0 0 1-.167.517 2.085 2.085 0 0 1-.38.384zm-7.219-12.487a3 3 0 0 0-1.134.233 4.712 4.712 0 0 0-1.034.617 6.212 6.212 0 0 0-.867.884 5.42 5.42 0 0 0-.617 1h7.652a9.982 9.982 0 0 0-.684-1.084 4.576 4.576 0 0 0-.834-.867 3.388 3.388 0 0 0-1.084-.584 4.291 4.291 0 0 0-1.398-.2zm-158.891-6.16l-2.949 1.049c-1.166.333-1.633-.466-1.633-1.3v-3.081a1.167 1.167 0 0 1 .267-.883 1.216 1.216 0 0 1 .83-.266h3.485a1.267 1.267 0 0 1 .85.267 1.056 1.056 0 0 1 .316.883v1.915a1.72 1.72 0 0 1-1.166 1.416zm1.166 3.248v16.525a1.108 1.108 0 0 1-.316.866 1.276 1.276 0 0 1-.9.3h-3.432a1.006 1.006 0 0 1-1.116-1.149v-15.371a1.281 1.281 0 0 1 .966-1.2l3.332-1.17c1.5-.5 1.463 1.199 1.463 1.199z"/></g></svg>
