<svg xmlns="http://www.w3.org/2000/svg" viewBox="0 0 200 78.75" width="200" height="78.75"><title>patreon</title><rect x="188.85" y="5.98" width="4.9" height="66.78" fill="#052e49"/><path d="M6.25,28.24h8.86a7.66,7.66,0,1,1,0,15.31h-4v5.87H6.25ZM17.89,35.9a3.44,3.44,0,0,0-3.38-3.66H11.15v7.32h3.36A3.45,3.45,0,0,0,17.89,35.9Z" fill="#052e49"/><path d="M41.58,49.42l-.82-2.57H33.23l-.82,2.57H27.18l7.56-21.18h4.51L46.9,49.42ZM37,34.29,34.41,43h5.14Z" fill="#052e49"/><path d="M55.13,32.48H50.35V28.24H64.84v4.24H60V49.42h-4.9Z" fill="#052e49"/><path d="M72.46,28.24h8.89a7.49,7.49,0,0,1,7.72,7.66,7.42,7.42,0,0,1-4.21,6.83l4.24,6.69H83.41l-3.75-5.87h-2.3v5.87h-4.9ZM84.1,35.9a3.44,3.44,0,0,0-3.38-3.66H77.36v7.32h3.36A3.45,3.45,0,0,0,84.1,35.9Z" fill="#052e49"/><path d="M102.28,32.18V37h8v3.84h-8v4.65h8v3.94H97.38V28.24H110.3v3.94Z" fill="#052e49"/><path d="M118.25,38.83a11.21,11.21,0,0,1,22.42,0,11.21,11.21,0,0,1-22.42,0Zm17.43,0c0-3.48-2.36-6.71-6.2-6.71s-6.2,3.23-6.2,6.71,2.32,6.71,6.2,6.71S135.68,42.31,135.68,38.83Z" fill="#052e49"/><path d="M161.57,42V28.24h4.87V49.42h-5.11L153.7,35.81V49.42h-4.9V28.24h5.11Z" fill="#052e49"/></svg>
