<svg height="700pt" preserveAspectRatio="xMidYMid meet" viewBox="0 0 700 700" width="700pt" xmlns="http://www.w3.org/2000/svg"><g transform="matrix(.1 0 0 -.1 0 700)"><path d="m2006 6239c-209-26-382-52-387-56-4-4-366-620-805-1368-438-748-802-1367-807-1375-7-12 173-342 743-1360 413-740 756-1349 761-1354 9-10 780-68 788-60 3 3-2 17-11 32-157 273-1528 2787-1525 2796 3 7 384 637 846 1399 463 762 841 1388 841 1391 0 11-59 5-444-45z"/><path d="m4613 6277c3-7 372-637 821-1399 449-763 816-1393 816-1400s-333-643-740-1413c-578-1095-735-1401-722-1403 22-3 771 54 775 59 2 2 313 598 691 1324 379 726 702 1345 718 1376l30 55-767 1335c-423 734-773 1340-780 1347-9 10-774 132-831 132-9 0-14-6-11-13z"/></g></svg>